{
.appVersion = "3260";
.formatVersion = 3;
classes = (
{
automatic = 1;
code = "A Aacute Abreve Acircumflex Adieresis Agrave Amacron Aogonek Aring Atilde AE B C Cacute Ccaron Ccedilla Cdotaccent D Dcaron Dcroat Eth E Eacute Ecaron Ecircumflex Edieresis Edotaccent Egrave Emacron Eogonek Etilde F G Gbreve Gcommaaccent Gdotaccent Gmacron H I IJ Iacute Icircumflex Idieresis Idotaccent Igrave Imacron Iogonek Itilde J Jacute K Kcommaaccent L Lacute Lcaron Lcommaaccent M N Nacute Ncaron Ncommaaccent Ntilde O Oacute Ocircumflex Odieresis Ograve Ohungarumlaut Omacron Oslash Otilde OE P Q R Racute Rcaron Rcommaaccent S Sacute Scaron Scedilla Scommaaccent Germandbls T Tcaron Tcedilla Tcommaaccent U Uacute Ucircumflex Udieresis Ugrave Uhungarumlaut Umacron Uogonek Uring Utilde V W Wacute Wcircumflex Wdieresis Wgrave X Y Yacute Ycircumflex Ydieresis Ygrave Ytilde Z Zacute Zcaron Zdotaccent Lcommaaccent.loclMAH Ncommaaccent.loclMAH F_A F_a";
name = Uppercase;
}
);
customParameters = (
{
name = panose;
value = (
4,
1,
1,
5,
7,
1,
2,
1,
1,
0
);
}
);
date = "2024-05-16 03:17:03 +0000";
familyName = "Augmented Postulated Proto-Alphabet";
featurePrefixes = (
{
automatic = 1;
code = "languagesystem DFLT dflt;

languagesystem latn dflt;
languagesystem latn AZE;
languagesystem latn CRT;
languagesystem latn KAZ;
languagesystem latn TAT;
languagesystem latn TRK;
languagesystem latn ROM;
languagesystem latn MOL;
languagesystem latn MAH;
languagesystem latn NLD;
";
name = Languagesystems;
}
);
features = (
{
code = "feature locl;
feature lnum;
feature onum;
feature case;
feature swsh;
feature pnum;
feature tnum;
feature c2sc;
feature smcp;
feature salt;
feature liga;
feature dlig;";
tag = aalt;
},
{
automatic = 1;
code = "lookup ccmp_Other_1 {
	@CombiningTopAccents = [acutecomb brevecomb caroncomb circumflexcomb commaturnedabovecomb dieresiscomb dotaccentcomb gravecomb hungarumlautcomb macroncomb ringcomb tildecomb];
	lookupflag UseMarkFilteringSet @CombiningTopAccents;

glyphs = (
{
glyphname = A;
kernLeft = LCB;
kernRight = A;
lastChange = "2024-05-28 22:16:58 +0000";
layers = (
{
anchors = (
{
name = bottom;
pos = (313,0);
},
{
name = ogonek;
pos = (419,-5);
},
{
name = top;
pos = (313,468);
}
);
backgroundImage = {
imagePath = "../reference/scan/P-A.jpg";
locked = 1;
pos = (-154,-753);
scale = (10.5944,10.5944);
};
layerId = m002;
shapes = (
{
closed = 1;
nodes = (
(173,44,o),
(177,49,o),
(188,49,cs),
(213,49,o),
(275,-27,o),
(355,-27,cs),
(434,-27,o),
(572,52,o),
(572,142,cs),
(572,227,o),
(488,307,o),
(404,307,cs),
(355,307,o),
(219,214,o),
(170,199,c),
(170,31,l)
);
},
{
closed = 1;
nodes = (
(173,163,l),
(222,178,o),
(313,244,o),
(350,244,cs),
(392,244,o),
(433,196,o),
(451,154,cs),
(486,71,o),
(463,31,o),
(376,31,cs),
(299,31,o),
(215,142,o),
(173,190,c)
);
},
{
alignment = -1;
pos = (2,0);
ref = _smart.verticalBar;
},
{
piece = {
leftSerif = 100;
length = 109.59293;
};
pos = (-120,141);
ref = _smart.horizontalBar;
}
);
width = 602;
},
{
associatedMasterId = m002;
backgroundImage = {
imagePath = "../reference/scan/P-A.jpg";
locked = 1;
pos = (-154,-753);
scale = (10.5944,10.5944);
};
layerId = "0B6E8080-89E1-43CE-8675-64F527B0FEA6";
name = ref;
shapes = (
{
alignment = -1;
pos = (2,0);
ref = _smart.verticalBar;
}
);
width = 602;
}
);
metricLeft = I;
unicode = 65;
},
{
color = 4;
glyphname = AE;
kernLeft = LCB;
kernRight = E;
lastChange = "2024-05-23 02:27:39 +0000";
layers = (
{
anchors = (
{
name = top;
pos = (294,485);
}
);
annotations = (
{
pos = (337.749,633.64);
text = "can't figure out a good ligature ; ;";
type = Text;
}
);
layerId = m002;
shapes = (
{
closed = 1;
nodes = (
(173,44,o),
(176,49,o),
(186,49,cs),
(209,49,o),
(266,-27,o),
(339,-27,cs),
(412,-27,o),
(538,52,o),
(538,142,cs),
(538,227,o),
(461,307,o),
(384,307,cs),
(339,307,o),
(215,214,o),
(170,199,c),
(170,31,l)
);
},
{
closed = 1;
nodes = (
(173,163,l),
(218,178,o),
(301,244,o),
(335,244,cs),
(373,244,o),
(411,196,o),
(427,154,cs),
(459,71,o),
(438,31,o),
(359,31,cs),
(288,31,o),
(211,142,o),
(173,190,c)
);
},
{
alignment = -1;
pos = (2,0);
ref = _smart.verticalBar;
},
{
piece = {
leftSerif = 100;
length = 109.59293;
rightSerif = 100;
};
pos = (-120,141);
ref = _smart.horizontalBar;
},
{
alignment = -1;
piece = {
length = 130.49426;
};
pos = (366,-3);
ref = _smart.horizontalBar;
},
{
closed = 1;
nodes = (
(464,34,l),
(670,-105,o),
(945,-14,o),
(945,244,cs),
(945,414,o),
(820,489,o),
(747,489,cs),
(592,489,o),
(603,411,o),
(490,411,cs),
(459,411,o),
(445,375,o),
(430,368,c),
(460,356,l),
(562,356,o),
(604,456,o),
(701,456,cs),
(808,456,o),
(842,350,o),
(842,237,cs),
(842,-5,o),
(628,-82,o),
(510,97,c)
);
}
);
width = 1088;
}
);
metricLeft = A;
metricRight = E;
unicode = 198;
},
{
glyphname = B;
kernLeft = O;
kernRight = B;
lastChange = "2024-05-23 02:23:19 +0000";
layers = (
{
backgroundImage = {
imagePath = "../reference/scan/P-B.jpg";
locked = 1;
pos = (-175,-749);
scale = (10.5944,10.5944);
};
layerId = m002;
shapes = (
{
closed = 1;
nodes = (
(339,506,l),
(210,506,o),
(30,294,o),
(30,122,cs),
(30,0,o),
(120,-35,o),
(200,-35,cs),
(333,-35,o),
(467,72,o),
(501,123,cs),
(521,153,o),
(507,149,o),
(496,139,cs),
(425,74,o),
(342,31,o),
(275,31,cs),
(165,31,o),
(127,127,o),
(127,200,cs),
(127,297,o),
(193,389,o),
(241,433,cs),
(275,463,o),
(303,484,o),
(339,484,c)
);
},
{
piece = {
flatEnd = 62.18567;
length = -0.90647;
};
pos = (246,155);
ref = _smart.verticalBar_noStart.noSerif;
},
{
piece = {
leftSerif = 100;
length = 129.39754;
};
pos = (-163,0);
ref = _smart.horizontalBar;
}
);
width = 566;
}
);
unicode = 66;
},
{
glyphname = C;
kernLeft = C;
kernRight = RCB;
lastChange = "2024-05-29 00:13:29 +0000";
layers = (
{
anchors = (
{
name = bottom;
pos = (232,0);
},
{
name = "new anchor";
pos = (356,-21);
},
{
name = ogonek;
pos = (470,13);
},
{
name = top;
pos = (245,461);
}
);
backgroundImage = {
imagePath = "../reference/scan/P-C.jpg";
locked = 1;
pos = (-177,-761);
scale = (10.5944,10.5944);
};
layerId = m002;
shapes = (
{
closed = 1;
nodes = (
(30,68,o),
(227,-43,o),
(354,-43,cs),
(387,-43,o),
(443,-4,o),
(470,13,c),
(322,13,o),
(133,136,o),
(133,228,cs),
(133,249,o),
(155,259,o),
(161,265,c),
(103,265,o),
(68,273,o),
(59,273,cs),
(51,273,o),
(30,236,o),
(30,198,cs)
);
},
{
piece = {
leftSerif = 100;
length = 109.39619;
rightSerif = 100;
};
pos = (-177,-6);
ref = _smart.horizontalBar;
},
{
piece = {
height_l = 64.93471;
};
pos = (288,0);
ref = _smart.verticalBar.noEndSerif;
}
);
width = 495;
},
{
associatedMasterId = m002;
backgroundImage = {
imagePath = "../reference/scan/P-C.jpg";
locked = 1;
pos = (-177,-761);
scale = (10.5944,10.5944);
};
layerId = "DEC0A92B-8A13-4948-AD30-86447B62590A";
name = ref;
shapes = (
{
alignment = -1;
pos = (288,0);
ref = _smart.verticalBar;
}
);
visible = 1;
width = 495;
},
{
anchors = (
{
name = bottom;
pos = (232,0);
},
{
name = ogonek;
pos = (470,13);
},
{
name = top;
pos = (245,461);
}
);
associatedMasterId = m002;
backgroundImage = {
imagePath = "../reference/scan/P-C.jpg";
locked = 1;
pos = (-177,-761);
scale = (10.5944,10.5944);
};
layerId = "889BEE90-4A69-4FF3-A1FC-324AF69706D0";
name = "May 28, 24 at 18:19";
shapes = (
{
closed = 1;
nodes = (
(30,68,o),
(227,-43,o),
(354,-43,cs),
(387,-43,o),
(443,-4,o),
(470,13,c),
(322,13,o),
(133,136,o),
(133,228,cs),
(133,249,o),
(155,259,o),
(161,265,c),
(103,265,o),
(68,273,o),
(59,273,cs),
(51,273,o),
(30,236,o),
(30,198,cs)
);
},
{
piece = {
leftSerif = 100;
length = 109.39619;
rightSerif = 100;
};
pos = (-177,-6);
ref = _smart.horizontalBar;
},
{
piece = {
height_l = 67.29819;
};
pos = (288,14);
ref = _smart.verticalBar.noEndSerif;
}
);
width = 495;
}
);
metricRight = I;
unicode = 67;
},
{
glyphname = D;
kernLeft = O;
kernRight = D;
lastChange = "2024-05-28 23:30:26 +0000";
layers = (
{
anchors = (
{
name = bottom;
pos = (334,18);
},
{
name = "new anchor";
pos = (465,-21);
},
{
name = top;
pos = (340,499);
}
);
backgroundImage = {
imagePath = "../reference/scan/P-D.jpg";
locked = 1;
pos = (-102,-758);
scale = (10.5944,10.5944);
};
layerId = m002;
shapes = (
{
closed = 1;
nodes = (
(300,455,l),
(300,-11,l),
(388,19,l),
(387,511,l)
);
},
{
closed = 1;
nodes = (
(30,-10,o),
(284,-47,o),
(466,-24,cs),
(478,-22,o),
(491,-7,o),
(509,10,cs),
(527,26,o),
(547,43,o),
(535,42,cs),
(329,30,o),
(131,47,o),
(131,160,cs),
(131,300,o),
(316,488,o),
(394,488,cs),
(482,488,o),
(521,353,o),
(526,290,cs),
(527,283,o),
(532,285,o),
(536,292,cs),
(548,313,o),
(580,348,o),
(605,366,cs),
(610,369,o),
(612,373,o),
(611,376,cs),
(582,442,o),
(499,532,o),
(423,532,cs),
(344,532,o),
(30,313,o),
(30,134,cs)
);
}
);
width = 641;
}
);
unicode = 68;
},
{
glyphname = E;
kernLeft = E;
kernRight = E;
lastChange = "2024-05-28 23:31:35 +0000";
layers = (
{
anchors = (
{
name = bottom;
pos = (315,-5);
},
{
name = ogonek;
pos = (420,0);
},
{
name = top;
pos = (309,489);
}
);
backgroundImage = {
imagePath = "../reference/scan/P-E.jpg";
pos = (-79,-756);
scale = (10.5944,10.5944);
};
layerId = m002;
shapes = (
{
closed = 1;
nodes = (
(460,-37,o),
(599,69,o),
(599,239,cs),
(599,374,o),
(486,490,o),
(378,490,cs),
(289,490,o),
(222,440,o),
(159,440,cs),
(132,440,o),
(113,454,o),
(113,490,cs),
(113,523,o),
(147,540,o),
(146,544,cs),
(145,548,o),
(139,545,o),
(136,544,cs),
(130,542,o),
(64,494,o),
(35,481,cs),
(32,480,o),
(30,477,o),
(30,471,cs),
(30,436,o),
(28,381,o),
(106,381,cs),
(188,381,o),
(252,447,o),
(334,447,cs),
(426,447,o),
(484,301,o),
(484,233,cs),
(484,81,o),
(426,-1,o),
(334,-1,cs),
(254,-1,o),
(197,43,o),
(156,76,cs),
(145,85,o),
(139,75,o),
(136,72,cs),
(127,63,o),
(93,38,o),
(87,34,cs),
(77,28,o),
(70,26,o),
(75,21,cs),
(129,-23,o),
(215,-37,o),
(301,-37,cs)
);
},
{
alignment = -1;
piece = {
length = 130.49426;
};
pos = (-5,-3);
ref = _smart.horizontalBar;
}
);
width = 717;
}
);
unicode = 69;
},
{
glyphname = F;
kernLeft = LCB;
kernRight = F;
lastChange = "2024-05-28 22:19:58 +0000";
layers = (
{
backgroundImage = {
imagePath = "../reference/scan/P-F.jpg";
locked = 1;
pos = (-153,-777);
scale = (10.5944,10.5944);
};
layerId = m002;
shapes = (
{
closed = 1;
nodes = (
(97,61,l),
(184,61,l),
(184,120,ls),
(184,185,o),
(246,214,o),
(298,214,cs),
(388,214,o),
(432,126,o),
(451,84,cs),
(454,77,o),
(457,79,o),
(461,85,cs),
(476,106,o),
(517,145,o),
(540,158,cs),
(543,160,o),
(546,162,o),
(542,166,cs),
(513,197,o),
(445,259,o),
(338,259,cs),
(194,259,o),
(97,188,o),
(97,119,cs)
);
},
{
pos = (2,0);
ref = _smart.verticalBar;
}
);
width = 574;
},
{
associatedMasterId = m002;
backgroundImage = {
imagePath = "../reference/scan/P-F.jpg";
locked = 1;
pos = (-153,-777);
scale = (10.5944,10.5944);
};
layerId = "53414286-C21B-48AC-B227-F5CC5A463BCA";
name = ref;
shapes = (
{
alignment = -1;
pos = (2,0);
ref = _smart.verticalBar;
}
);
width = 574;
}
);
metricLeft = I;
unicode = 70;
},
{
glyphname = G;
kernLeft = O;
kernRight = G;
lastChange = "2024-05-28 22:37:27 +0000";
layers = (
{
anchors = (
{
name = bottom;
pos = (302,1);
},
{
name = ogonek;
pos = (465,0);
},
{
name = top;
pos = (325,480);
}
);
backgroundImage = {
imagePath = "../reference/scan/P-G.jpg";
locked = 1;
pos = (-174,-785);
scale = (10.5944,10.5944);
};
layerId = m002;
shapes = (
{
piece = {
length = 100.04669;
};
pos = (-6,-9);
ref = _smart.horizontalBar;
},
{
closed = 1;
nodes = (
(30,45,o),
(239,-43,o),
(349,-43,cs),
(415,-43,o),
(465,-4,o),
(465,0,c),
(359,18,o),
(148,76,o),
(148,219,cs),
(148,351,o),
(330,435,o),
(458,486,cs),
(472,492,o),
(469,496,o),
(448,496,cs),
(382,496,o),
(30,382,o),
(30,192,cs)
);
},
{
closed = 1;
nodes = (
(378,-12,l),
(465,0,l),
(465,236,l),
(378,236,l)
);
}
);
width = 644;
}
);
unicode = 71;
},
{
glyphname = H;
kernLeft = LCB;
kernRight = H;
lastChange = "2024-05-28 22:21:33 +0000";
layers = (
{
backgroundImage = {
imagePath = "../reference/scan/P-H.jpg";
locked = 1;
pos = (-176,-782);
scale = (10.5944,10.5944);
};
layerId = m002;
shapes = (
{
alignment = -1;
pos = (2,0);
ref = _smart.verticalBar;
},
{
closed = 1;
nodes = (
(238,297,o),
(437,336,o),
(437,408,cs),
(437,427,o),
(420,459,o),
(411,459,cs),
(398,459,o),
(297,444,o),
(297,431,cs),
(297,426,o),
(335,426,o),
(335,409,cs),
(335,368,o),
(236,283,o),
(173,260,c),
(173,219,l)
);
},
{
closed = 1;
nodes = (
(477,275,o),
(458,264,o),
(381,264,c),
(396,243,o),
(411,217,o),
(411,189,cs),
(411,115,o),
(306,-18,o),
(275,-40,cs),
(267,-46,o),
(270,-49,o),
(277,-46,cs),
(365,-15,o),
(522,84,o),
(522,215,cs),
(522,245,o),
(514,275,o),
(487,275,cs)
);
},
{
piece = {
leftSerif = 100;
length = 104.05855;
rightSerif = 100;
};
pos = (-116,-7);
ref = _smart.horizontalBar;
}
);
width = 552;
},
{
associatedMasterId = m002;
backgroundImage = {
imagePath = "../reference/scan/P-H.jpg";
locked = 1;
pos = (-176,-782);
scale = (10.5944,10.5944);
};
layerId = "3E8C3001-87B9-4CC4-B278-C9953DAF0018";
name = ref;
shapes = (
{
alignment = -1;
pos = (2,0);
ref = _smart.verticalBar;
}
);
width = 552;
}
);
metricLeft = I;
unicode = 72;
},
{
glyphname = J;
kernLeft = "LCB-x";
kernRight = J;
lastChange = "2024-05-23 01:22:55 +0000";
layers = (
{
anchors = (
{
name = top;
pos = (193,489);
}
);
backgroundImage = {
imagePath = "../reference/scan/P-J.jpg";
locked = 1;
pos = (-96,-785);
scale = (10.5944,10.5944);
};
layerId = m002;
shapes = (
{
alignment = -1;
piece = {
leftSerif = 0;
length = 87.8156;
};
pos = (-198,-10);
ref = _smart.horizontalBar;
},
{
closed = 1;
nodes = (
(179,135,ls),
(179,27,o),
(273,-33,o),
(392,-33,cs),
(530,-33,o),
(617,91,o),
(638,128,cs),
(643,137,o),
(638,139,o),
(630,133,cs),
(577,93,o),
(522,42,o),
(417,42,cs),
(283,42,o),
(266,106,o),
(266,190,cs),
(266,266,l),
(179,209,l)
);
},
{
piece = {
height_l = 37.80717;
};
pos = (84,6);
ref = _smart.verticalBar.noEndSerif;
}
);
width = 660;
}
);
unicode = 74;
},
{
glyphname = K;
kernLeft = K;
kernRight = K;
lastChange = "2024-05-23 01:15:02 +0000";
layers = (
{
anchors = (
{
name = bottom;
pos = (276,0);
}
);
backgroundImage = {
imagePath = "../reference/scan/P-K.jpg";
locked = 1;
pos = (-128,-799);
scale = (10.5944,10.5944);
};
layerId = m002;
shapes = (
{
closed = 1;
nodes = (
(97,325,o),
(97,202,o),
(95,196,cs),
(94,191,o),
(98,189,o),
(105,199,cs),
(180,301,o),
(277,434,o),
(343,435,cs),
(382,435,o),
(422,388,o),
(422,327,cs),
(422,267,o),
(384,247,o),
(361,247,cs),
(336,247,o),
(339,279,o),
(310,264,cs),
(246,232,o),
(230,234,o),
(230,227,cs),
(230,221,o),
(249,230,o),
(249,148,cs),
(249,65,o),
(268,-45,o),
(456,-45,cs),
(478,-45,o),
(481,-40,o),
(467,-37,cs),
(362,-13,o),
(349,64,o),
(349,141,cs),
(349,202,l),
(407,206,o),
(532,238,o),
(532,360,cs),
(532,436,o),
(484,497,o),
(394,497,cs),
(255,497,o),
(158,351,o),
(97,340,c)
);
},
{
piece = {
height_l = 8.07249;
};
pos = (2,-10);
ref = _smart.verticalBar.noEndSerif;
}
);
width = 562;
}
);
unicode = 75;
},
{
glyphname = L;
kernLeft = L;
kernRight = L;
lastChange = "2024-05-28 22:21:54 +0000";
layers = (
{
anchors = (
{
name = bottom;
pos = (257,6);
},
{
name = "new anchor";
pos = (375,-21);
},
{
name = top;
pos = (258,480);
}
);
backgroundImage = {
imagePath = "../reference/scan/P-L.jpg";
locked = 1;
pos = (-156,-797);
scale = (10.5944,10.5944);
};
hints = (
{
name = _corner.a;
origin = (0,1);
type = Corner;
}
);
layerId = m002;
shapes = (
{
closed = 1;
nodes = (
(86,35,l),
(29,-21,l),
(376,-21,l),
(401,-21,o),
(491,71,o),
(511,101,cs),
(518,111,o),
(513,114,o),
(498,99,cs),
(477,79,o),
(432,35,o),
(388,35,c)
);
},
{
piece = {
height_l = 61.70507;
};
pos = (127,0);
ref = _smart.verticalBar.noEndSerif;
},
{
piece = {
length = 87.14236;
};
pos = (-153,-12);
ref = _smart.horizontalBar;
}
);
width = 534;
},
{
associatedMasterId = m002;
backgroundImage = {
imagePath = "../reference/scan/P-L.jpg";
locked = 1;
pos = (-156,-797);
scale = (10.5944,10.5944);
};
layerId = "E65DA3FE-0996-43AA-9CE1-490F3E7CE83F";
name = ref;
shapes = (
{
alignment = -1;
pos = (127,0);
ref = _smart.verticalBar;
}
);
width = 534;
}
);
unicode = 76;
},
{
glyphname = M;
kernLeft = M;
kernRight = M;
lastChange = "2024-05-28 22:22:23 +0000";
layers = (
{
anchors = (
{
name = "new anchor";
pos = (293,-21);
}
);
backgroundImage = {
imagePath = "../reference/scan/P-M.jpg";
locked = 1;
pos = (-52,-802);
scale = (10.5944,10.5944);
};
layerId = m002;
shapes = (
{
closed = 1;
nodes = (
(358,243,l),
(370,283,o),
(380,286,o),
(408,286,cs),
(445,286,o),
(489,224,o),
(537,135,cs),
(598,20,o),
(606,-29,o),
(662,-29,cs),
(727,-29,o),
(774,39,o),
(784,69,cs),
(786,76,o),
(783,83,o),
(777,76,cs),
(761,52,o),
(744,44,o),
(732,44,cs),
(688,44,o),
(631,159,o),
(567,269,cs),
(544,308,o),
(510,364,o),
(462,364,cs),
(408,364,o),
(363,286,o),
(351,263,c)
);
},
{
closed = 1;
nodes = (
(174,236,l),
(205,275,o),
(204,301,o),
(226,301,cs),
(261,301,o),
(291,254,o),
(318,198,cs),
(367,97,o),
(413,-29,o),
(489,-29,cs),
(556,-29,o),
(617,67,o),
(617,105,c),
(591,49,o),
(579,44,o),
(546,44,cs),
(503,44,o),
(443,164,o),
(432,185,cs),
(355,338,o),
(306,364,o),
(280,364,cs),
(245,364,o),
(204,301,o),
(168,275,c)
);
},
{
piece = {
height_l = 61.88384;
};
pos = (45,0);
ref = _smart.verticalBar.noEndSerif;
},
{
piece = {
length = 80.31541;
};
pos = (-208,-236);
ref = _smart.horizontalBar;
}
);
width = 805;
},
{
associatedMasterId = m002;
backgroundImage = {
imagePath = "../reference/scan/P-M.jpg";
locked = 1;
pos = (-52,-802);
scale = (10.5944,10.5944);
};
layerId = "C9536C75-603A-45A8-9CE4-F8701C7D7180";
name = ref;
shapes = (
{
alignment = -1;
pos = (45,0);
ref = _smart.verticalBar;
}
);
visible = 1;
width = 805;
}
);
unicode = 77;
},
{
glyphname = N;
kernLeft = "LCB-x";
kernRight = N;
lastChange = "2024-05-28 22:22:49 +0000";
layers = (
{
anchors = (
{
name = bottom;
pos = (377,0);
},
{
name = top;
pos = (373,480);
}
);
backgroundImage = {
imagePath = "../reference/scan/P-N.jpg";
locked = 1;
pos = (-111,-811);
scale = (10.5944,10.5944);
};
layerId = m002;
shapes = (
{
closed = 1;
nodes = (
(390,384,ls),
(377,370,o),
(380,367,o),
(399,367,cs),
(453,367,o),
(541,268,o),
(541,177,cs),
(541,93,o),
(467,64,o),
(410,64,cs),
(323,64,o),
(256,131,o),
(256,245,c),
(219,217,l),
(256,73,l),
(256,154,o),
(268,-31,o),
(451,-31,cs),
(592,-31,o),
(621,80,o),
(621,150,cs),
(621,307,o),
(478,376,o),
(469,380,cs),
(460,384,o),
(456,390,o),
(482,390,c),
(453,446,l)
);
},
{
alignment = -1;
piece = {
height_l = 67.03162;
};
pos = (74,0);
ref = _smart.verticalBar;
},
{
alignment = -1;
piece = {
leftSerif = 100;
length = 66.62606;
};
pos = (159,175);
ref = _smart.horizontalBar;
},
{
piece = {
length = 83.51986;
};
pos = (-198,-12);
ref = _smart.horizontalBar;
}
);
width = 719;
},
{
associatedMasterId = m002;
backgroundImage = {
imagePath = "../reference/scan/P-N.jpg";
locked = 1;
pos = (-111,-811);
scale = (10.5944,10.5944);
};
layerId = "A8A2147F-5A04-40A4-8FF7-669726A56089";
name = ref;
shapes = (
{
alignment = -1;
pos = (74,0);
ref = _smart.verticalBar;
}
);
visible = 1;
width = 719;
}
);
metricLeft = J;
unicode = 78;
},
{
glyphname = O;
kernLeft = O;
kernRight = O;
lastChange = "2024-05-28 21:41:48 +0000";
layers = (
{
anchors = (
{
name = top;
pos = (303,499);
}
);
backgroundImage = {
imagePath = "../reference/scan/P-O.jpg";
pos = (-148,-809);
scale = (10.5944,10.5944);
};
layerId = m002;
shapes = (
{
closed = 1;
nodes = (
(620,237,o),
(577,403,o),
(450,473,cs),
(326,541,o),
(208,507,o),
(122,411,cs),
(41,327,o),
(-16,169,o),
(81,44,cs),
(149,-43,o),
(387,-95,o),
(503,70,cs)
);
},
{
closed = 1;
nodes = (
(393,4,o),
(242,15,o),
(165,115,cs),
(104,195,o),
(83,332,o),
(149,403,cs),
(192,449,o),
(318,442,o),
(397,381,cs),
(490,309,o),
(538,146,o),
(442,52,cs)
);
}
);
width = 601;
}
);
unicode = 79;
},
{
color = 4;
glyphname = OE;
kernLeft = O;
kernRight = E;
lastChange = "2024-05-23 01:41:45 +0000";
layers = (
{
annotations = (
{
pos = (420.446,624.315);
text = "can't figure out a good ligature ; ;";
type = Text;
}
);
layerId = m002;
shapes = (
{
alignment = -1;
piece = {
length = 124.58114;
};
pos = (374,-3);
ref = _smart.horizontalBar;
},
{
ref = O;
},
{
closed = 1;
nodes = (
(409,18,l),
(463,-24,o),
(603,-33,o),
(650,-33,cs),
(816,-33,o),
(924,79,o),
(924,243,cs),
(924,404,o),
(819,498,o),
(665,498,cs),
(603,498,o),
(515,483,o),
(446,434,c),
(463,413,l),
(525,447,o),
(593,459,o),
(632,459,cs),
(741,459,o),
(819,363,o),
(819,214,cs),
(819,98,o),
(772,0,o),
(660,0,cs),
(624,0,o),
(550,10,o),
(480,65,c)
);
}
);
width = 1080;
}
);
metricLeft = O;
metricRight = E;
unicode = 338;
},
{
glyphname = P;
kernLeft = LCB;
kernRight = P;
lastChange = "2024-05-28 22:23:25 +0000";
layers = (
{
backgroundImage = {
imagePath = "../reference/scan/P-P.jpg";
locked = 1;
pos = (-105,-810);
scale = (10.5944,10.5944);
};
layerId = m002;
shapes = (
{
closed = 1;
nodes = (
(97,172,l),
(97,45,o),
(220,-33,o),
(325,-33,cs),
(429,-33,o),
(628,43,o),
(628,218,cs),
(628,313,o),
(519,363,o),
(499,363,cs),
(461,363,o),
(291,295,o),
(291,288,cs),
(291,282,o),
(315,281,o),
(315,264,cs),
(315,253,l),
(337,259,o),
(384,299,o),
(411,299,cs),
(443,299,o),
(527,253,o),
(527,186,cs),
(527,142,o),
(492,13,o),
(368,13,cs),
(257,13,o),
(184,115,o),
(184,231,c)
);
},
{
piece = {
flatEnd = 96.54732;
length = 25.63932;
};
pos = (309,-8);
ref = _smart.verticalBar_noStart.noSerif;
},
{
piece = {
height_l = 30.78659;
};
pos = (2,0);
ref = _smart.verticalBar.noEndSerif;
}
);
width = 658;
},
{
associatedMasterId = m002;
backgroundImage = {
imagePath = "../reference/scan/P-P.jpg";
locked = 1;
pos = (-105,-810);
scale = (10.5944,10.5944);
};
layerId = "338A227B-6E16-439A-9EC5-467AA084D192";
name = ref;
shapes = (
{
alignment = -1;
pos = (2,0);
ref = _smart.verticalBar;
}
);
width = 658;
}
);
metricLeft = I;
unicode = 80;
},
{
glyphname = Q;
kernLeft = Q;
kernRight = RCB;
lastChange = "2024-05-28 22:24:16 +0000";
layers = (
{
backgroundImage = {
imagePath = "../reference/scan/P-Q.jpg";
locked = 1;
pos = (-159,-827);
scale = (10.5944,10.5944);
};
layerId = m002;
shapes = (
{
closed = 1;
nodes = (
(158,354,o),
(30,265,o),
(30,162,cs),
(30,91,o),
(118,37,o),
(160,37,c),
(152,-5,o),
(98,-28,o),
(63,-43,cs),
(47,-49,o),
(52,-52,o),
(76,-50,cs),
(149,-43,o),
(242,-10,o),
(262,76,cs),
(267,98,o),
(259,151,o),
(253,151,cs),
(247,151,o),
(224,123,o),
(198,123,cs),
(167,123,o),
(130,162,o),
(130,193,cs),
(130,229,o),
(178,317,o),
(260,317,cs),
(327,317,o),
(379,257,o),
(379,209,cs),
(379,149,l),
(466,197,l),
(466,252,ls),
(466,303,o),
(371,354,o),
(279,354,cs)
);
},
{
piece = {
height_l = 67.25285;
};
pos = (284,1);
ref = _smart.verticalBar;
}
);
width = 491;
},
{
associatedMasterId = m002;
backgroundImage = {
imagePath = "../reference/scan/P-Q.jpg";
locked = 1;
pos = (-159,-827);
scale = (10.5944,10.5944);
};
layerId = "B3BC86AA-2728-4E33-8852-C561DB32F133";
name = ref;
shapes = (
{
alignment = -1;
pos = (284,0);
ref = _smart.verticalBar;
}
);
width = 491;
}
);
metricRight = I;
unicode = 81;
},
{
glyphname = R;
kernLeft = LCB;
kernRight = R;
lastChange = "2024-05-28 22:24:32 +0000";
layers = (
{
anchors = (
{
name = bottom;
pos = (240,0);
},
{
name = top;
pos = (331,424);
}
);
backgroundImage = {
imagePath = "../reference/scan/P-R.jpg";
locked = 1;
pos = (-133,-824);
scale = (10.5944,10.5944);
};
layerId = m002;
shapes = (
{
closed = 1;
nodes = (
(342,-35,o),
(487,30,o),
(516,63,cs),
(522,70,o),
(522,74,o),
(511,70,cs),
(468,56,o),
(372,16,o),
(324,16,c),
(300,-35,l)
);
},
{
alignment = -1;
pos = (2,0);
ref = _smart.verticalBar;
},
{
closed = 1;
nodes = (
(173,184,l),
(183,230,o),
(255,309,o),
(320,309,cs),
(369,309,o),
(411,264,o),
(411,225,cs),
(411,164,o),
(306,124,o),
(280,117,cs),
(273,115,o),
(273,112,o),
(282,109,cs),
(410,70,o),
(515,136,o),
(515,233,cs),
(515,322,o),
(425,360,o),
(367,360,cs),
(300,360,o),
(212,309,o),
(173,309,c)
);
},
{
closed = 1;
nodes = (
(300,-35,l),
(387,13,l),
(387,118,l),
(300,113,l)
);
}
);
width = 550;
},
{
associatedMasterId = m002;
backgroundImage = {
imagePath = "../reference/scan/P-R.jpg";
locked = 1;
pos = (-133,-824);
scale = (10.5944,10.5944);
};
layerId = "0EBB7568-7B5D-4EC0-B444-33BFC8DA64AD";
name = ref;
shapes = (
{
alignment = -1;
pos = (2,0);
ref = _smart.verticalBar;
}
);
width = 550;
}
);
metricLeft = I;
unicode = 82;
},
{
glyphname = S;
kernLeft = LCB;
kernRight = S;
lastChange = "2024-05-28 22:24:46 +0000";
layers = (
{
anchors = (
{
name = bottom;
pos = (312,-24);
},
{
name = ogonek;
pos = (433,-12);
},
{
name = top;
pos = (331,381);
}
);
backgroundImage = {
imagePath = "../reference/scan/P-S.jpg";
locked = 1;
pos = (-191,-850);
scale = (10.5944,10.5944);
};
layerId = m002;
shapes = (
{
closed = 1;
nodes = (
(313,-51,o),
(316,-55,o),
(330,-52,cs),
(391,-41,o),
(549,12,o),
(549,140,cs),
(549,234,o),
(465,274,o),
(396,274,cs),
(295,274,o),
(204,187,o),
(168,187,c),
(168,142,l),
(196,157,o),
(304,211,o),
(357,211,cs),
(406,211,o),
(439,166,o),
(439,107,cs),
(439,16,o),
(362,-26,o),
(320,-48,cs)
);
},
{
pos = (2,0);
ref = _smart.verticalBar;
}
);
width = 579;
},
{
associatedMasterId = m002;
backgroundImage = {
imagePath = "../reference/scan/P-S.jpg";
locked = 1;
pos = (-191,-850);
scale = (10.5944,10.5944);
};
layerId = "FF36F457-E77C-4A75-A19A-560244D743EF";
name = ref;
shapes = (
{
alignment = -1;
pos = (2,0);
ref = _smart.verticalBar;
}
);
width = 579;
}
);
metricLeft = I;
unicode = 83;
},
{
color = 4;
glyphname = Scedilla;
kernLeft = LCB;
kernRight = S;
lastChange = "2024-05-23 00:13:56 +0000";
layers = (
{
layerId = m002;
shapes = (
{
ref = S;
},
{
closed = 1;
nodes = (
(307,-52,o),
(305,-90,o),
(305,-95,cs),
(305,-119,o),
(363,-153,o),
(363,-188,cs),
(363,-213,o),
(340,-230,o),
(312,-248,cs),
(305,-252,o),
(305,-255,o),
(315,-255,cs),
(345,-254,o),
(433,-230,o),
(433,-179,cs),
(433,-119,o),
(348,-99,o),
(348,-84,cs),
(348,-72,o),
(353,-58,o),
(375,-31,c),
(320,-48,l)
);
}
);
width = 579;
}
);
unicode = 350;
},
{
color = 4;
glyphname = Germandbls;
kernLeft = LCB;
kernRight = H;
lastChange = "2024-05-22 22:53:38 +0000";
layers = (
{
layerId = m002;
shapes = (
{
closed = 1;
nodes = (
(238,-51,o),
(241,-56,o),
(255,-52,cs),
(328,-30,o),
(474,32,o),
(474,153,cs),
(474,277,o),
(323,259,o),
(323,271,cs),
(323,281,o),
(417,312,o),
(417,380,cs),
(417,444,o),
(335,500,o),
(245,500,cs),
(136,500,o),
(22,418,o),
(22,361,cs),
(22,325,l),
(109,325,l),
(109,366,ls),
(109,423,o),
(147,451,o),
(217,451,cs),
(291,451,o),
(318,419,o),
(318,375,cs),
(318,335,o),
(296,298,o),
(265,259,cs),
(238,226,o),
(241,226,o),
(272,231,cs),
(340,243,o),
(368,200,o),
(368,134,cs),
(368,22,o),
(287,-24,o),
(245,-47,cs)
);
},
{
piece = {
length = 56.67392;
};
pos = (16,54);
ref = _smart.verticalBar_noStart;
}
);
width = 504;
}
);
unicode = 7838;
},
{
glyphname = T;
kernLeft = T;
kernRight = RCB;
lastChange = "2024-05-28 22:25:03 +0000";
layers = (
{
anchors = (
{
name = bottom;
pos = (249,0);
},
{
name = ogonek;
pos = (447,0);
},
{
name = top;
pos = (259,440);
}
);
backgroundImage = {
imagePath = "../reference/scan/P-T.jpg";
locked = 1;
pos = (-173,-849);
scale = (10.5944,10.5944);
};
layerId = m002;
shapes = (
{
closed = 1;
nodes = (
(26,209,o),
(35,202,o),
(44,209,cs),
(109,260,o),
(182,284,o),
(235,284,cs),
(287,284,o),
(369,259,o),
(369,198,cs),
(369,157,l),
(456,206,l),
(456,259,ls),
(456,300,o),
(377,336,o),
(273,336,cs),
(124,336,o),
(55,252,o),
(32,218,cs)
);
},
{
pos = (274,0);
ref = _smart.verticalBar;
}
);
width = 481;
},
{
associatedMasterId = m002;
backgroundImage = {
imagePath = "../reference/scan/P-T.jpg";
locked = 1;
pos = (-173,-849);
scale = (10.5944,10.5944);
};
layerId = "E5BA6E24-DFA7-4BEB-9285-2F0EFFC588CA";
name = ref;
shapes = (
{
alignment = -1;
pos = (274,0);
ref = _smart.verticalBar;
}
);
width = 481;
}
);
metricRight = I;
unicode = 84;
},
{
glyphname = U;
kernLeft = U;
kernRight = O;
lastChange = "2024-05-23 01:50:53 +0000";
layers = (
{
anchors = (
{
name = ogonek;
pos = (386,5);
},
{
name = top;
pos = (302,499);
}
);
backgroundImage = {
imagePath = "../reference/scan/P-U.jpg";
locked = 1;
pos = (-123,-837);
scale = (10.5944,10.5944);
};
layerId = m002;
shapes = (
{
closed = 1;
nodes = (
(55,409,o),
(63,409,o),
(71,414,cs),
(85,423,o),
(100,425,o),
(113,425,cs),
(133,425,o),
(154,404,o),
(154,386,cs),
(154,352,o),
(30,268,o),
(30,156,cs),
(30,35,o),
(174,-37,o),
(277,-37,cs),
(429,-37,o),
(623,119,o),
(623,296,cs),
(623,416,o),
(534,469,o),
(495,489,cs),
(456,509,o),
(448,506,o),
(427,506,cs),
(406,506,o),
(283,430,o),
(272,419,c),
(294,415,l),
(312,421,o),
(315,432,o),
(349,432,cs),
(418,432,o),
(521,377,o),
(521,246,cs),
(521,164,o),
(437,13,o),
(287,13,cs),
(206,13,o),
(130,85,o),
(130,175,cs),
(130,290,o),
(230,342,o),
(230,438,cs),
(230,480,o),
(190,510,o),
(164,510,cs),
(125,510,o),
(82,444,o),
(61,417,cs)
);
},
{
closed = 1;
nodes = (
(272,0,l),
(359,0,l),
(359,450,l),
(272,419,l)
);
},
{
piece = {
leftSerif = 100;
length = 78.84638;
rightSerif = 100;
};
pos = (47,2);
ref = _smart.horizontalBar;
}
);
width = 653;
}
);
unicode = 85;
},
{
glyphname = V;
kernLeft = "LCB-x";
kernRight = V;
lastChange = "2024-05-28 22:25:34 +0000";
layers = (
{
backgroundImage = {
imagePath = "../reference/scan/P-V.jpg";
locked = 1;
pos = (-77,-847);
scale = (10.5944,10.5944);
};
layerId = m002;
shapes = (
{
closed = 1;
nodes = (
(458,7,o),
(417,52,o),
(380,63,cs),
(361,69,o),
(354,61,o),
(370,53,cs),
(424,27,o),
(467,-40,o),
(549,-40,cs),
(597,-40,o),
(666,15,o),
(666,97,cs),
(666,191,o),
(612,206,o),
(242,452,c),
(224,423,l),
(260,402,o),
(304,373,o),
(442,274,cs),
(599,162,o),
(572,89,o),
(526,56,cs)
);
},
{
piece = {
height_l = 67.03726;
};
pos = (81,0);
ref = _smart.verticalBar;
},
{
piece = {
length = 88.19333;
};
pos = (-198,-25);
ref = _smart.horizontalBar;
}
);
width = 696;
},
{
associatedMasterId = m002;
backgroundImage = {
imagePath = "../reference/scan/P-V.jpg";
locked = 1;
pos = (-77,-847);
scale = (10.5944,10.5944);
};
layerId = "493BDF25-F57F-4AED-BE64-CF6B8B5571A3";
name = ref;
shapes = (
{
alignment = -1;
pos = (81,0);
ref = _smart.verticalBar;
}
);
visible = 1;
width = 696;
}
);
metricLeft = J;
unicode = 86;
},
{
glyphname = W;
kernLeft = LCB;
kernRight = RCB;
lastChange = "2024-05-28 22:26:22 +0000";
layers = (
{
anchors = (
{
name = top;
pos = (388,499);
}
);
backgroundImage = {
imagePath = "../reference/scan/P-W.jpg";
locked = 1;
pos = (-54,-855);
scale = (10.5944,10.5944);
};
layerId = m002;
shapes = (
{
piece = {
height_l = 16.09006;
};
pos = (260,0);
ref = _smart.verticalBar.noEndSerif;
},
{
closed = 1;
nodes = (
(355,109,o),
(354,72,o),
(310,45,cs),
(260,14,o),
(212,54,o),
(173,70,c),
(170,42,l),
(205,42,o),
(286,-45,o),
(356,-45,cs),
(400,-45,o),
(442,-18,o),
(442,143,cs),
(442,143,o),
(442,235,o),
(442,309,c),
(355,265,l)
);
},
{
piece = {
height_l = 16.09006;
};
pos = (504,0);
ref = _smart.verticalBar.noEndSerif;
},
{
closed = 1;
nodes = (
(599,152,o),
(599,101,o),
(577,72,cs),
(555,42,o),
(472,18,o),
(425,50,c),
(412,34,l),
(472,0,o),
(516,-47,o),
(573,-47,cs),
(634,-47,o),
(686,4,o),
(686,164,cs),
(686,164,o),
(686,236,o),
(686,309,c),
(599,265,l)
);
},
{
piece = {
height_l = 67.01151;
};
pos = (2,0);
ref = _smart.verticalBar;
}
);
width = 711;
},
{
associatedMasterId = m002;
backgroundImage = {
imagePath = "../reference/scan/P-W.jpg";
locked = 1;
pos = (-54,-855);
scale = (10.5944,10.5944);
};
layerId = "4B598258-FB7C-4C83-A926-4733377AA0B4";
name = ref;
shapes = (
{
alignment = -1;
pos = (2,0);
ref = _smart.verticalBar;
}
);
width = 711;
}
);
metricLeft = I;
metricRight = I;
unicode = 87;
},
{
glyphname = X;
kernLeft = X;
kernRight = X;
lastChange = "2024-05-23 01:51:53 +0000";
layers = (
{
backgroundImage = {
imagePath = "../reference/scan/P-X.jpg";
locked = 1;
pos = (-89,-851);
scale = (10.5944,10.5944);
};
layerId = m002;
shapes = (
{
closed = 1;
nodes = (
(321,232,l),
(160,142,o),
(30,62,o),
(30,11,cs),
(30,-25,o),
(49,-39,o),
(65,-47,c),
(88,-38,o),
(157,-16,o),
(187,-16,cs),
(194,-16,o),
(194,-12,o),
(187,-8,cs),
(162,6,o),
(145,19,o),
(162,53,cs),
(184,96,o),
(242,162,o),
(390,241,c)
);
},
{
closed = 1;
nodes = (
(30,405,o),
(35,402,o),
(41,412,cs),
(49,424,o),
(61,438,o),
(83,438,cs),
(137,438,o),
(232,301,o),
(262,267,cs),
(447,52,o),
(503,-34,o),
(561,-34,cs),
(607,-34,o),
(646,28,o),
(659,51,cs),
(662,57,o),
(657,59,o),
(651,54,cs),
(641,44,o),
(627,34,o),
(603,34,cs),
(553,34,o),
(460,168,o),
(361,288,cs),
(283,383,o),
(198,501,o),
(137,501,cs),
(93,501,o),
(46,445,o),
(35,418,cs)
);
}
);
width = 680;
}
);
unicode = 88;
},
{
glyphname = Y;
kernLeft = LCB;
kernRight = Y;
lastChange = "2024-05-28 22:26:35 +0000";
layers = (
{
anchors = (
{
name = top;
pos = (285,499);
}
);
backgroundImage = {
imagePath = "../reference/scan/P-Y.jpg";
locked = 1;
pos = (-159,-870);
scale = (10.5944,10.5944);
};
layerId = m002;
shapes = (
{
closed = 1;
nodes = (
(469,352,o),
(447,316,o),
(380,271,c),
(408,257,l),
(502,298,o),
(582,360,o),
(546,431,cs),
(513,495,o),
(447,500,o),
(423,500,cs),
(399,500,o),
(337,447,o),
(294,424,cs),
(290,422,o),
(291,418,o),
(296,418,cs),
(303,418,o),
(350,446,o),
(375,446,cs),
(403,446,o),
(431,425,o),
(447,394,cs)
);
},
{
pos = (2,0);
ref = _smart.verticalBar;
},
{
closed = 1;
nodes = (
(363,1,o),
(322,46,o),
(285,57,cs),
(266,63,o),
(259,55,o),
(275,47,cs),
(329,21,o),
(372,-46,o),
(454,-46,cs),
(502,-46,o),
(571,9,o),
(571,91,cs),
(571,185,o),
(517,200,o),
(147,446,c),
(129,417,l),
(165,396,o),
(209,367,o),
(347,268,cs),
(504,156,o),
(477,83,o),
(431,50,cs)
);
}
);
width = 601;
},
{
associatedMasterId = m002;
backgroundImage = {
imagePath = "../reference/scan/P-Y.jpg";
locked = 1;
pos = (-159,-870);
scale = (10.5944,10.5944);
};
layerId = "787406F1-C09A-46A9-914E-B37D3C205532";
name = ref;
shapes = (
{
alignment = -1;
pos = (2,0);
ref = _smart.verticalBar;
}
);
width = 601;
}
);
metricLeft = I;
unicode = 89;
},
{
glyphname = Z;
kernLeft = Z;
kernRight = Z;
lastChange = "2024-05-28 22:03:25 +0000";
layers = (
{
anchors = (
{
name = top;
pos = (371,511);
}
);
backgroundImage = {
imagePath = "../reference/scan/P-Z.jpg";
locked = 1;
pos = (-133,-868);
scale = (10.5944,10.5944);
};
layerId = m002;
shapes = (
{
piece = {
length = 145.00761;
rightSerif = 100;
};
pos = (-124,177);
ref = _smart.horizontalBar;
scale = (1,1.2);
},
{
piece = {
length = 85.65147;
};
pos = (49,-236);
ref = _smart.horizontalBar;
},
{
closed = 1;
nodes = (
(504,224,l),
(504,319,o),
(428,330,o),
(389,330,cs),
(264,330,o),
(30,215,o),
(30,60,cs),
(30,-33,o),
(115,-45,o),
(144,-45,cs),
(168,-45,o),
(183,-37,o),
(218,5,cs),
(354,169,o),
(492,330,o),
(629,493,cs),
(635,500,o),
(645,509,o),
(628,506,c),
(610,502,o),
(592,502,o),
(577,502,cs),
(556,502,o),
(565,485,o),
(565,485,c),
(194,48,ls),
(177,27,o),
(137,19,o),
(137,91,cs),
(137,199,o),
(226,280,o),
(328,280,cs),
(369,280,o),
(417,267,o),
(417,201,c),
(417,-9,l),
(504,-9,l)
);
}
);
width = 657;
}
);
unicode = 90;
},
{
glyphname = F_A;
kernLeft = LCB;
kernRight = A;
lastChange = "2024-05-22 22:54:52 +0000";
layers = (
{
anchors = (
{
name = top;
pos = (645,485);
}
);
layerId = m002;
shapes = (
{
closed = 1;
nodes = (
(97,61,l),
(184,61,l),
(184,120,ls),
(184,185,o),
(246,214,o),
(295,214,cs),
(437,214,o),
(471,-27,o),
(650,-27,cs),
(752,-27,o),
(877,52,o),
(877,142,cs),
(877,227,o),
(801,307,o),
(725,307,cs),
(681,307,o),
(550,214,o),
(501,199,c),
(501,187,l),
(465,219,o),
(424,259,o),
(325,259,cs),
(194,259,o),
(97,188,o),
(97,119,cs)
);
},
{
pos = (2,0);
ref = _smart.verticalBar;
},
{
closed = 1;
nodes = (
(504,163,l),
(553,178,o),
(643,244,o),
(676,244,cs),
(714,244,o),
(751,196,o),
(768,154,cs),
(799,71,o),
(778,31,o),
(720,31,cs),
(630,31,o),
(550,130,o),
(508,178,c)
);
},
{
alignment = -1;
pos = (333,0);
ref = _smart.verticalBar;
},
{
alignment = -1;
piece = {
leftSerif = 100;
length = 109.59293;
};
pos = (211,141);
ref = _smart.horizontalBar;
}
);
width = 907;
},
{
associatedMasterId = m002;
layerId = "1A9ED1B1-D546-41B6-8115-F8B624082B95";
name = Overlay;
shapes = (
{
ref = F;
},
{
pos = (554,0);
ref = A;
}
);
width = 1156;
},
{
associatedMasterId = m002;
layerId = "7EA13C62-806F-4A46-A7B7-AB2BFAD59B8E";
name = Overlay;
shapes = (
{
ref = F;
},
{
pos = (554,0);
ref = A;
}
);
width = 1156;
}
);
metricLeft = F;
metricRight = A;
},
{
glyphname = F_a;
kernLeft = LCB;
kernRight = a;
lastChange = "2024-05-22 22:55:01 +0000";
layers = (
{
layerId = m002;
shapes = (
{
closed = 1;
nodes = (
(97,61,l),
(175,61,l),
(175,96,ls),
(175,161,o),
(230,207,o),
(275,207,cs),
(371,207,o),
(477,-8,o),
(622,-8,cs),
(668,-8,o),
(763,23,o),
(763,110,cs),
(763,177,o),
(708,220,o),
(666,220,cs),
(608,220,o),
(505,140,o),
(468,129,c),
(477,145,o),
(466,145,o),
(456,155,cs),
(431,186,o),
(372,259,o),
(287,259,cs),
(184,259,o),
(97,154,o),
(97,85,cs)
);
},
{
pos = (2,0);
ref = _smart.verticalBar;
},
{
closed = 1;
nodes = (
(496,113,l),
(532,125,o),
(576,170,o),
(609,170,cs),
(636,170,o),
(686,140,o),
(686,87,cs),
(686,59,o),
(672,30,o),
(638,30,cs),
(588,30,o),
(526,90,o),
(496,135,c)
);
},
{
piece = {
height_l = 34.76127;
};
pos = (320,-133);
ref = _smart.verticalBar.noEndSerif;
},
{
closed = 1;
nodes = (
(415,73,o),
(415,39,o),
(415,12,cs),
(415,-52,o),
(350,-164,o),
(332,-180,cs),
(326,-186,o),
(331,-189,o),
(337,-186,cs),
(357,-176,o),
(502,-46,o),
(502,25,cs),
(502,74,l),
(415,93,l)
);
},
{
piece = {
leftSerif = 100;
length = 80.4738;
};
pos = (194,29);
ref = _smart.horizontalBar;
}
);
width = 793;
},
{
associatedMasterId = m002;
layerId = "B697CB34-8287-48CA-8C04-DE90C1F18EE6";
name = overlay;
shapes = (
{
ref = F;
},
{
pos = (544,0);
ref = a;
}
);
width = 1046;
},
{
associatedMasterId = m002;
layerId = "ED167CE2-D253-42F0-934C-721FBD935D87";
name = overlay;
shapes = (
{
ref = F;
},
{
pos = (544,0);
ref = a;
}
);
width = 1046;
}
);
metricLeft = F;
metricRight = a;
},
{
glyphname = a;
kernLeft = a;
kernRight = a;
lastChange = "2024-05-28 21:00:03 +0000";
layers = (
{
anchors = (
{
name = ogonek;
pos = (346,0);
},
{
name = top;
pos = (273,359);
}
);
backgroundImage = {
imagePath = "../reference/scan/P-small-a.jpg";
pos = (-209,-757);
scale = (10.5944,10.5944);
};
layerId = m002;
shapes = (
{
closed = 1;
nodes = (
(162,30,o),
(173,36,o),
(182,36,cs),
(202,36,o),
(245,-8,o),
(308,-8,cs),
(371,-8,o),
(472,23,o),
(472,104,cs),
(472,177,o),
(414,220,o),
(347,220,cs),
(308,220,o),
(198,140,o),
(159,129,c),
(159,19,l)
);
},
{
closed = 1;
nodes = (
(189,113,l),
(227,125,o),
(274,170,o),
(305,170,cs),
(337,170,o),
(384,133,o),
(384,78,cs),
(384,33,o),
(375,30,o),
(335,30,cs),
(286,30,o),
(221,90,o),
(189,135,c)
);
},
{
piece = {
height_l = 31.96061;
};
pos = (11,-140);
ref = _smart.verticalBar.noEndSerif;
},
{
closed = 1;
nodes = (
(106,73,o),
(106,39,o),
(106,12,cs),
(106,-52,o),
(41,-164,o),
(23,-180,cs),
(17,-186,o),
(22,-189,o),
(28,-186,cs),
(48,-176,o),
(193,-46,o),
(193,25,cs),
(193,74,l),
(106,93,l)
);
},
{
piece = {
leftSerif = 100;
length = 86.37713;
};
pos = (-115,29);
ref = _smart.horizontalBar;
}
);
width = 502;
},
{
anchors = (
{
name = ogonek;
pos = (346,0);
},
{
name = top;
pos = (273,359);
}
);
associatedMasterId = m002;
backgroundImage = {
imagePath = "../reference/scan/P-small-a.jpg";
pos = (-209,-757);
scale = (10.5944,10.5944);
};
layerId = "56960AA4-9C71-4C07-8AB2-7F52796FC485";
name = ref;
shapes = (
{
alignment = -1;
piece = {
height_l = 38.53864;
};
pos = (2,-140);
ref = _smart.verticalBar;
}
);
visible = 1;
width = 502;
}
);
unicode = 97;
},
{
color = 4;
glyphname = ae;
kernLeft = a;
kernRight = e;
lastChange = "2024-05-22 22:55:17 +0000";
layers = (
{
layerId = m002;
shapes = (
{
pos = (1,0);
ref = a;
scale = (0.9513,1);
},
{
closed = 1;
nodes = (
(387,203,l),
(404,261,o),
(456,319,o),
(525,319,cs),
(580,319,o),
(660,283,o),
(660,164,cs),
(660,70,o),
(607,35,o),
(527,-2,cs),
(518,-6,o),
(516,-14,o),
(527,-13,cs),
(603,-7,o),
(755,48,o),
(755,186,cs),
(755,275,o),
(692,364,o),
(569,364,cs),
(426,364,o),
(377,244,o),
(366,214,c)
);
},
{
alignment = -1;
piece = {
leftSerif = 0;
length = 109.29729;
rightSerif = 0;
};
pos = (238,-70);
ref = _smart.horizontalBar;
}
);
width = 898;
}
);
metricLeft = a;
unicode = 230;
},
{
glyphname = b;
kernLeft = o;
kernRight = b;
lastChange = "2024-05-29 22:55:27 +0000";
layers = (
{
backgroundImage = {
imagePath = "../reference/scan/P-small-b.jpg";
pos = (-213,-756);
scale = (10.5944,10.5944);
};
layerId = m002;
shapes = (
{
closed = 1;
nodes = (
(245,303,l),
(158,283,o),
(30,164,o),
(30,52,cs),
(30,-33,o),
(104,-56,o),
(174,-56,cs),
(287,-56,o),
(378,4,o),
(425,49,cs),
(435,59,o),
(431,66,o),
(420,59,cs),
(359,19,o),
(307,-11,o),
(244,-11,cs),
(144,-11,o),
(113,64,o),
(113,110,cs),
(113,181,o),
(187,269,o),
(248,291,c)
);
},
{
piece = {
leftSerif = 100;
length = 113.77445;
};
pos = (-185,-102);
ref = _smart.horizontalBar;
},
{
alignment = -1;
piece = {
height_l = 46.96943;
};
pos = (122,40);
ref = _smart.verticalBar.noEndSerif;
}
);
width = 502;
},
{
associatedMasterId = m002;
backgroundImage = {
imagePath = "../reference/scan/P-small-b.jpg";
pos = (-213,-756);
scale = (10.5944,10.5944);
};
layerId = "1F1904E5-CD57-4ACC-AB11-9E4C1C5160CE";
name = ref;
shapes = (
{
alignment = -1;
pos = (122,0);
ref = _smart.verticalBar;
}
);
width = 502;
},
{
associatedMasterId = m002;
backgroundImage = {
imagePath = "../reference/scan/P-small-b.jpg";
pos = (-213,-756);
scale = (10.5944,10.5944);
};
layerId = "FD74C019-BBE0-43EC-A66F-C559CA10A41C";
name = "May 28, 24 at 18:10";
shapes = (
{
closed = 1;
nodes = (
(245,333,l),
(158,313,o),
(30,194,o),
(30,82,cs),
(30,-3,o),
(104,-26,o),
(174,-26,cs),
(287,-26,o),
(378,34,o),
(425,79,cs),
(435,89,o),
(431,96,o),
(420,89,cs),
(359,49,o),
(307,19,o),
(244,19,cs),
(144,19,o),
(113,94,o),
(113,140,cs),
(113,211,o),
(187,299,o),
(248,321,c)
);
},
{
piece = {
height_l = 39.96975;
};
pos = (122,30);
ref = _smart.verticalBar.noEndSerif;
},
{
piece = {
leftSerif = 100;
length = 113.77445;
};
pos = (-185,-72);
ref = _smart.horizontalBar;
}
);
width = 502;
},
{
associatedMasterId = m002;
backgroundImage = {
imagePath = "../reference/scan/P-small-b.jpg";
pos = (-213,-756);
scale = (10.5944,10.5944);
};
layerId = "55D31007-86E5-4572-AFCD-6A8BF8789E7A";
name = "May 29, 24 at 18:55";
shapes = (
{
closed = 1;
nodes = (
(245,303,l),
(158,283,o),
(30,164,o),
(30,52,cs),
(30,-33,o),
(104,-56,o),
(174,-56,cs),
(287,-56,o),
(378,4,o),
(425,49,cs),
(435,59,o),
(431,66,o),
(420,59,cs),
(359,19,o),
(307,-11,o),
(244,-11,cs),
(144,-11,o),
(113,64,o),
(113,110,cs),
(113,181,o),
(187,269,o),
(248,291,c)
);
},
{
piece = {
height_l = 39.96975;
};
pos = (122,0);
ref = _smart.verticalBar.noEndSerif;
},
{
piece = {
leftSerif = 100;
length = 113.77445;
};
pos = (-185,-102);
ref = _smart.horizontalBar;
}
);
width = 502;
}
);
unicode = 98;
},
{
glyphname = c;
kernLeft = o;
kernRight = RxB;
lastChange = "2024-05-29 00:22:23 +0000";
layers = (
{
anchors = (
{
name = bottom;
pos = (416,0);
},
{
name = top;
pos = (237,337);
}
);
backgroundImage = {
imagePath = "../reference/scan/P-small-c.jpg";
locked = 1;
pos = (-217,-769);
scale = (10.5944,10.5944);
};
layerId = m002;
shapes = (
{
closed = 1;
nodes = (
(122,181,o),
(106,194,o),
(100,194,cs),
(88,194,o),
(30,100,o),
(30,29,cs),
(30,-157,o),
(257,-207,o),
(327,-220,cs),
(343,-223,o),
(346,-216,o),
(329,-206,cs),
(291,-183,o),
(127,-104,o),
(127,58,cs),
(127,103,o),
(138,149,o),
(153,181,c)
);
},
{
piece = {
leftSerif = 100;
length = 92.62083;
rightSerif = 100;
};
pos = (-181,-90);
ref = _smart.horizontalBar;
},
{
piece = {
height_l = 43.75196;
};
pos = (234,-141);
ref = _smart.verticalBar;
}
);
width = 441;
},
{
anchors = (
{
name = bottom;
pos = (416,33);
},
{
name = height_l;
pos = (329,-14.833);
},
{
name = length;
pos = (354.002,142.221);
},
{
name = noStartSerif;
pos = (255,297);
},
{
name = top;
pos = (240,298);
}
);
associatedMasterId = m002;
backgroundImage = {
imagePath = "../reference/scan/P-small-c.jpg";
locked = 1;
pos = (-217,-769);
scale = (10.5944,10.5944);
};
layerId = "2DA34FAB-C0F6-4396-8A15-AE731DDA26B8";
name = ref;
shapes = (
{
alignment = -1;
piece = {
height_l = 38.53864;
};
pos = (234,-140);
ref = _smart.verticalBar;
}
);
width = 441;
}
);
metricRight = i;
unicode = 99;
},
{
color = 4;
glyphname = ccedilla;
kernLeft = o;
kernRight = RxB;
lastChange = "2024-05-29 00:12:41 +0000";
layers = (
{
layerId = m002;
shapes = (
{
ref = c;
},
{
closed = 1;
nodes = (
(341,-33,o),
(295,-61,o),
(295,-65,cs),
(295,-74,o),
(361,-84,o),
(361,-119,cs),
(361,-145,o),
(337,-160,o),
(320,-166,cs),
(312,-169,o),
(313,-171,o),
(323,-171,cs),
(356,-171,o),
(416,-143,o),
(416,-113,cs),
(416,-54,o),
(336,-63,o),
(336,-52,cs),
(336,-46,o),
(389,-15,o),
(416,0,c),
(387,12,l)
);
}
);
width = 441;
}
);
metricLeft = c;
metricRight = c;
unicode = 231;
},
{
glyphname = d;
kernLeft = o;
kernRight = d;
lastChange = "2024-05-29 22:55:03 +0000";
layers = (
{
anchors = (
{
name = top;
pos = (291,516);
}
);
backgroundImage = {
imagePath = "../reference/scan/P-small-d.jpg";
locked = 1;
pos = (-169,-762);
scale = (10.5944,10.5944);
};
layerId = m002;
shapes = (
{
closed = 1;
nodes = (
(30,-49,o),
(326,-22,o),
(421,-22,cs),
(430,-22,o),
(440,-8,o),
(453,4,cs),
(470,21,o),
(488,38,o),
(470,38,cs),
(206,38,o),
(136,31,o),
(136,112,cs),
(136,182,o),
(223,282,o),
(314,282,cs),
(361,282,o),
(404,255,o),
(433,228,cs),
(435,226,o),
(437,230,o),
(440,234,cs),
(452,249,o),
(478,275,o),
(491,286,cs),
(494,289,o),
(495,289,o),
(493,290,cs),
(441,315,o),
(372,334,o),
(287,306,cs),
(198,276,o),
(30,175,o),
(30,79,cs)
);
},
{
alignment = -1;
piece = {
height_l = 69.15504;
};
pos = (156,40);
ref = _smart.verticalBar.noEndSerif;
}
);
width = 524;
},
{
associatedMasterId = m002;
backgroundImage = {
imagePath = "../reference/scan/P-small-d.jpg";
locked = 1;
pos = (-169,-762);
scale = (10.5944,10.5944);
};
layerId = "76A2EA9A-E27D-42C1-A54C-E3664BEC214B";
name = ref;
shapes = (
{
alignment = -1;
pos = (156,0);
ref = _smart.verticalBar;
}
);
width = 524;
},
{
anchors = (
{
name = top;
pos = (291,505);
}
);
associatedMasterId = m002;
backgroundImage = {
imagePath = "../reference/scan/P-small-d.jpg";
locked = 1;
pos = (-169,-762);
scale = (10.5944,10.5944);
};
layerId = "D598FF2C-CD5B-4BDD-B146-F15F70B0E8FC";
name = "May 28, 24 at 18:10";
shapes = (
{
closed = 1;
nodes = (
(30,-27,o),
(337,-35,o),
(421,-19,cs),
(430,-17,o),
(440,-5,o),
(453,7,cs),
(470,24,o),
(488,42,o),
(478,41,cs),
(232,24,o),
(136,60,o),
(136,130,cs),
(136,211,o),
(223,311,o),
(295,311,cs),
(361,311,o),
(404,284,o),
(433,257,cs),
(435,255,o),
(437,259,o),
(440,263,cs),
(452,278,o),
(478,304,o),
(491,315,cs),
(494,318,o),
(495,318,o),
(493,319,cs),
(441,344,o),
(372,363,o),
(267,328,cs),
(198,305,o),
(30,204,o),
(30,106,cs)
);
},
{
piece = {
height_l = 65.94854;
};
pos = (156,29);
ref = _smart.verticalBar.noEndSerif;
}
);
width = 524;
},
{
anchors = (
{
name = top;
pos = (291,476);
}
);
associatedMasterId = m002;
backgroundImage = {
imagePath = "../reference/scan/P-small-d.jpg";
locked = 1;
pos = (-169,-762);
scale = (10.5944,10.5944);
};
layerId = "5488C30B-5413-4DC2-B1F4-CCC6B1A9B018";
name = "May 29, 24 at 18:54";
shapes = (
{
closed = 1;
nodes = (
(30,-49,o),
(326,-22,o),
(421,-22,cs),
(430,-22,o),
(440,-8,o),
(453,4,cs),
(470,21,o),
(488,38,o),
(470,38,cs),
(206,38,o),
(136,31,o),
(136,112,cs),
(136,182,o),
(223,282,o),
(314,282,cs),
(361,282,o),
(404,255,o),
(433,228,cs),
(435,226,o),
(437,230,o),
(440,234,cs),
(452,249,o),
(478,275,o),
(491,286,cs),
(494,289,o),
(495,289,o),
(493,290,cs),
(441,315,o),
(372,334,o),
(287,306,cs),
(198,276,o),
(30,175,o),
(30,79,cs)
);
},
{
piece = {
height_l = 63.17172;
};
pos = (156,0);
ref = _smart.verticalBar.noEndSerif;
}
);
visible = 1;
width = 524;
}
);
unicode = 100;
},
{
color = 4;
glyphname = eth;
kernLeft = o;
kernRight = d;
lastChange = "2024-05-22 23:00:18 +0000";
layers = (
{
layerId = m002;
shapes = (
{
closed = 1;
nodes = (
(30,-27,o),
(337,-35,o),
(421,-19,cs),
(430,-17,o),
(440,-5,o),
(453,7,cs),
(470,24,o),
(488,42,o),
(478,41,cs),
(232,24,o),
(136,60,o),
(136,130,cs),
(136,211,o),
(223,311,o),
(295,311,cs),
(361,311,o),
(404,284,o),
(433,257,cs),
(435,255,o),
(437,259,o),
(440,263,cs),
(452,278,o),
(478,304,o),
(491,315,cs),
(494,318,o),
(495,318,o),
(493,319,cs),
(441,344,o),
(372,363,o),
(267,328,cs),
(198,305,o),
(30,204,o),
(30,106,cs)
);
},
{
piece = {
height_l = 77.81016;
};
pos = (156,93);
ref = _smart.verticalBar.noEndSerif;
},
{
alignment = -1;
piece = {
length = 69.77808;
};
pos = (-94,178);
ref = _smart.horizontalBar;
}
);
width = 524;
}
);
metricLeft = d;
metricRight = d;
unicode = 240;
},
{
glyphname = e;
kernLeft = e;
kernRight = e;
lastChange = "2024-05-28 23:01:40 +0000";
layers = (
{
anchors = (
{
name = ogonek;
pos = (360,60);
},
{
name = top;
pos = (233,364);
}
);
backgroundImage = {
imagePath = "../reference/scan/P-small-e.jpg";
locked = 1;
pos = (-148,-761);
scale = (10.5944,10.5944);
};
layerId = m002;
shapes = (
{
closed = 1;
nodes = (
(27,202,o),
(34,206,o),
(39,210,cs),
(55,223,o),
(72,232,o),
(101,242,cs),
(104,243,o),
(106,246,o),
(106,254,cs),
(106,287,o),
(152,332,o),
(214,332,cs),
(284,332,o),
(345,273,o),
(345,165,cs),
(345,60,o),
(288,25,o),
(203,-12,cs),
(193,-16,o),
(191,-24,o),
(203,-23,cs),
(284,-17,o),
(447,38,o),
(447,176,cs),
(447,265,o),
(379,364,o),
(244,364,cs),
(95,364,o),
(42,244,o),
(31,214,cs)
);
},
{
piece = {
length = 96.79281;
rightSerif = 0;
};
pos = (-65,-76);
ref = _smart.horizontalBar;
}
);
width = 566;
}
);
unicode = 101;
},
{
glyphname = f;
kernLeft = LxDB;
kernRight = f;
lastChange = "2024-05-28 22:51:17 +0000";
layers = (
{
backgroundImage = {
imagePath = "../reference/scan/P-small-f.jpg";
locked = 1;
pos = (-163,-766);
scale = (10.5944,10.5944);
};
layerId = m002;
shapes = (
{
closed = 1;
nodes = (
(97,-4,l),
(184,-4,l),
(184,80,ls),
(184,137,o),
(217,168,o),
(276,168,cs),
(340,168,o),
(385,79,o),
(405,39,cs),
(408,34,o),
(411,35,o),
(414,39,cs),
(428,58,o),
(462,84,o),
(479,98,cs),
(482,101,o),
(491,106,o),
(487,111,cs),
(466,137,o),
(398,200,o),
(306,200,cs),
(184,200,o),
(97,112,o),
(97,54,cs)
);
},
{
alignment = -1;
piece = {
height_l = 70.56343;
};
pos = (2,-140);
ref = _smart.verticalBar;
}
);
width = 508;
},
{
associatedMasterId = m002;
backgroundImage = {
imagePath = "../reference/scan/P-small-f.jpg";
locked = 1;
pos = (-163,-766);
scale = (10.5944,10.5944);
};
layerId = "B4FBB929-F1FE-48DD-B1AA-72ECFC7B47B7";
name = ref;
shapes = (
{
alignment = -1;
piece = {
height_l = 44.00267;
};
pos = (2,-140);
ref = _smart.verticalBar;
}
);
width = 508;
}
);
unicode = 102;
},
{
glyphname = g;
kernLeft = o;
kernRight = g;
lastChange = "2024-05-28 21:48:18 +0000";
layers = (
{
anchors = (
{
name = ogonek;
pos = (405,1);
},
{
name = top;
pos = (365,314);
}
);
backgroundImage = {
imagePath = "../reference/scan/P-small-g.jpg";
locked = 1;
pos = (-203,-777);
scale = (10.5944,10.5944);
};
layerId = m002;
shapes = (
{
closed = 1;
nodes = (
(245,286,o),
(215,291,o),
(209,291,cs),
(187,291,o),
(30,166,o),
(30,34,cs),
(30,-152,o),
(257,-202,o),
(327,-215,cs),
(343,-218,o),
(346,-211,o),
(329,-201,cs),
(291,-178,o),
(127,-99,o),
(127,63,cs),
(127,149,o),
(177,236,o),
(263,286,c)
);
},
{
alignment = -1;
piece = {
leftSerif = 100;
length = 92.62083;
rightSerif = 0;
};
pos = (-54,15);
ref = _smart.horizontalBar;
},
{
piece = {
length = 24.85292;
};
pos = (323,-54);
ref = _smart.verticalBar_noStart;
}
);
width = 566;
},
{
anchors = (
{
name = flatEnd;
pos = (416,28.5);
},
{
name = length;
pos = (481.002,227.221);
},
{
name = ogonek;
pos = (405,34);
},
{
name = top;
pos = (365,314);
}
);
associatedMasterId = m002;
backgroundImage = {
imagePath = "../reference/scan/P-small-g.jpg";
locked = 1;
pos = (-203,-777);
scale = (10.5944,10.5944);
};
layerId = "68DE8409-98FC-4B13-82C5-1FBED9A0F8D0";
name = ref;
shapes = (
{
alignment = -1;
piece = {
height_l = 38.53864;
};
pos = (234,-140);
ref = _smart.verticalBar;
}
);
visible = 1;
width = 566;
}
);
unicode = 103;
},
{
glyphname = h;
kernLeft = LCB;
kernRight = h;
lastChange = "2024-05-29 22:54:29 +0000";
layers = (
{
backgroundImage = {
imagePath = "../reference/scan/P-small-h.jpg";
locked = 1;
pos = (-217,-804);
scale = (10.5944,10.5944);
};
layerId = m002;
shapes = (
{
alignment = -1;
piece = {
height_l = 73.61425;
};
pos = (2,40);
ref = _smart.verticalBar;
},
{
closed = 1;
nodes = (
(224,168,o),
(421,240,o),
(421,323,cs),
(421,341,o),
(419,344,o),
(409,342,cs),
(377,333,o),
(341,330,o),
(316,330,cs),
(305,330,o),
(306,324,o),
(312,321,cs),
(321,315,o),
(336,305,o),
(336,283,cs),
(336,249,o),
(210,188,o),
(173,184,c),
(173,143,l)
);
},
{
closed = 1;
nodes = (
(434,184,o),
(400,176,o),
(351,176,c),
(367,158,o),
(372,132,o),
(372,114,cs),
(372,54,o),
(311,-8,o),
(267,-36,cs),
(260,-41,o),
(262,-45,o),
(272,-42,cs),
(349,-18,o),
(469,51,o),
(469,133,cs),
(469,159,o),
(460,184,o),
(445,184,cs)
);
},
{
piece = {
leftSerif = 100;
length = 80.56819;
rightSerif = 100;
};
pos = (-122,-95);
ref = _smart.horizontalBar;
}
);
width = 499;
},
{
associatedMasterId = m002;
backgroundImage = {
imagePath = "../reference/scan/P-small-h.jpg";
locked = 1;
pos = (-217,-804);
scale = (10.5944,10.5944);
};
layerId = "2089F336-1C54-4CB1-8560-A3B19466A6A4";
name = ref;
shapes = (
{
alignment = -1;
pos = (2,0);
ref = _smart.verticalBar;
}
);
width = 499;
},
{
associatedMasterId = m002;
backgroundImage = {
imagePath = "../reference/scan/P-small-h.jpg";
locked = 1;
pos = (-217,-804);
scale = (10.5944,10.5944);
};
layerId = "B4BC756B-4DC8-458A-A897-4F65ED1567A2";
name = "May 29, 24 at 18:54";
shapes = (
{
alignment = -1;
pos = (2,0);
ref = _smart.verticalBar;
},
{
closed = 1;
nodes = (
(224,168,o),
(421,240,o),
(421,323,cs),
(421,341,o),
(419,344,o),
(409,342,cs),
(377,333,o),
(341,330,o),
(316,330,cs),
(305,330,o),
(306,324,o),
(312,321,cs),
(321,315,o),
(336,305,o),
(336,283,cs),
(336,249,o),
(210,188,o),
(173,184,c),
(173,143,l)
);
},
{
closed = 1;
nodes = (
(351,176,c),
(367,158,o),
(372,132,o),
(372,114,cs),
(372,54,o),
(311,-8,o),
(267,-36,cs),
(260,-41,o),
(262,-45,o),
(272,-42,cs),
(349,-18,o),
(469,51,o),
(469,133,cs),
(469,159,o),
(460,184,o),
(445,184,cs),
(434,184,o),
(400,176,o)
);
},
{
piece = {
leftSerif = 100;
length = 80.56819;
rightSerif = 100;
};
pos = (-122,-95);
ref = _smart.horizontalBar;
}
);
width = 499;
}
);
metricLeft = I;
unicode = 104;
},
{
glyphname = j;
kernLeft = "LCB-xb";
kernRight = j;
lastChange = "2024-05-29 22:53:59 +0000";
layers = (
{
anchors = (
{
name = top;
pos = (136,480);
}
);
backgroundImage = {
imagePath = "../reference/scan/P-small-j.jpg";
locked = 1;
pos = (-155,-809);
scale = (10.5944,10.5944);
};
layerId = m002;
shapes = (
{
alignment = -1;
piece = {
leftSerif = 0;
length = 85.46994;
rightSerif = 0;
};
pos = (-198,-86);
ref = _smart.horizontalBar;
},
{
closed = 1;
nodes = (
(148,133,ls),
(148,13,o),
(213,-29,o),
(345,-29,cs),
(451,-29,o),
(514,65,o),
(529,93,cs),
(533,100,o),
(528,107,o),
(523,102,cs),
(485,66,o),
(434,28,o),
(352,28,cs),
(239,28,o),
(235,100,o),
(235,188,cs),
(235,264,l),
(148,207,l)
);
},
{
alignment = -1;
piece = {
height_l = 43.89419;
};
pos = (53,40);
ref = _smart.verticalBar.noEndSerif;
}
);
width = 550;
},
{
associatedMasterId = m002;
backgroundImage = {
imagePath = "../reference/scan/P-small-j.jpg";
locked = 1;
pos = (-155,-809);
scale = (10.5944,10.5944);
};
layerId = "CBC28D5A-B30C-4E5B-9A90-6539B529C2F7";
name = ref;
shapes = (
{
alignment = -1;
pos = (53,0);
ref = _smart.verticalBar;
}
);
width = 550;
},
{
anchors = (
{
name = top;
pos = (136,480);
}
);
associatedMasterId = m002;
backgroundImage = {
imagePath = "../reference/scan/P-small-j.jpg";
locked = 1;
pos = (-155,-809);
scale = (10.5944,10.5944);
};
layerId = "73CC6C02-587F-405C-938D-6ECD068020D6";
name = "May 29, 24 at 18:53";
shapes = (
{
alignment = -1;
piece = {
leftSerif = 0;
length = 85.46994;
rightSerif = 0;
};
pos = (-198,-86);
ref = _smart.horizontalBar;
},
{
closed = 1;
nodes = (
(148,133,ls),
(148,13,o),
(213,-29,o),
(345,-29,cs),
(451,-29,o),
(514,65,o),
(529,93,cs),
(533,100,o),
(528,107,o),
(523,102,cs),
(485,66,o),
(434,28,o),
(352,28,cs),
(239,28,o),
(235,100,o),
(235,188,cs),
(235,264,l),
(148,207,l)
);
},
{
alignment = -1;
piece = {
height_l = 36.52798;
};
pos = (53,0);
ref = _smart.verticalBar.noEndSerif;
}
);
width = 550;
}
);
unicode = 106;
},
{
glyphname = k;
kernLeft = k;
kernRight = k;
lastChange = "2024-05-28 21:24:43 +0000";
layers = (
{
anchors = (
{
name = bottom;
pos = (195,0);
}
);
backgroundImage = {
imagePath = "../reference/scan/P-small-k.jpg";
locked = 1;
pos = (-185,-781);
scale = (10.5944,10.5944);
};
layerId = m002;
shapes = (
{
closed = 1;
nodes = (
(97,192,o),
(97,106,o),
(95,100,cs),
(94,95,o),
(97,93,o),
(104,103,cs),
(163,183,o),
(239,304,o),
(303,304,cs),
(343,304,o),
(382,256,o),
(382,213,cs),
(382,167,o),
(352,146,o),
(321,146,cs),
(310,146,o),
(313,178,o),
(287,163,cs),
(231,130,o),
(214,132,o),
(214,125,cs),
(214,119,o),
(234,128,o),
(234,54,cs),
(234,-41,o),
(299,-117,o),
(394,-178,cs),
(412,-189,o),
(413,-183,o),
(404,-169,cs),
(385,-140,o),
(321,-53,o),
(321,54,cs),
(321,99,l),
(383,115,o),
(475,163,o),
(475,249,cs),
(475,319,o),
(436,362,o),
(350,362,cs),
(235,362,o),
(115,219,o),
(97,207,c)
);
},
{
piece = {
height_l = 7.41351;
};
pos = (2,-140);
ref = _smart.verticalBar.noEndSerif;
}
);
width = 495;
},
{
anchors = (
{
name = bottom;
pos = (195,0);
},
{
name = height_l;
pos = (97,173);
},
{
name = noStartSerif;
pos = (23,301);
}
);
associatedMasterId = m002;
backgroundImage = {
imagePath = "../reference/scan/P-small-k.jpg";
locked = 1;
pos = (-185,-781);
scale = (10.5944,10.5944);
};
layerId = "79AC5AA8-E473-4C73-A2CC-8328A8CE61FB";
name = ref;
shapes = (
{
alignment = -1;
piece = {
height_l = 38.53864;
};
pos = (2,-140);
ref = _smart.verticalBar;
}
);
visible = 1;
width = 495;
}
);
unicode = 107;
},
{
glyphname = m;
kernLeft = m;
kernRight = m;
lastChange = "2024-05-29 22:53:37 +0000";
layers = (
{
backgroundImage = {
imagePath = "../reference/scan/P-small-m.jpg";
locked = 1;
pos = (-78,-763);
scale = (10.5944,10.5944);
};
layerId = m002;
name = Proto;
shapes = (
{
closed = 1;
nodes = (
(368,180,l),
(379,187,o),
(397,211,o),
(418,211,cs),
(447,211,o),
(487,166,o),
(530,98,cs),
(586,11,o),
(593,-29,o),
(643,-29,cs),
(703,-29,o),
(745,27,o),
(754,51,cs),
(756,57,o),
(753,63,o),
(748,57,cs),
(733,37,o),
(718,31,o),
(707,31,cs),
(667,31,o),
(616,119,o),
(558,198,cs),
(537,227,o),
(506,267,o),
(464,267,cs),
(414,267,o),
(373,211,o),
(362,194,c)
);
},
{
closed = 1;
nodes = (
(174,175,l),
(202,203,o),
(178,231,o),
(222,231,cs),
(247,231,o),
(280,188,o),
(319,123,cs),
(348,74,o),
(414,-29,o),
(471,-29,cs),
(520,-29,o),
(575,50,o),
(575,81,c),
(559,51,o),
(531,31,o),
(512,31,cs),
(472,31,o),
(417,123,o),
(399,151,cs),
(338,249,o),
(293,268,o),
(264,267,cs),
(223,266,o),
(167,226,o),
(151,197,c)
);
},
{
piece = {
length = 80.31541;
};
pos = (-208,-236);
ref = _smart.horizontalBar;
},
{
alignment = -1;
piece = {
height_l = 69.15504;
};
pos = (45,40);
ref = _smart.verticalBar.noEndSerif;
}
);
width = 775;
},
{
associatedMasterId = m002;
backgroundImage = {
imagePath = "../reference/scan/P-small-m.jpg";
locked = 1;
pos = (-78,-763);
scale = (10.5944,10.5944);
};
layerId = "0875FEE0-F3B0-4E71-83FC-45F01281AD64";
name = ref;
shapes = (
{
alignment = -1;
pos = (45,0);
ref = _smart.verticalBar;
}
);
width = 775;
},
{
associatedMasterId = m002;
backgroundImage = {
imagePath = "../reference/scan/P-small-m.jpg";
locked = 1;
pos = (-78,-763);
scale = (10.5944,10.5944);
};
layerId = "88DAF005-BBF7-4412-A3EF-39E70A8E9D2E";
name = "May 28, 24 at 18:13";
shapes = (
{
closed = 1;
nodes = (
(368,194,l),
(379,202,o),
(397,229,o),
(418,229,cs),
(447,229,o),
(487,178,o),
(530,106,cs),
(586,11,o),
(593,-29,o),
(647,-29,cs),
(703,-29,o),
(745,27,o),
(754,51,cs),
(756,57,o),
(753,63,o),
(748,57,cs),
(733,37,o),
(718,31,o),
(708,31,cs),
(667,31,o),
(616,125,o),
(575,188,cs),
(537,247,o),
(506,293,o),
(463,293,cs),
(414,293,o),
(373,229,o),
(362,210,c)
);
},
{
closed = 1;
nodes = (
(174,188,l),
(202,220,o),
(192,223,o),
(211,223,cs),
(261,223,o),
(280,203,o),
(311,144,cs),
(348,74,o),
(414,-29,o),
(471,-29,cs),
(520,-29,o),
(575,50,o),
(575,81,c),
(559,51,o),
(531,31,o),
(511,31,cs),
(472,31,o),
(417,129,o),
(381,194,cs),
(338,272,o),
(293,294,o),
(252,293,cs),
(223,292,o),
(167,246,o),
(151,213,c)
);
},
{
piece = {
height_l = 65.44185;
};
pos = (45,23);
ref = _smart.verticalBar.noEndSerif;
},
{
piece = {
length = 80.31541;
};
pos = (-208,-236);
ref = _smart.horizontalBar;
}
);
width = 775;
},
{
associatedMasterId = m002;
backgroundImage = {
imagePath = "../reference/scan/P-small-m.jpg";
locked = 1;
pos = (-78,-763);
scale = (10.5944,10.5944);
};
layerId = "866E8662-2D38-432E-B359-A792E2870817";
name = "May 29, 24 at 18:53";
shapes = (
{
closed = 1;
nodes = (
(368,180,l),
(379,187,o),
(397,211,o),
(418,211,cs),
(447,211,o),
(487,166,o),
(530,98,cs),
(586,11,o),
(593,-29,o),
(643,-29,cs),
(703,-29,o),
(745,27,o),
(754,51,cs),
(756,57,o),
(753,63,o),
(748,57,cs),
(733,37,o),
(718,31,o),
(707,31,cs),
(667,31,o),
(616,119,o),
(558,198,cs),
(537,227,o),
(506,267,o),
(464,267,cs),
(414,267,o),
(373,211,o),
(362,194,c)
);
},
{
closed = 1;
nodes = (
(174,175,l),
(202,203,o),
(178,231,o),
(222,231,cs),
(247,231,o),
(280,188,o),
(319,123,cs),
(348,74,o),
(414,-29,o),
(471,-29,cs),
(520,-29,o),
(575,50,o),
(575,81,c),
(559,51,o),
(531,31,o),
(512,31,cs),
(472,31,o),
(417,123,o),
(399,151,cs),
(338,249,o),
(293,268,o),
(264,267,cs),
(223,266,o),
(167,226,o),
(151,197,c)
);
},
{
piece = {
height_l = 61.9273;
};
pos = (45,0);
ref = _smart.verticalBar.noEndSerif;
},
{
piece = {
length = 80.31541;
};
pos = (-208,-236);
ref = _smart.horizontalBar;
}
);
visible = 1;
width = 775;
}
);
unicode = 109;
},
{
glyphname = n;
kernLeft = "LxB-x";
kernRight = n;
lastChange = "2024-05-28 21:50:04 +0000";
layers = (
{
anchors = (
{
name = bottom;
pos = (337,-10);
},
{
name = top;
pos = (340,350);
}
);
backgroundImage = {
imagePath = "../reference/scan/P-small-n.jpg";
locked = 1;
pos = (-135,-772);
scale = (10.5944,10.5944);
};
layerId = m002;
shapes = (
{
closed = 1;
nodes = (
(363,285,ls),
(348,271,o),
(352,268,o),
(370,272,cs),
(408,283,o),
(479,209,o),
(479,137,cs),
(479,73,o),
(422,54,o),
(371,54,cs),
(295,54,o),
(261,97,o),
(261,168,c),
(226,152,l),
(261,57,l),
(261,100,o),
(275,-26,o),
(405,-26,cs),
(485,-26,o),
(548,21,o),
(548,107,cs),
(548,228,o),
(421,274,o),
(471,274,c),
(412,330,l)
);
},
{
alignment = -1;
piece = {
height_l = 43.91103;
};
pos = (79,-140);
ref = _smart.verticalBar;
},
{
alignment = -1;
piece = {
leftSerif = 100;
length = 55.65499;
};
pos = (118,59);
ref = _smart.horizontalBar;
},
{
piece = {
length = 86.50148;
};
pos = (-198,-73);
ref = _smart.horizontalBar;
}
);
width = 638;
},
{
anchors = (
{
name = bottom;
pos = (337,-10);
},
{
name = height_l;
pos = (174,-25.097);
},
{
name = length;
pos = (320.419,129.405);
},
{
name = noStartSerif;
pos = (100,279);
},
{
name = top;
pos = (340,350);
}
);
associatedMasterId = m002;
backgroundImage = {
imagePath = "../reference/scan/P-small-n.jpg";
locked = 1;
pos = (-135,-772);
scale = (10.5944,10.5944);
};
layerId = "0FC8072F-2E81-4762-B07F-55F3B32FAB82";
name = ref;
shapes = (
{
alignment = -1;
piece = {
height_l = 38.53864;
};
pos = (79,-140);
ref = _smart.verticalBar;
}
);
visible = 1;
width = 638;
}
);
unicode = 110;
},
{
glyphname = o;
kernLeft = o;
kernRight = o;
lastChange = "2024-05-29 00:54:04 +0000";
layers = (
{
anchors = (
{
name = top;
pos = (217,366);
}
);
backgroundImage = {
imagePath = "../reference/scan/P-small-o.jpg";
pos = (-234,-778);
scale = (10.5944,10.5944);
};
layerId = m002;
shapes = (
{
closed = 1;
nodes = (
(447,175,o),
(405,289,o),
(324,334,cs),
(232,384,o),
(156,357,o),
(97,291,cs),
(41,232,o),
(-6,133,o),
(69,36,cs),
(121,-32,o),
(266,-63,o),
(361,62,cs)
);
},
{
closed = 1;
nodes = (
(279,13,o),
(178,40,o),
(134,97,cs),
(97,145,o),
(82,240,o),
(123,283,cs),
(153,314,o),
(220,309,o),
(278,265,cs),
(331,223,o),
(373,105,o),
(314,47,cs)
);
}
);
width = 428;
}
);
unicode = 111;
},
{
color = 4;
glyphname = oe;
kernLeft = o;
kernRight = e;
lastChange = "2024-05-29 00:49:41 +0000";
layers = (
{
anchors = (
{
name = ogonek;
pos = (615,60);
},
{
name = top;
pos = (494,364);
}
);
layerId = m002;
shapes = (
{
alignment = -1;
pos = (1,0);
ref = o;
scale = (0.9471,1);
},
{
closed = 1;
nodes = (
(374,246,l),
(374,279,o),
(417,332,o),
(476,332,cs),
(543,332,o),
(601,273,o),
(601,165,cs),
(601,60,o),
(547,25,o),
(466,-12,cs),
(456,-16,o),
(454,-24,o),
(466,-23,cs),
(543,-17,o),
(698,38,o),
(698,176,cs),
(698,265,o),
(633,364,o),
(505,364,cs),
(363,364,o),
(313,244,o),
(302,214,c)
);
},
{
piece = {
length = 96.79281;
rightSerif = 0;
};
pos = (211,-76);
ref = _smart.horizontalBar;
scale = (0.95,1);
}
);
width = 812;
},
{
associatedMasterId = m002;
layerId = "9A43E98B-C699-44BA-9102-0F25FE0068ED";
name = ref;
shapes = (
{
ref = o;
},
{
alignment = -1;
pos = (292,0);
ref = e;
}
);
visible = 1;
width = 858;
}
);
metricLeft = o;
metricRight = e;
unicode = 339;
},
{
glyphname = p;
kernLeft = LxB;
kernRight = p;
lastChange = "2024-05-28 21:55:15 +0000";
layers = (
{
backgroundImage = {
imagePath = "../reference/scan/P-small-p.jpg";
locked = 1;
pos = (-160,-791);
scale = (10.5944,10.5944);
};
layerId = m002;
shapes = (
{
closed = 1;
nodes = (
(97,129,l),
(97,-15,o),
(232,-30,o),
(292,-30,cs),
(362,-30,o),
(528,-9,o),
(528,114,cs),
(528,202,o),
(444,229,o),
(430,229,cs),
(409,229,o),
(258,172,o),
(258,164,cs),
(258,159,o),
(276,163,o),
(276,145,c),
(293,149,o),
(335,178,o),
(360,178,cs),
(381,178,o),
(443,159,o),
(443,92,cs),
(443,62,o),
(431,-8,o),
(324,-8,cs),
(193,-8,o),
(184,97,o),
(184,181,c)
);
},
{
piece = {
flatEnd = 96.54732;
length = -35.8694;
};
pos = (270,-144);
ref = _smart.verticalBar_noStart.noSerif;
},
{
closed = 1;
nodes = (
(276,82,l),
(276,7,ls),
(276,-96,o),
(216,-177,o),
(174,-214,cs),
(168,-220,o),
(175,-226,o),
(184,-220,cs),
(246,-177,o),
(363,-99,o),
(363,0,cs),
(363,106,l)
);
},
{
piece = {
height_l = 14.82678;
};
pos = (2,-140);
ref = _smart.verticalBar.noEndSerif;
}
);
width = 548;
},
{
anchors = (
{
name = flatEnd;
pos = (363,68.896);
},
{
name = height_l;
pos = (97,129);
},
{
name = length;
pos = (276,67.239);
},
{
name = noStartSerif;
pos = (23,295);
}
);
associatedMasterId = m002;
backgroundImage = {
imagePath = "../reference/scan/P-small-p.jpg";
locked = 1;
pos = (-160,-791);
scale = (10.5944,10.5944);
};
layerId = "D75D6451-E432-4889-98ED-B490B5269605";
name = ref;
shapes = (
{
alignment = -1;
piece = {
height_l = 38.53864;
};
pos = (2,-140);
ref = _smart.verticalBar;
}
);
visible = 1;
width = 548;
}
);
metricLeft = i;
unicode = 112;
},
{
glyphname = q;
kernLeft = q;
kernRight = RxB;
lastChange = "2024-05-28 21:50:34 +0000";
layers = (
{
backgroundImage = {
imagePath = "../reference/scan/P-small-q.jpg";
locked = 1;
pos = (-204,-804);
scale = (10.5944,10.5944);
};
layerId = m002;
shapes = (
{
closed = 1;
nodes = (
(122,201,o),
(31,117,o),
(31,13,cs),
(31,-43,o),
(58,-78,o),
(118,-78,c),
(118,-121,o),
(62,-180,o),
(34,-208,cs),
(28,-214,o),
(29,-218,o),
(38,-214,cs),
(116,-183,o),
(223,-68,o),
(223,31,cs),
(223,54,o),
(177,8,o),
(136,8,cs),
(113,8,o),
(108,45,o),
(108,62,cs),
(108,121,o),
(171,169,o),
(219,169,cs),
(248,169,o),
(321,141,o),
(321,86,cs),
(321,44,l),
(408,81,l),
(408,117,ls),
(408,148,o),
(325,201,o),
(228,201,cs)
);
},
{
alignment = -1;
piece = {
height_l = 43.95148;
};
pos = (226,-140);
ref = _smart.verticalBar;
}
);
width = 433;
},
{
anchors = (
{
name = height_l;
pos = (321,-14.93);
},
{
name = noStartSerif;
pos = (247,298);
}
);
associatedMasterId = m002;
backgroundImage = {
imagePath = "../reference/scan/P-small-q.jpg";
locked = 1;
pos = (-204,-804);
scale = (10.5944,10.5944);
};
layerId = "69B6A4F5-600F-432E-B0CC-F3D69E702077";
name = ref;
shapes = (
{
alignment = -1;
piece = {
height_l = 38.53864;
};
pos = (226,-140);
ref = _smart.verticalBar;
}
);
visible = 1;
width = 433;
}
);
metricRight = i;
unicode = 113;
},
{
glyphname = r;
kernLeft = LxB;
kernRight = r;
lastChange = "2024-05-28 21:50:44 +0000";
layers = (
{
anchors = (
{
name = bottom;
pos = (186,-48);
},
{
name = top;
pos = (320,292);
}
);
backgroundImage = {
imagePath = "../reference/scan/P-small-r.jpg";
locked = 1;
pos = (-155,-787);
scale = (10.5944,10.5944);
};
layerId = m002;
shapes = (
{
alignment = -1;
piece = {
height_l = 44.04555;
};
pos = (2,-140);
ref = _smart.verticalBar;
},
{
closed = 1;
nodes = (
(173,72,l),
(181,94,o),
(245,181,o),
(303,181,cs),
(340,181,o),
(368,144,o),
(368,103,cs),
(368,33,o),
(288,28,o),
(266,25,cs),
(249,22,o),
(253,14,o),
(266,10,cs),
(356,-17,o),
(470,34,o),
(470,114,cs),
(470,181,o),
(391,223,o),
(338,223,cs),
(271,223,o),
(208,196,o),
(173,149,c)
);
},
{
closed = 1;
nodes = (
(282,-65,ls),
(282,-166,o),
(328,-217,o),
(407,-217,cs),
(455,-217,o),
(505,-165,o),
(520,-133,cs),
(523,-126,o),
(517,-119,o),
(512,-125,cs),
(492,-149,o),
(464,-166,o),
(435,-166,cs),
(394,-166,o),
(369,-133,o),
(369,-43,cs),
(369,26,l),
(282,14,l)
);
}
);
width = 541;
},
{
anchors = (
{
name = bottom;
pos = (186,-48);
},
{
name = height_l;
pos = (97,-17.427);
},
{
name = noStartSerif;
pos = (23,298);
},
{
name = top;
pos = (320,292);
}
);
associatedMasterId = m002;
backgroundImage = {
imagePath = "../reference/scan/P-small-r.jpg";
locked = 1;
pos = (-155,-787);
scale = (10.5944,10.5944);
};
layerId = "B9492FD4-1041-4540-BD72-CBA4428CBA5D";
name = ref;
shapes = (
{
alignment = -1;
piece = {
height_l = 38.53864;
};
pos = (2,-140);
ref = _smart.verticalBar;
}
);
visible = 1;
width = 541;
}
);
metricLeft = i;
unicode = 114;
},
{
glyphname = s;
kernLeft = LxB;
kernRight = s;
lastChange = "2024-05-29 00:31:19 +0000";
layers = (
{
anchors = (
{
name = bottom;
pos = (271,-20);
},
{
name = ogonek;
pos = (376,0);
},
{
name = top;
pos = (324,281);
}
);
backgroundImage = {
imagePath = "../reference/scan/P-small-s.jpg";
locked = 1;
pos = (-230,-798);
scale = (10.5944,10.5944);
};
layerId = m002;
shapes = (
{
closed = 1;
nodes = (
(281,-31,o),
(285,-34,o),
(293,-32,cs),
(362,-18,o),
(473,18,o),
(473,109,cs),
(473,186,o),
(419,214,o),
(364,214,cs),
(277,214,o),
(196,144,o),
(168,144,c),
(168,103,l),
(182,103,o),
(259,172,o),
(316,172,cs),
(350,172,o),
(376,148,o),
(376,89,cs),
(376,22,o),
(320,-11,o),
(287,-28,cs)
);
},
{
alignment = -1;
piece = {
height_l = 43.97521;
};
pos = (2,-140);
ref = _smart.verticalBar;
}
);
width = 493;
},
{
anchors = (
{
name = bottom;
pos = (271,0);
},
{
name = ogonek;
pos = (376,20);
},
{
name = top;
pos = (308,304);
}
);
associatedMasterId = m002;
backgroundImage = {
imagePath = "../reference/scan/P-small-s.jpg";
locked = 1;
pos = (-230,-798);
scale = (10.5944,10.5944);
};
layerId = "892DB858-EFB6-43D3-9792-E010FD412035";
name = ref;
shapes = (
{
closed = 1;
nodes = (
(281,-11,o),
(285,-14,o),
(293,-12,cs),
(362,2,o),
(473,38,o),
(473,115,cs),
(473,186,o),
(419,214,o),
(341,214,cs),
(277,214,o),
(196,144,o),
(168,144,c),
(168,103,l),
(182,103,o),
(259,172,o),
(299,172,cs),
(350,172,o),
(376,148,o),
(376,103,cs),
(376,42,o),
(320,9,o),
(287,-8,cs)
);
},
{
alignment = -1;
piece = {
height_l = 38.53864;
};
pos = (2,-140);
ref = _smart.verticalBar;
}
);
width = 493;
},
{
anchors = (
{
name = bottom;
pos = (271,0);
},
{
name = ogonek;
pos = (376,20);
},
{
name = top;
pos = (308,304);
}
);
associatedMasterId = m002;
backgroundImage = {
imagePath = "../reference/scan/P-small-s.jpg";
locked = 1;
pos = (-230,-798);
scale = (10.5944,10.5944);
};
layerId = "2A08A97C-E0FA-489C-8EBC-BCCB06BF74C0";
name = "May 28, 24 at 17:51";
shapes = (
{
closed = 1;
nodes = (
(281,-11,o),
(285,-14,o),
(293,-12,cs),
(362,2,o),
(473,38,o),
(473,115,cs),
(473,186,o),
(419,214,o),
(341,214,cs),
(277,214,o),
(196,144,o),
(168,144,c),
(168,103,l),
(182,103,o),
(259,172,o),
(299,172,cs),
(350,172,o),
(376,148,o),
(376,103,cs),
(376,42,o),
(320,9,o),
(287,-8,cs)
);
},
{
alignment = -1;
piece = {
height_l = 43.97521;
};
pos = (2,-140);
ref = _smart.verticalBar;
}
);
width = 493;
}
);
metricLeft = i;
unicode = 115;
},
{
color = 4;
glyphname = scedilla;
kernLeft = LxB;
kernRight = s;
lastChange = "2024-05-28 23:08:32 +0000";
layers = (
{
layerId = m002;
shapes = (
{
ref = s;
},
{
closed = 1;
nodes = (
(275,-33,o),
(254,-70,o),
(254,-81,cs),
(254,-99,o),
(306,-121,o),
(306,-157,cs),
(306,-181,o),
(283,-198,o),
(255,-216,cs),
(248,-220,o),
(248,-223,o),
(258,-223,cs),
(288,-222,o),
(376,-198,o),
(376,-142,cs),
(376,-87,o),
(293,-75,o),
(293,-53,cs),
(293,-48,o),
(297,-38,o),
(323,-19,c),
(287,-28,l)
);
}
);
width = 503;
}
);
unicode = 351;
},
{
color = 4;
glyphname = germandbls;
kernLeft = LxB;
kernRight = h;
lastChange = "2024-05-22 23:15:19 +0000";
layers = (
{
layerId = m002;
shapes = (
{
closed = 1;
nodes = (
(206,-20,o),
(210,-23,o),
(218,-21,cs),
(287,-7,o),
(398,29,o),
(398,107,cs),
(398,195,o),
(256,184,o),
(256,195,cs),
(256,207,o),
(357,227,o),
(357,289,cs),
(357,338,o),
(296,367,o),
(235,367,cs),
(127,367,o),
(22,277,o),
(22,238,cs),
(22,172,l),
(109,218,l),
(109,266,ls),
(109,284,o),
(144,325,o),
(199,325,cs),
(235,325,o),
(281,307,o),
(281,274,cs),
(281,231,o),
(206,198,o),
(206,182,cs),
(206,170,o),
(305,154,o),
(305,86,cs),
(305,33,o),
(245,0,o),
(212,-17,cs)
);
},
{
alignment = -1;
piece = {
length = 11.23231;
};
pos = (16,-70);
ref = _smart.verticalBar_noStart;
}
);
width = 428;
}
);
unicode = 223;
},
{
glyphname = t;
kernLeft = t;
kernRight = RxDB;
lastChange = "2024-05-28 22:51:49 +0000";
layers = (
{
anchors = (
{
name = bottom;
pos = (241,-91);
},
{
name = ogonek;
pos = (422,-161);
},
{
name = top;
pos = (234,301);
}
);
backgroundImage = {
imagePath = "../reference/scan/P-small-t.jpg";
locked = 1;
pos = (-230,-796);
scale = (10.5944,10.5944);
};
layerId = m002;
shapes = (
{
closed = 1;
nodes = (
(25,88,o),
(37,81,o),
(47,89,cs),
(114,141,o),
(179,164,o),
(222,164,cs),
(288,164,o),
(335,133,o),
(335,89,cs),
(335,31,l),
(422,80,l),
(422,133,ls),
(422,174,o),
(361,216,o),
(265,216,cs),
(120,216,o),
(59,132,o),
(32,97,cs)
);
},
{
piece = {
height_l = 70.53372;
};
pos = (240,-140);
ref = _smart.verticalBar;
}
);
width = 447;
},
{
associatedMasterId = m002;
backgroundImage = {
imagePath = "../reference/scan/P-small-t.jpg";
locked = 1;
pos = (-230,-796);
scale = (10.5944,10.5944);
};
layerId = "F4F6F2DD-1D67-47D5-89F0-7099FBBD5BC1";
name = ref;
shapes = (
{
alignment = -1;
piece = {
height_l = 70.56343;
};
pos = (240,-140);
ref = _smart.verticalBar;
}
);
visible = 1;
width = 447;
}
);
unicode = 116;
},
{
glyphname = u;
kernLeft = u;
kernRight = o;
lastChange = "2024-05-29 00:31:56 +0000";
layers = (
{
anchors = (
{
name = ogonek;
pos = (315,-20);
},
{
name = top;
pos = (265,348);
}
);
backgroundImage = {
imagePath = "../reference/scan/P-small-u.jpg";
locked = 1;
pos = (-185,-810);
scale = (10.5944,10.5944);
};
layerId = m002;
shapes = (
{
closed = 1;
nodes = (
(42,274,o),
(43,270,o),
(50,273,cs),
(71,282,o),
(106,280,o),
(108,240,cs),
(111,184,o),
(30,157,o),
(30,76,cs),
(30,-19,o),
(140,-41,o),
(213,-41,cs),
(367,-41,o),
(507,56,o),
(507,194,cs),
(507,312,o),
(404,344,o),
(353,344,cs),
(332,344,o),
(265,285,o),
(215,269,c),
(224,243,l),
(239,247,o),
(259,259,o),
(287,266,cs),
(328,276,o),
(424,266,o),
(424,159,cs),
(424,114,o),
(388,-5,o),
(241,-5,cs),
(140,-5,o),
(111,51,o),
(111,111,cs),
(111,209,o),
(190,223,o),
(190,273,cs),
(190,328,o),
(144,350,o),
(109,327,cs),
(97,318,o),
(68,293,o),
(46,277,cs)
);
},
{
piece = {
length = 9.46746;
};
pos = (209,-30);
ref = _smart.verticalBar_noStart;
},
{
piece = {
leftSerif = 100;
length = 57.17631;
rightSerif = 100;
};
pos = (-9,-97);
ref = _smart.horizontalBar;
}
);
width = 527;
}
);
unicode = 117;
},
{
glyphname = v;
kernLeft = "LxB-x";
kernRight = v;
lastChange = "2024-05-28 21:52:41 +0000";
layers = (
{
backgroundImage = {
imagePath = "../reference/scan/P-small-v.jpg";
locked = 1;
pos = (-132,-803);
scale = (10.5944,10.5944);
};
layerId = m002;
shapes = (
{
closed = 1;
nodes = (
(408,14,o),
(374,26,o),
(365,29,cs),
(345,35,o),
(339,30,o),
(356,19,cs),
(387,0,o),
(407,-41,o),
(458,-41,cs),
(506,-41,o),
(576,-4,o),
(576,42,cs),
(576,116,o),
(392,243,o),
(249,325,c),
(230,294,l),
(254,299,o),
(351,243,o),
(397,207,cs),
(510,119,o),
(468,35,o),
(430,22,cs)
);
},
{
piece = {
height_l = 43.96829;
};
pos = (96,-140);
ref = _smart.verticalBar;
},
{
piece = {
length = 84.25777;
};
pos = (-198,-100);
ref = _smart.horizontalBar;
}
);
width = 596;
},
{
associatedMasterId = m002;
backgroundImage = {
imagePath = "../reference/scan/P-small-v.jpg";
locked = 1;
pos = (-132,-803);
scale = (10.5944,10.5944);
};
layerId = "80E3E3D3-878A-48B8-82CD-E471903A8774";
name = ref;
shapes = (
{
alignment = -1;
piece = {
height_l = 38.53864;
};
pos = (96,-140);
ref = _smart.verticalBar;
}
);
visible = 1;
width = 596;
}
);
metricLeft = n;
unicode = 118;
},
{
glyphname = w;
kernLeft = LxB;
kernRight = RxB;
lastChange = "2024-05-28 21:53:52 +0000";
layers = (
{
anchors = (
{
name = top;
pos = (349,368);
}
);
backgroundImage = {
imagePath = "../reference/scan/P-small-w.jpg";
locked = 1;
pos = (-121,-795);
scale = (10.5944,10.5944);
};
layerId = m002;
shapes = (
{
piece = {
height_l = 44.04173;
};
pos = (2,-140);
ref = _smart.verticalBar;
},
{
piece = {
height_l = 16.09006;
};
pos = (218,-140);
ref = _smart.verticalBar.noEndSerif;
},
{
closed = 1;
nodes = (
(313,38,o),
(296,20,o),
(276,13,cs),
(253,6,o),
(215,10,o),
(168,38,c),
(153,20,l),
(229,-29,o),
(252,-60,o),
(322,-56,cs),
(369,-54,o),
(400,-38,o),
(400,171,c),
(313,133,l)
);
},
{
piece = {
height_l = 16.09006;
};
pos = (419,-140);
ref = _smart.verticalBar.noEndSerif;
},
{
closed = 1;
nodes = (
(514,38,o),
(497,16,o),
(463,11,cs),
(454,10,o),
(427,5,o),
(380,33,c),
(380,15,l),
(456,-34,o),
(480,-57,o),
(533,-57,cs),
(581,-57,o),
(601,-38,o),
(601,171,c),
(514,133,l)
);
}
);
width = 626;
},
{
anchors = (
{
name = top;
pos = (349,368);
}
);
associatedMasterId = m002;
backgroundImage = {
imagePath = "../reference/scan/P-small-w.jpg";
locked = 1;
pos = (-121,-795);
scale = (10.5944,10.5944);
};
layerId = "DADF74C1-ACC6-44BA-8C2A-74BBC51A9B7D";
name = ref;
shapes = (
{
alignment = -1;
piece = {
height_l = 38.53864;
};
pos = (2,-140);
ref = _smart.verticalBar;
}
);
visible = 1;
width = 626;
}
);
metricLeft = i;
metricRight = i;
unicode = 119;
},
{
glyphname = x;
kernLeft = x;
kernRight = x;
lastChange = "2024-05-28 21:56:46 +0000";
layers = (
{
backgroundImage = {
imagePath = "../reference/scan/P-small-x.jpg";
locked = 1;
pos = (-190,-802);
scale = (10.5944,10.5944);
};
layerId = m002;
shapes = (
{
closed = 1;
nodes = (
(243,191,l),
(143,140,o),
(30,68,o),
(30,2,cs),
(30,-23,o),
(43,-33,o),
(55,-38,c),
(71,-32,o),
(120,-17,o),
(141,-17,cs),
(145,-17,o),
(145,-14,o),
(141,-11,cs),
(126,-2,o),
(119,16,o),
(125,35,cs),
(136,71,o),
(192,125,o),
(257,160,c)
);
},
{
closed = 1;
nodes = (
(27,274,o),
(35,272,o),
(41,278,cs),
(51,289,o),
(78,306,o),
(99,306,cs),
(162,306,o),
(274,-29,o),
(377,-29,cs),
(417,-29,o),
(472,32,o),
(481,47,cs),
(483,50,o),
(477,56,o),
(474,53,cs),
(466,46,o),
(459,35,o),
(420,35,cs),
(341,35,o),
(234,366,o),
(140,366,cs),
(99,366,o),
(38,301,o),
(31,282,cs)
);
}
);
width = 501;
}
);
unicode = 120;
},
{
glyphname = y;
kernLeft = LxDB;
kernRight = y;
lastChange = "2024-05-28 22:52:41 +0000";
layers = (
{
anchors = (
{
name = top;
pos = (258,368);
}
);
backgroundImage = {
imagePath = "../reference/scan/P-small-y.jpg";
locked = 1;
pos = (-225,-803);
scale = (10.5944,10.5944);
};
layerId = m002;
shapes = (
{
alignment = -1;
piece = {
height_l = 70.44572;
};
pos = (2,-140);
ref = _smart.verticalBar;
},
{
closed = 1;
nodes = (
(392,234,o),
(391,193,o),
(364,181,c),
(389,168,l),
(436,193,o),
(481,261,o),
(481,292,cs),
(481,345,o),
(395,372,o),
(375,372,cs),
(351,372,o),
(291,332,o),
(265,305,cs),
(252,292,o),
(260,289,o),
(268,294,cs),
(283,303,o),
(312,319,o),
(351,308,cs),
(355,307,o),
(392,297,o),
(392,243,cs)
);
},
{
closed = 1;
nodes = (
(318,34,o),
(284,46,o),
(268,51,cs),
(255,55,o),
(249,50,o),
(261,42,cs),
(297,20,o),
(317,-21,o),
(379,-21,cs),
(416,-21,o),
(486,16,o),
(486,71,cs),
(486,136,o),
(302,243,o),
(159,325,c),
(140,294,l),
(164,299,o),
(261,243,o),
(338,183,cs),
(420,119,o),
(378,55,o),
(353,46,cs)
);
}
);
width = 516;
},
{
associatedMasterId = m002;
backgroundImage = {
imagePath = "../reference/scan/P-small-y.jpg";
locked = 1;
pos = (-225,-803);
scale = (10.5944,10.5944);
};
layerId = "802CEBFB-4089-40EE-AD23-E2D502C207D9";
name = ref;
shapes = (
{
alignment = -1;
piece = {
height_l = 70.56343;
};
pos = (2,-140);
ref = _smart.verticalBar;
}
);
visible = 1;
width = 516;
}
);
metricLeft = f;
unicode = 121;
},
{
glyphname = z;
kernLeft = z;
kernRight = z;
lastChange = "2024-05-28 22:00:30 +0000";
layers = (
{
anchors = (
{
name = top;
pos = (315,365);
}
);
backgroundImage = {
imagePath = "../reference/scan/P-small-z.jpg";
locked = 1;
pos = (-218,-806);
scale = (10.5944,10.5944);
};
layerId = m002;
shapes = (
{
alignment = -1;
piece = {
length = 107.06947;
rightSerif = 100;
};
pos = (-147,94);
ref = _smart.horizontalBar;
},
{
piece = {
length = 82.70388;
};
pos = (-64,-236);
ref = _smart.horizontalBar;
},
{
closed = 1;
nodes = (
(389,158,l),
(389,229,o),
(344,251,o),
(288,251,cs),
(178,251,o),
(30,127,o),
(30,33,cs),
(30,-20,o),
(76,-33,o),
(89,-33,cs),
(110,-33,o),
(149,-2,o),
(170,19,cs),
(277,126,o),
(403,246,o),
(507,359,cs),
(512,364,o),
(519,370,o),
(507,367,c),
(492,365,o),
(479,365,o),
(467,365,cs),
(452,365,o),
(459,353,o),
(459,353,c),
(153,46,ls),
(139,32,o),
(115,11,o),
(115,57,cs),
(115,131,o),
(177,205,o),
(241,205,cs),
(282,205,o),
(303,175,o),
(303,114,c),
(303,-9,l),
(389,-9,l)
);
}
);
width = 544;
}
);
unicode = 122;
},
{
glyphname = f_a;
kernLeft = LxDB;
kernRight = a;
lastChange = "2024-05-28 22:55:22 +0000";
layers = (
{
anchors = (
{
name = top;
pos = (554,359);
}
);
layerId = m002;
shapes = (
{
closed = 1;
nodes = (
(97,-4,l),
(184,-4,l),
(184,80,ls),
(184,137,o),
(217,168,o),
(269,168,cs),
(394,168,o),
(473,-8,o),
(599,-8,cs),
(652,-8,o),
(753,23,o),
(753,104,cs),
(753,177,o),
(695,220,o),
(628,220,cs),
(595,220,o),
(500,161,o),
(452,138,c),
(419,166,o),
(374,200,o),
(301,200,cs),
(184,200,o),
(97,112,o),
(97,54,cs)
);
},
{
closed = 1;
nodes = (
);
},
{
piece = {
height_l = 70.52002;
};
pos = (2,-140);
ref = _smart.verticalBar;
},
{
closed = 1;
nodes = (
(470,113,l),
(508,125,o),
(555,170,o),
(586,170,cs),
(618,170,o),
(665,133,o),
(665,78,cs),
(665,33,o),
(656,30,o),
(640,30,cs),
(567,30,o),
(502,90,o),
(470,135,c)
);
},
{
alignment = -1;
piece = {
height_l = 30.25825;
};
pos = (292,-140);
ref = _smart.verticalBar.noEndSerif;
},
{
closed = 1;
nodes = (
(387,73,o),
(387,39,o),
(387,12,cs),
(387,-52,o),
(322,-164,o),
(304,-180,cs),
(298,-186,o),
(303,-189,o),
(309,-186,cs),
(329,-176,o),
(474,-46,o),
(474,25,cs),
(474,74,l),
(387,93,l)
);
},
{
alignment = -1;
piece = {
leftSerif = 100;
length = 86.37713;
};
pos = (166,29);
ref = _smart.horizontalBar;
}
);
width = 783;
},
{
associatedMasterId = m002;
layerId = "60F3B910-775C-4D72-A47F-AE4F876673BA";
name = ref;
shapes = (
{
closed = 1;
nodes = (
);
},
{
alignment = -1;
piece = {
height_l = 70.56343;
};
pos = (2,-140);
ref = _smart.verticalBar;
},
{
alignment = -1;
piece = {
height_l = 70.56343;
};
pos = (292,-140);
ref = _smart.verticalBar;
}
);
visible = 1;
width = 783;
}
);
metricLeft = f;
metricRight = a;
},
{
glyphname = r_a.swash;
kernLeft = LxB;
kernRight = a;
lastChange = "2024-05-28 23:00:39 +0000";
layers = (
{
layerId = m002;
shapes = (
{
alignment = -1;
piece = {
height_l = 44.00226;
};
pos = (2,-140);
ref = _smart.verticalBar;
},
{
closed = 1;
nodes = (
(173,72,l),
(181,94,o),
(245,181,o),
(303,181,cs),
(340,181,o),
(368,144,o),
(368,103,cs),
(368,33,o),
(288,28,o),
(266,25,cs),
(249,22,o),
(253,14,o),
(266,10,cs),
(356,-17,o),
(470,34,o),
(470,114,cs),
(470,181,o),
(391,223,o),
(338,223,cs),
(271,223,o),
(208,196,o),
(173,149,c)
);
},
{
closed = 1;
nodes = (
(282,-65,ls),
(282,-166,o),
(328,-217,o),
(397,-217,cs),
(476,-217,o),
(635,-43,o),
(635,44,cs),
(635,74,l),
(548,93,l),
(548,12,ls),
(548,-80,o),
(508,-166,o),
(435,-166,cs),
(394,-166,o),
(369,-133,o),
(369,-43,cs),
(369,26,l),
(282,14,l)
);
},
{
closed = 1;
nodes = (
(604,30,o),
(615,36,o),
(624,36,cs),
(644,36,o),
(687,-8,o),
(750,-8,cs),
(813,-8,o),
(914,23,o),
(914,104,cs),
(914,177,o),
(856,220,o),
(789,220,cs),
(750,220,o),
(640,140,o),
(601,129,c),
(601,19,l)
);
},
{
closed = 1;
nodes = (
(631,113,l),
(669,125,o),
(716,170,o),
(747,170,cs),
(779,170,o),
(826,133,o),
(826,78,cs),
(826,33,o),
(817,30,o),
(777,30,cs),
(728,30,o),
(663,90,o),
(631,135,c)
);
},
{
alignment = -1;
piece = {
height_l = 30.3791;
};
pos = (453,-140);
ref = _smart.verticalBar.noEndSerif;
},
{
alignment = -1;
piece = {
leftSerif = 100;
length = 86.37713;
};
pos = (327,29);
ref = _smart.horizontalBar;
}
);
width = 944;
},
{
associatedMasterId = m002;
layerId = "59F47AB8-7090-4AAC-B2C0-AAF5E7C84EB3";
name = ref;
shapes = (
{
alignment = -1;
piece = {
height_l = 44.04555;
};
pos = (2,-140);
ref = _smart.verticalBar;
},
{
alignment = -1;
piece = {
height_l = 44.04555;
};
pos = (453,-140);
ref = _smart.verticalBar;
}
);
visible = 1;
width = 944;
}
);
metricLeft = r;
metricRight = a;
},
{
glyphname = r_f.swash;
kernLeft = LxB;
kernRight = f;
lastChange = "2024-05-28 23:00:52 +0000";
layers = (
{
anchors = (
{
name = noStartSerif;
pos = (440,305);
}
);
hints = (
{
name = _corner.a;
place = (509,0);
scale = (0.3,0.5);
type = Corner;
}
);
layerId = m002;
shapes = (
{
closed = 1;
nodes = (
(173,72,l),
(181,94,o),
(245,181,o),
(303,181,cs),
(340,181,o),
(368,144,o),
(368,103,cs),
(368,33,o),
(288,28,o),
(266,25,cs),
(249,22,o),
(253,14,o),
(266,10,cs),
(356,-17,o),
(470,34,o),
(470,114,cs),
(470,181,o),
(391,223,o),
(338,223,cs),
(271,223,o),
(208,196,o),
(173,149,c)
);
},
{
closed = 1;
nodes = (
(282,-65,ls),
(282,-166,o),
(328,-217,o),
(398,-217,cs),
(486,-217,o),
(601,-136,o),
(601,-37,cs),
(601,327,ls),
(601,352,o),
(587,381,o),
(565,368,cs),
(519,341,o),
(486,318,o),
(440,299,cs),
(436,297,o),
(436,292,o),
(445,292,cs),
(454,292,o),
(472,291,o),
(482,289,cs),
(507,284,o),
(514,274,o),
(514,250,cs),
(514,-53,ls),
(514,-145,o),
(485,-166,o),
(443,-166,cs),
(390,-166,o),
(369,-133,o),
(369,-43,cs),
(369,26,l),
(282,14,l)
);
},
{
closed = 1;
nodes = (
(514,-4,l),
(601,-4,l),
(601,80,ls),
(601,137,o),
(634,168,o),
(693,168,cs),
(757,168,o),
(802,79,o),
(822,39,cs),
(825,34,o),
(828,35,o),
(831,39,cs),
(845,58,o),
(879,84,o),
(896,98,cs),
(899,101,o),
(908,106,o),
(904,111,cs),
(883,137,o),
(815,200,o),
(723,200,cs),
(601,200,o),
(514,112,o),
(514,54,cs)
);
},
{
alignment = -1;
piece = {
height_l = 44.00226;
};
pos = (2,-140);
ref = _smart.verticalBar;
}
);
width = 925;
},
{
associatedMasterId = m002;
layerId = "5C5BCC0F-4269-4B62-9F67-5ECB7FDAE7F3";
name = overlay;
shapes = (
{
ref = r;
},
{
pos = (541,0);
ref = f;
}
);
width = 1049;
},
{
associatedMasterId = m002;
layerId = "DEF400CD-AE25-4A2E-9FDD-1D0B1283C86D";
name = overlay;
shapes = (
{
ref = r;
},
{
pos = (541,0);
ref = f;
}
);
width = 1049;
}
);
metricLeft = r;
metricRight = f;
},
{
glyphname = r_h.swash;
kernLeft = LxB;
kernRight = h;
lastChange = "2024-05-28 23:01:01 +0000";
layers = (
{
anchors = (
{
name = noStartSerif;
pos = (444,439);
}
);
layerId = m002;
shapes = (
{
closed = 1;
nodes = (
(173,72,l),
(181,94,o),
(245,181,o),
(303,181,cs),
(340,181,o),
(368,144,o),
(368,103,cs),
(368,33,o),
(288,28,o),
(266,25,cs),
(249,22,o),
(253,14,o),
(266,10,cs),
(356,-17,o),
(470,34,o),
(470,114,cs),
(470,181,o),
(391,223,o),
(338,223,cs),
(271,223,o),
(208,196,o),
(173,149,c)
);
},
{
closed = 1;
nodes = (
(282,-65,ls),
(282,-166,o),
(328,-217,o),
(407,-217,cs),
(519,-217,o),
(605,-94,o),
(605,31,cs),
(605,461,ls),
(605,486,o),
(591,515,o),
(569,502,cs),
(523,475,o),
(490,452,o),
(444,433,cs),
(440,431,o),
(440,426,o),
(449,426,cs),
(458,426,o),
(476,425,o),
(486,423,cs),
(511,418,o),
(518,408,o),
(518,384,cs),
(518,-11,ls),
(518,-133,o),
(495,-166,o),
(434,-166,cs),
(394,-166,o),
(369,-133,o),
(369,-43,cs),
(369,26,l),
(282,14,l)
);
},
{
closed = 1;
nodes = (
(645,168,o),
(842,240,o),
(842,323,cs),
(842,341,o),
(840,344,o),
(830,342,cs),
(798,333,o),
(762,330,o),
(737,330,cs),
(726,330,o),
(727,324,o),
(733,321,cs),
(742,315,o),
(757,305,o),
(757,283,cs),
(757,249,o),
(631,188,o),
(594,184,c),
(594,143,l)
);
},
{
closed = 1;
nodes = (
(855,184,o),
(821,176,o),
(772,176,c),
(788,158,o),
(793,132,o),
(793,114,cs),
(793,54,o),
(732,-8,o),
(688,-36,cs),
(681,-41,o),
(683,-45,o),
(693,-42,cs),
(770,-18,o),
(890,51,o),
(890,133,cs),
(890,159,o),
(881,184,o),
(866,184,cs)
);
},
{
alignment = -1;
piece = {
leftSerif = 100;
length = 80.56819;
rightSerif = 100;
};
pos = (299,-95);
ref = _smart.horizontalBar;
},
{
alignment = -1;
piece = {
height_l = 44.00226;
};
pos = (2,-140);
ref = _smart.verticalBar;
}
);
width = 920;
},
{
associatedMasterId = m002;
layerId = "24511C86-4219-4CFE-9C80-D6012F2D995D";
name = overlay;
shapes = (
{
ref = r;
},
{
pos = (471,0);
ref = h;
}
);
width = 970;
},
{
associatedMasterId = m002;
layerId = "F9CEC9C1-A9A5-4EE8-9087-ACC479BE5228";
name = overlay;
shapes = (
{
ref = r;
},
{
pos = (471,0);
ref = h;
}
);
width = 970;
}
);
metricLeft = r;
metricRight = h;
},
{
glyphname = r_y.swash;
kernLeft = LxB;
kernRight = y;
lastChange = "2024-05-28 23:01:07 +0000";
layers = (
{
hints = (
{
name = _corner.a;
place = (546,0);
scale = (0.3,0.5);
type = Corner;
}
);
layerId = m002;
shapes = (
{
closed = 1;
nodes = (
(173,72,l),
(181,94,o),
(245,181,o),
(303,181,cs),
(340,181,o),
(368,144,o),
(368,103,cs),
(368,33,o),
(288,28,o),
(266,25,cs),
(249,22,o),
(253,14,o),
(266,10,cs),
(356,-17,o),
(470,34,o),
(470,114,cs),
(470,181,o),
(391,223,o),
(338,223,cs),
(271,223,o),
(208,196,o),
(173,149,c)
);
},
{
closed = 1;
nodes = (
(282,-65,ls),
(282,-166,o),
(328,-217,o),
(412,-217,cs),
(544,-217,o),
(638,-92,o),
(638,28,cs),
(638,325,ls),
(638,350,o),
(624,379,o),
(602,366,cs),
(556,339,o),
(523,316,o),
(477,297,cs),
(473,295,o),
(473,290,o),
(482,290,cs),
(491,290,o),
(509,289,o),
(519,287,cs),
(544,282,o),
(551,272,o),
(551,248,cs),
(551,0,ls),
(551,-139,o),
(477,-166,o),
(438,-166,cs),
(394,-166,o),
(369,-133,o),
(369,-43,cs),
(369,26,l),
(282,14,l)
);
},
{
closed = 1;
nodes = (
(846,234,o),
(845,193,o),
(818,181,c),
(843,168,l),
(890,193,o),
(935,261,o),
(935,292,cs),
(935,345,o),
(849,372,o),
(829,372,cs),
(805,372,o),
(745,332,o),
(719,305,cs),
(706,292,o),
(714,289,o),
(722,294,cs),
(737,303,o),
(766,319,o),
(805,308,cs),
(809,307,o),
(846,297,o),
(846,243,cs)
);
},
{
closed = 1;
nodes = (
(772,44,o),
(738,56,o),
(722,61,cs),
(709,65,o),
(703,60,o),
(715,52,cs),
(751,30,o),
(771,-11,o),
(833,-11,cs),
(870,-11,o),
(940,26,o),
(940,81,cs),
(940,146,o),
(756,243,o),
(613,325,c),
(594,294,l),
(618,299,o),
(715,243,o),
(792,183,cs),
(874,119,o),
(832,65,o),
(807,56,cs)
);
},
{
alignment = -1;
piece = {
height_l = 44.00226;
};
pos = (2,-140);
ref = _smart.verticalBar;
}
);
width = 970;
},
{
associatedMasterId = m002;
layerId = "EA04DE46-6829-4FB5-AD46-129B76FAB92C";
name = overlay;
shapes = (
{
ref = r;
},
{
pos = (541,0);
ref = y;
}
);
width = 1057;
},
{
associatedMasterId = m002;
layerId = "A5401B4F-3466-408F-8EE5-581591C2B64C";
name = overlay;
shapes = (
{
ref = r;
},
{
pos = (541,0);
ref = y;
}
);
width = 1057;
}
);
metricLeft = r;
metricRight = y;
},
{
glyphname = a.sc;
kernLeft = LxB;
kernRight = a;
lastChange = "2024-05-29 00:33:33 +0000";
layers = (
{
anchors = (
{
name = ogonek;
pos = (337,0);
},
{
name = top;
pos = (264,359);
}
);
layerId = m002;
shapes = (
{
closed = 1;
nodes = (
(184,53,o),
(229,-8,o),
(307,-8,cs),
(362,-8,o),
(463,23,o),
(463,111,cs),
(463,177,o),
(405,220,o),
(363,220,cs),
(299,220,o),
(182,121,o),
(143,110,c),
(184,27,l)
);
},
{
closed = 1;
nodes = (
(172,100,l),
(224,133,o),
(267,165,o),
(299,165,cs),
(330,165,o),
(375,133,o),
(375,64,cs),
(375,33,o),
(366,30,o),
(349,30,cs),
(277,30,o),
(204,84,o),
(172,129,c)
);
},
{
alignment = -1;
piece = {
leftSerif = 100;
length = 86.37713;
};
pos = (-124,29);
ref = _smart.horizontalBar;
},
{
alignment = -1;
ref = i;
}
);
width = 493;
},
{
associatedMasterId = m002;
layerId = "01559019-1FD3-4CC5-964F-0466CEEEDBB1";
name = ref;
shapes = (
{
alignment = -1;
ref = a;
}
);
width = 502;
},
{
associatedMasterId = m002;
layerId = "6A4D21FB-554F-4A3F-AB07-655D9C0C59BC";
name = cap;
shapes = (
{
alignment = -1;
pos = (31,-11);
ref = A;
scale = (0.7956,0.7956);
}
);
width = 502;
}
);
},
{
glyphname = ae.sc;
kernLeft = LxB;
kernRight = e;
lastChange = "2024-05-29 00:56:35 +0000";
layers = (
{
hints = (
{
name = _corner.a;
origin = (2,32);
scale = (0.00951,0);
type = Corner;
}
);
layerId = m002;
shapes = (
{
closed = 1;
nodes = (
(154,30,o),
(165,36,o),
(173,36,cs),
(192,36,o),
(233,-8,o),
(293,-8,cs),
(353,-8,o),
(449,23,o),
(449,104,cs),
(449,177,o),
(394,220,o),
(330,220,cs),
(293,220,o),
(188,140,o),
(151,129,c),
(151,19,l)
);
},
{
closed = 1;
nodes = (
(180,113,l),
(216,125,o),
(261,170,o),
(290,170,cs),
(321,170,o),
(365,133,o),
(365,78,cs),
(365,33,o),
(357,30,o),
(319,30,cs),
(272,30,o),
(210,90,o),
(180,135,c)
);
},
{
closed = 1;
nodes = (
(353,244,ls),
(404,244,o),
(468,333,o),
(532,333,cs),
(583,333,o),
(669,277,o),
(669,150,cs),
(669,78,o),
(641,8,o),
(567,8,cs),
(515,8,o),
(495,43,o),
(482,51,cs),
(480,52,o),
(473,43,o),
(463,33,cs),
(454,24,o),
(438,12,o),
(438,11,cs),
(438,4,o),
(488,-25,o),
(543,-25,cs),
(634,-25,o),
(755,56,o),
(755,171,cs),
(755,269,o),
(671,365,o),
(574,365,cs),
(494,365,o),
(454,300,o),
(394,300,cs),
(171,300,l),
(116,244,l)
);
},
{
alignment = -1;
ref = i;
},
{
alignment = -1;
piece = {
length = 103.4617;
rightSerif = 0;
};
pos = (255,-76);
ref = _smart.horizontalBar;
}
);
width = 904;
},
{
associatedMasterId = m002;
layerId = "0B8B4EB2-AE6D-42B1-A69B-E61B03A092D0";
name = e;
shapes = (
{
alignment = -1;
pos = (88,0);
ref = a;
scale = (0.95,1);
},
{
alignment = -1;
pos = (423,0);
ref = e;
scale = (0.94,1);
}
);
width = 1068;
}
);
metricLeft = a.sc;
metricRight = e.sc;
},
{
glyphname = b.sc;
kernLeft = o;
kernRight = b;
lastChange = "2024-05-29 00:33:57 +0000";
layers = (
{
anchors = (
{
name = noStartSerif;
pos = (217,205);
}
);
layerId = m002;
shapes = (
{
closed = 1;
nodes = (
(304,372,l),
(171,372,o),
(30,179,o),
(30,75,cs),
(30,-8,o),
(104,-31,o),
(174,-31,cs),
(287,-31,o),
(378,29,o),
(425,74,cs),
(435,84,o),
(431,91,o),
(420,84,cs),
(359,44,o),
(307,14,o),
(244,14,cs),
(144,14,o),
(113,89,o),
(113,131,cs),
(113,196,o),
(214,360,o),
(304,360,c)
);
},
{
closed = 1;
nodes = (
(304,182,l),
(304,372,l),
(217,339,l),
(217,145,l)
);
},
{
alignment = -1;
piece = {
leftSerif = 100;
length = 113.77445;
};
pos = (-185,-76);
ref = _smart.horizontalBar;
}
);
width = 502;
},
{
associatedMasterId = m002;
layerId = "AD93DC21-5494-439E-B525-BA47BA8B8127";
name = ref;
shapes = (
{
alignment = -1;
ref = b;
}
);
width = 502;
},
{
associatedMasterId = m002;
layerId = "0F12E393-57F2-4D8D-BFCE-5E02D790FC43";
name = cap;
shapes = (
{
alignment = -1;
pos = (6,-9);
ref = B;
scale = (0.872,0.7535);
}
);
visible = 1;
width = 502;
}
);
},
{
glyphname = c.sc;
kernLeft = o;
kernRight = RxB;
lastChange = "2024-05-29 00:34:51 +0000";
layers = (
{
anchors = (
{
name = ogonek;
pos = (394,0);
},
{
name = top;
pos = (217,346);
}
);
layerId = m002;
shapes = (
{
alignment = -1;
piece = {
leftSerif = 100;
length = 82.28182;
rightSerif = 100;
};
pos = (-188,-76);
ref = _smart.horizontalBar;
},
{
closed = 1;
nodes = (
(110,195,o),
(55,207,o),
(44,200,cs),
(37,195,o),
(30,172,o),
(30,155,cs),
(30,86,o),
(130,-48,o),
(307,-48,cs),
(320,-48,o),
(394,-2,o),
(394,0,c),
(242,0,o),
(101,118,o),
(101,178,cs),
(101,192,o),
(126,191,o),
(134,195,c)
);
},
{
piece = {
height_l = 43.86326;
};
pos = (212,-141);
ref = _smart.verticalBar.noEndSerif;
}
);
width = 420;
},
{
associatedMasterId = m002;
layerId = "5BB4871C-BA83-43A3-9FDA-7C848F4EA34F";
name = ref;
shapes = (
{
alignment = -1;
ref = c;
}
);
width = 441;
},
{
associatedMasterId = m002;
layerId = "B0F2B454-1D54-480F-995E-2E90086A34EF";
name = cap;
shapes = (
{
alignment = -1;
pos = (29,-11);
ref = C;
scale = (0.8656,0.7496);
}
);
width = 495;
}
);
},
{
glyphname = d.sc;
kernLeft = o;
kernRight = d;
lastChange = "2024-05-29 00:35:08 +0000";
layers = (
{
anchors = (
{
name = top;
pos = (291,376);
}
);
layerId = m002;
shapes = (
{
closed = 1;
nodes = (
(30,-49,o),
(326,-22,o),
(421,-22,cs),
(430,-22,o),
(440,-8,o),
(453,4,cs),
(470,21,o),
(488,38,o),
(470,38,cs),
(206,38,o),
(136,31,o),
(136,112,cs),
(136,182,o),
(238,356,o),
(329,356,cs),
(376,356,o),
(425,288,o),
(433,228,cs),
(433,226,o),
(437,230,o),
(440,234,cs),
(452,249,o),
(478,275,o),
(491,286,cs),
(494,289,o),
(494,288,o),
(493,290,cs),
(469,343,o),
(387,408,o),
(302,380,cs),
(213,350,o),
(30,175,o),
(30,79,cs)
);
},
{
closed = 1;
nodes = (
(251,24,l),
(338,24,l),
(338,383,l),
(251,343,l)
);
}
);
width = 524;
},
{
associatedMasterId = m002;
layerId = "5943B973-ABE1-444E-8D7A-57D365C38BE9";
name = ref;
shapes = (
{
alignment = -1;
ref = d;
}
);
width = 524;
},
{
associatedMasterId = m002;
layerId = "05049C3F-E0DA-46EF-B585-17C59995EE4E";
name = cap;
shapes = (
{
alignment = -1;
pos = (72,2);
ref = D;
scale = (0.7887,0.7451);
}
);
visible = 1;
width = 641;
}
);
},
{
glyphname = e.sc;
kernLeft = e.sc;
kernRight = e;
lastChange = "2024-05-29 01:11:32 +0000";
layers = (
{
anchors = (
{
name = bottom;
pos = (282,-14);
},
{
name = ogonek;
pos = (366,15);
},
{
name = top;
pos = (233,364);
}
);
layerId = m002;
shapes = (
{
alignment = -1;
piece = {
length = 96.79281;
rightSerif = 0;
};
pos = (-51,-76);
ref = _smart.horizontalBar;
},
{
closed = 1;
nodes = (
(352,-26,o),
(457,40,o),
(457,156,cs),
(457,261,o),
(372,346,o),
(282,346,cs),
(223,346,o),
(173,309,o),
(128,309,cs),
(105,309,o),
(90,319,o),
(90,346,cs),
(90,369,o),
(116,382,o),
(115,385,cs),
(114,388,o),
(110,385,o),
(108,385,cs),
(103,383,o),
(53,348,o),
(31,339,cs),
(29,338,o),
(28,336,o),
(28,332,cs),
(28,306,o),
(26,256,o),
(87,256,cs),
(147,256,o),
(195,304,o),
(249,304,cs),
(326,304,o),
(365,208,o),
(365,129,cs),
(365,49,o),
(326,6,o),
(253,6,cs),
(197,6,o),
(154,32,o),
(123,56,cs),
(114,63,o),
(110,55,o),
(108,53,cs),
(101,47,o),
(75,29,o),
(71,26,cs),
(63,21,o),
(58,20,o),
(62,16,cs),
(102,-16,o),
(167,-26,o),
(219,-26,cs)
);
}
);
width = 580;
},
{
associatedMasterId = m002;
layerId = "9AEFB552-925B-41A1-B6A2-9F1D834A3355";
name = ref;
shapes = (
{
alignment = -1;
ref = e;
}
);
width = 566;
},
{
associatedMasterId = m002;
layerId = "617CB374-3865-4B75-97DC-7C3D6B0A6EF1";
name = cap;
shapes = (
{
alignment = -1;
pos = (80,-10);
ref = E;
scale = (0.7545,0.7256);
}
);
width = 717;
}
);
},
{
glyphname = f.sc;
kernLeft = LxB;
kernRight = f;
lastChange = "2024-05-29 00:35:39 +0000";
layers = (
{
layerId = m002;
shapes = (
{
closed = 1;
nodes = (
(97,4,l),
(184,4,l),
(184,88,ls),
(184,145,o),
(217,176,o),
(276,176,cs),
(340,176,o),
(385,87,o),
(405,47,cs),
(408,42,o),
(411,43,o),
(414,47,cs),
(428,66,o),
(462,92,o),
(479,106,cs),
(482,109,o),
(491,114,o),
(487,119,cs),
(466,145,o),
(398,208,o),
(306,208,cs),
(184,208,o),
(97,120,o),
(97,62,cs)
);
},
{
piece = {
height_l = 44.03546;
};
pos = (2,-140);
ref = _smart.verticalBar.noEndSerif;
}
);
width = 508;
},
{
associatedMasterId = m002;
layerId = "187B1819-EEB4-4D42-AA3F-7A668FC4ECAD";
name = ref;
shapes = (
{
alignment = -1;
ref = f;
}
);
width = 508;
},
{
associatedMasterId = m002;
layerId = "63911F49-D006-4660-A22E-1D00A86B6960";
name = cap;
shapes = (
{
alignment = -1;
pos = (54,-13);
ref = F;
scale = (0.8362,0.7597);
}
);
width = 574;
}
);
},
{
glyphname = g.sc;
kernLeft = o;
kernRight = g;
lastChange = "2024-05-29 00:36:04 +0000";
layers = (
{
anchors = (
{
name = bottom;
pos = (307,-17);
},
{
name = ogonek;
pos = (416,0);
},
{
name = top;
pos = (314,369);
}
);
layerId = m002;
shapes = (
{
alignment = -1;
piece = {
leftSerif = 100;
length = 92.62083;
rightSerif = 0;
};
pos = (-54,-74);
ref = _smart.horizontalBar;
},
{
closed = 1;
nodes = (
(329,0,l),
(416,0,l),
(416,169,l),
(329,169,l)
);
},
{
closed = 1;
nodes = (
(49,34,o),
(221,-32,o),
(308,-32,cs),
(366,-32,o),
(416,-3,o),
(416,0,c),
(329,9,o),
(146,57,o),
(146,178,cs),
(146,293,o),
(310,333,o),
(392,363,cs),
(427,376,o),
(425,379,o),
(412,379,cs),
(353,379,o),
(49,316,o),
(49,155,cs)
);
}
);
width = 566;
},
{
associatedMasterId = m002;
layerId = "D28564E1-1AB5-4170-BEC2-A5DA884E5545";
name = ref;
shapes = (
{
alignment = -1;
ref = g;
}
);
width = 566;
},
{
associatedMasterId = m002;
layerId = "ED9F07C1-ABDA-4F51-8A30-372F07A128E3";
name = cap;
shapes = (
{
alignment = -1;
pos = (-17,0);
ref = G;
scale = (0.8247,0.7477);
}
);
visible = 1;
width = 482;
}
);
},
{
glyphname = h.sc;
kernLeft = LxB;
kernRight = h;
lastChange = "2024-05-29 00:36:21 +0000";
layers = (
{
layerId = m002;
shapes = (
{
closed = 1;
nodes = (
(224,207,o),
(411,240,o),
(411,323,cs),
(411,341,o),
(409,344,o),
(399,342,cs),
(367,333,o),
(331,330,o),
(306,330,cs),
(295,330,o),
(296,324,o),
(302,321,cs),
(311,315,o),
(326,305,o),
(326,283,cs),
(326,249,o),
(210,208,o),
(173,204,c),
(173,170,l)
);
},
{
closed = 1;
nodes = (
(434,204,o),
(400,196,o),
(351,196,c),
(367,178,o),
(372,152,o),
(372,134,cs),
(372,74,o),
(311,-8,o),
(267,-36,cs),
(260,-41,o),
(262,-45,o),
(272,-42,cs),
(349,-18,o),
(469,71,o),
(469,153,cs),
(469,179,o),
(460,204,o),
(445,204,cs)
);
},
{
alignment = -1;
piece = {
leftSerif = 100;
length = 80.56819;
rightSerif = 100;
};
pos = (-122,-75);
ref = _smart.horizontalBar;
},
{
alignment = -1;
piece = {
height_l = 44.00267;
};
pos = (2,-140);
ref = _smart.verticalBar;
}
);
width = 499;
},
{
associatedMasterId = m002;
layerId = "34172E80-38EE-4506-B278-C4ECA1B500C3";
name = ref;
shapes = (
{
alignment = -1;
ref = h;
}
);
width = 499;
},
{
associatedMasterId = m002;
layerId = "303BC838-356C-4064-8237-13365E9095EF";
name = cap;
shapes = (
{
alignment = -1;
pos = (54,-11);
ref = H;
scale = (0.8291,0.7633);
}
);
visible = 1;
width = 552;
}
);
},
{
glyphname = j.sc;
kernLeft = "LxB-x";
kernRight = j;
lastChange = "2024-05-29 00:37:30 +0000";
layers = (
{
anchors = (
{
name = top;
pos = (187,360);
}
);
layerId = m002;
shapes = (
{
alignment = -1;
piece = {
leftSerif = 0;
length = 77.49605;
rightSerif = 0;
};
pos = (-198,-76);
ref = _smart.horizontalBar;
},
{
closed = 1;
nodes = (
(148,133,ls),
(148,13,o),
(213,-29,o),
(345,-29,cs),
(451,-29,o),
(514,65,o),
(529,93,cs),
(533,100,o),
(528,107,o),
(523,102,cs),
(485,66,o),
(434,28,o),
(352,28,cs),
(239,28,o),
(235,100,o),
(235,188,cs),
(235,264,l),
(148,207,l)
);
},
{
piece = {
height_l = 9.3055;
};
pos = (53,-140);
ref = _smart.verticalBar.noEndSerif;
}
);
width = 550;
},
{
associatedMasterId = m002;
layerId = "906943BE-CB19-4AB2-B5E2-65A8B24BA002";
name = ref;
shapes = (
{
alignment = -1;
ref = j;
}
);
width = 550;
},
{
associatedMasterId = m002;
layerId = "BA69FA60-D5C9-4B3B-941B-C577E991511B";
name = cap;
shapes = (
{
alignment = -1;
pos = (62,-8);
ref = J;
scale = (0.8061,0.757);
}
);
visible = 1;
width = 660;
}
);
},
{
glyphname = k.sc;
kernLeft = k;
kernRight = k;
lastChange = "2024-05-29 00:37:43 +0000";
layers = (
{
anchors = (
{
name = bottom;
pos = (267,0);
}
);
layerId = m002;
shapes = (
{
closed = 1;
nodes = (
(97,192,o),
(97,129,o),
(95,123,cs),
(94,118,o),
(97,116,o),
(104,126,cs),
(163,206,o),
(239,304,o),
(312,304,cs),
(343,304,o),
(382,287,o),
(382,240,cs),
(382,198,o),
(352,182,o),
(321,182,cs),
(310,182,o),
(313,214,o),
(287,199,cs),
(231,166,o),
(214,168,o),
(214,161,cs),
(214,155,o),
(234,164,o),
(234,103,cs),
(234,-10,o),
(302,-38,o),
(394,-38,cs),
(410,-38,o),
(416,-33,o),
(399,-28,cs),
(372,-19,o),
(321,-22,o),
(321,85,cs),
(321,135,l),
(383,151,o),
(475,163,o),
(475,257,cs),
(475,319,o),
(436,362,o),
(365,362,cs),
(235,362,o),
(115,219,o),
(97,207,c)
);
},
{
alignment = -1;
piece = {
height_l = 6.20538;
};
pos = (2,-140);
ref = _smart.verticalBar.noEndSerif;
}
);
width = 495;
},
{
associatedMasterId = m002;
layerId = "576409C8-CC10-4AFD-B618-40BAEB2CAF2A";
name = ref;
shapes = (
{
alignment = -1;
ref = k;
}
);
width = 495;
},
{
associatedMasterId = m002;
layerId = "E2A1766E-87F1-4060-BB5F-E97AEB6B64FF";
name = cap;
shapes = (
{
alignment = -1;
pos = (53,-4);
ref = K;
scale = (0.8527,0.7491);
}
);
visible = 1;
width = 562;
}
);
},
{
glyphname = l.sc;
kernLeft = "LxB-x";
kernRight = l;
lastChange = "2024-05-29 00:38:43 +0000";
layers = (
{
anchors = (
{
name = bottom;
pos = (239,-4);
},
{
name = top;
pos = (229,335);
}
);
hints = (
{
name = _corner.a;
origin = (0,1);
type = Corner;
}
);
layerId = m002;
shapes = (
{
closed = 1;
nodes = (
(96,35,l),
(39,-21,l),
(327,-21,l),
(359,-21,o),
(455,70,o),
(455,76,cs),
(455,80,o),
(430,62,o),
(398,47,cs),
(374,36,o),
(289,35,o),
(277,35,c)
);
},
{
alignment = -1;
piece = {
length = 69.74132;
};
pos = (-150,-74);
ref = _smart.horizontalBar;
},
{
piece = {
height_l = 38.94039;
};
pos = (98,-140);
ref = _smart.verticalBar.noEndSerif;
}
);
width = 475;
},
{
associatedMasterId = m002;
layerId = "CF16591C-CABC-4AD3-83A8-4473726D6B38";
name = ref;
shapes = (
{
alignment = -1;
ref = l;
}
);
width = 443;
},
{
associatedMasterId = m002;
layerId = "4285AC4A-6F87-4595-8F0E-DA5CFD4B83DF";
name = cap;
shapes = (
{
alignment = -1;
pos = (20,-7);
ref = L;
scale = (0.8797,0.7503);
}
);
visible = 1;
width = 534;
}
);
},
{
glyphname = m.sc;
kernLeft = m;
kernRight = m;
lastChange = "2024-05-29 00:39:30 +0000";
layers = (
{
layerId = m002;
shapes = (
{
closed = 1;
nodes = (
(368,177,l),
(379,195,o),
(397,208,o),
(418,208,cs),
(447,208,o),
(477,164,o),
(504,121,cs),
(572,11,o),
(579,-29,o),
(627,-29,cs),
(683,-29,o),
(724,27,o),
(732,51,cs),
(734,57,o),
(731,63,o),
(726,57,cs),
(712,37,o),
(698,31,o),
(688,31,cs),
(649,31,o),
(600,118,o),
(559,176,cs),
(525,223,o),
(506,262,o),
(464,262,cs),
(414,262,o),
(373,208,o),
(362,191,c)
);
},
{
closed = 1;
nodes = (
(174,173,l),
(202,200,o),
(178,227,o),
(209,227,cs),
(247,227,o),
(280,185,o),
(322,114,cs),
(345,74,o),
(408,-29,o),
(462,-29,cs),
(509,-29,o),
(561,50,o),
(561,81,c),
(546,51,o),
(519,31,o),
(501,31,cs),
(463,31,o),
(411,122,o),
(390,155,cs),
(335,245,o),
(293,263,o),
(264,262,cs),
(223,261,o),
(167,222,o),
(151,194,c)
);
},
{
alignment = -1;
piece = {
length = 63.58929;
};
pos = (-190,-236);
ref = _smart.horizontalBar;
},
{
piece = {
height_l = 38.93465;
};
pos = (45,-140);
ref = _smart.verticalBar.noEndSerif;
}
);
width = 775;
},
{
associatedMasterId = m002;
layerId = "D98F2246-527A-487F-AE79-57F026D67303";
name = ref;
shapes = (
{
alignment = -1;
ref = m;
}
);
width = 775;
},
{
associatedMasterId = m002;
layerId = "8294FFD8-98F7-468A-9B3D-BA08D15F9F60";
name = cap;
shapes = (
{
alignment = -1;
pos = (22,-7);
ref = M;
scale = (0.881,0.7791);
}
);
visible = 1;
width = 775;
}
);
},
{
glyphname = oe.sc;
kernLeft = o;
kernRight = e;
lastChange = "2024-05-29 01:02:17 +0000";
layers = (
{
anchors = (
{
name = top;
pos = (520,364);
}
);
layerId = m002;
shapes = (
{
pos = (1,0);
ref = o;
scale = (0.9471,1);
},
{
closed = 1;
nodes = (
(318,186,o),
(324,190,o),
(329,194,c),
(381,221,l),
(381,263,o),
(433,323,o),
(495,323,cs),
(555,323,o),
(611,267,o),
(611,164,cs),
(611,62,o),
(556,12,o),
(487,12,cs),
(430,12,o),
(410,47,o),
(397,55,cs),
(395,56,o),
(388,47,o),
(378,37,cs),
(369,28,o),
(353,16,o),
(353,15,cs),
(353,8,o),
(403,-21,o),
(464,-21,cs),
(546,-21,o),
(705,30,o),
(705,171,cs),
(705,259,o),
(643,355,o),
(521,355,cs),
(381,355,o),
(332,228,o),
(322,198,cs)
);
},
{
alignment = -1;
piece = {
length = 103.4617;
rightSerif = 0;
};
pos = (197,-86);
ref = _smart.horizontalBar;
}
);
width = 846;
},
{
associatedMasterId = m002;
layerId = "F90741A6-CB86-49BB-B156-7D4EF98955D9";
name = ref;
shapes = (
{
alignment = -1;
pos = (-212,0);
ref = o;
},
{
pos = (76,0);
ref = e;
}
);
width = 428;
}
);
metricLeft = o.sc;
metricRight = e.sc;
},
{
glyphname = p.sc;
kernLeft = LxB;
kernRight = p;
lastChange = "2024-05-29 01:02:40 +0000";
layers = (
{
layerId = m002;
shapes = (
{
closed = 1;
nodes = (
(97,129,l),
(97,-15,o),
(232,-30,o),
(292,-30,cs),
(362,-30,o),
(528,23,o),
(528,146,cs),
(528,234,o),
(444,261,o),
(430,261,cs),
(409,261,o),
(256,208,o),
(256,200,cs),
(256,191,o),
(274,195,o),
(274,177,c),
(291,181,o),
(333,210,o),
(358,210,cs),
(379,210,o),
(443,191,o),
(443,124,cs),
(443,94,o),
(431,-8,o),
(324,-8,cs),
(193,-8,o),
(184,97,o),
(184,181,c)
);
},
{
closed = 1;
nodes = (
(274,-16,l),
(361,-14,l),
(361,226,l),
(274,187,l)
);
},
{
alignment = -1;
piece = {
height_l = 14.82678;
};
pos = (2,-140);
ref = _smart.verticalBar.noEndSerif;
}
);
width = 548;
},
{
associatedMasterId = m002;
layerId = "5AC523DC-3BAF-4CCA-8E60-F732748CDB19";
name = ref;
shapes = (
{
alignment = -1;
ref = p;
}
);
width = 548;
},
{
associatedMasterId = m002;
layerId = "E092F6EF-45BB-4603-9027-6AFAA9B629A2";
name = cap;
shapes = (
{
alignment = -1;
pos = (86,-9);
ref = P;
scale = (0.7875,0.7316);
}
);
visible = 1;
width = 658;
}
);
},
{
glyphname = q.sc;
kernLeft = o;
kernRight = RxB;
lastChange = "2024-05-29 01:02:53 +0000";
layers = (
{
layerId = m002;
shapes = (
{
closed = 1;
nodes = (
(122,261,o),
(19,232,o),
(19,137,cs),
(19,72,o),
(68,41,o),
(128,41,c),
(128,-2,o),
(84,-15,o),
(43,-29,cs),
(35,-32,o),
(33,-35,o),
(42,-35,cs),
(143,-35,o),
(212,17,o),
(212,90,cs),
(212,139,o),
(180,100,o),
(147,100,cs),
(122,100,o),
(108,124,o),
(108,154,cs),
(108,213,o),
(163,229,o),
(191,229,cs),
(248,229,o),
(321,164,o),
(321,109,cs),
(321,67,l),
(408,104,l),
(408,104,ls),
(408,135,o),
(325,261,o),
(188,261,cs)
);
},
{
alignment = -1;
piece = {
height_l = 43.95148;
};
pos = (226,-140);
ref = _smart.verticalBar;
}
);
width = 433;
},
{
associatedMasterId = m002;
layerId = "21BD24D7-C71C-442E-A5EF-00CFF149AB98";
name = ref;
shapes = (
{
alignment = -1;
ref = q;
}
);
width = 433;
},
{
associatedMasterId = m002;
layerId = "B2E464BA-1DC0-45DC-B175-21EEB610BABE";
name = cap;
shapes = (
{
alignment = -1;
pos = (18,1);
ref = Q;
scale = (0.8492,0.7588);
}
);
visible = 1;
width = 491;
}
);
},
{
glyphname = r.sc;
kernLeft = LxB;
kernRight = o;
lastChange = "2024-05-29 01:02:58 +0000";
layers = (
{
anchors = (
{
name = bottom;
pos = (287,-18);
},
{
name = top;
pos = (312,325);
}
);
layerId = m002;
shapes = (
{
alignment = -1;
piece = {
height_l = 44.04555;
};
pos = (2,-140);
ref = _smart.verticalBar;
},
{
closed = 1;
nodes = (
(327,-35,o),
(472,30,o),
(501,63,cs),
(507,70,o),
(506,75,o),
(496,70,cs),
(430,40,o),
(357,16,o),
(309,16,c),
(285,-35,l)
);
},
{
closed = 1;
nodes = (
(173,156,l),
(183,202,o),
(240,246,o),
(312,246,cs),
(354,246,o),
(396,231,o),
(396,194,cs),
(396,134,o),
(283,104,o),
(257,97,cs),
(250,95,o),
(250,90,o),
(259,89,cs),
(396,70,o),
(500,143,o),
(500,222,cs),
(500,289,o),
(425,305,o),
(375,305,cs),
(300,305,o),
(212,268,o),
(173,246,c)
);
},
{
closed = 1;
nodes = (
(285,-35,l),
(372,13,l),
(372,116,l),
(285,89,l)
);
}
);
width = 531;
},
{
associatedMasterId = m002;
layerId = "D5F3A2E6-0368-4720-AC94-143C530F90B4";
name = ref;
shapes = (
{
alignment = -1;
ref = r;
}
);
width = 541;
},
{
associatedMasterId = m002;
layerId = "7216F8C5-6B56-4672-A436-9ABF3AD9C7F3";
name = cap;
shapes = (
{
alignment = -1;
pos = (4,0);
ref = R;
}
);
visible = 1;
width = 550;
}
);
},
{
glyphname = t.sc;
kernLeft = t;
kernRight = RxB;
lastChange = "2024-05-29 01:03:38 +0000";
layers = (
{
anchors = (
{
name = bottom;
pos = (255,0);
},
{
name = ogonek;
pos = (422,0);
},
{
name = top;
pos = (234,301);
}
);
layerId = m002;
shapes = (
{
closed = 1;
nodes = (
(25,108,o),
(37,101,o),
(47,109,cs),
(114,161,o),
(179,184,o),
(222,184,cs),
(288,184,o),
(335,153,o),
(335,109,cs),
(335,51,l),
(422,100,l),
(422,153,ls),
(422,194,o),
(361,236,o),
(265,236,cs),
(120,236,o),
(59,152,o),
(32,117,cs)
);
},
{
alignment = -1;
piece = {
height_l = 44.04555;
};
pos = (240,-140);
ref = _smart.verticalBar;
}
);
width = 447;
},
{
associatedMasterId = m002;
layerId = "1823AEB9-2333-400F-861F-F9160B488C0D";
name = ref;
shapes = (
{
alignment = -1;
ref = t;
}
);
width = 447;
},
{
associatedMasterId = m002;
layerId = "2F02BE0A-D28A-417F-8F71-4408BD2C17E2";
name = cap;
shapes = (
{
ref = T;
scale = (0.9026,0.7414);
}
);
visible = 1;
width = 434;
}
);
},
{
glyphname = y.sc;
kernLeft = LxB;
kernRight = y;
lastChange = "2024-05-29 01:04:15 +0000";
layers = (
{
anchors = (
{
name = top;
pos = (258,368);
}
);
layerId = m002;
shapes = (
{
closed = 1;
nodes = (
(392,234,o),
(391,193,o),
(364,181,c),
(382,172,l),
(429,197,o),
(481,261,o),
(481,296,cs),
(481,345,o),
(395,372,o),
(375,372,cs),
(351,372,o),
(291,332,o),
(268,309,cs),
(252,292,o),
(260,289,o),
(276,299,cs),
(283,303,o),
(312,319,o),
(351,308,cs),
(355,307,o),
(392,297,o),
(392,243,cs)
);
},
{
closed = 1;
nodes = (
(318,24,o),
(284,36,o),
(275,39,cs),
(255,45,o),
(249,40,o),
(266,29,cs),
(297,10,o),
(317,-31,o),
(368,-31,cs),
(416,-31,o),
(486,6,o),
(486,52,cs),
(486,126,o),
(302,243,o),
(159,325,c),
(159,294,l),
(183,299,o),
(261,243,o),
(309,206,cs),
(420,119,o),
(378,45,o),
(341,32,cs)
);
},
{
alignment = -1;
ref = i;
}
);
width = 516;
},
{
associatedMasterId = m002;
layerId = "2BC0E64A-30E4-4687-9DE2-F0325FE87007";
name = ref;
shapes = (
{
alignment = -1;
ref = y;
}
);
width = 516;
},
{
anchors = (
{
name = top;
pos = (258,368);
}
);
associatedMasterId = m002;
layerId = "B18CE0F0-FFE3-4879-93A2-38D207F98D7C";
name = cap;
shapes = (
{
alignment = -1;
pos = (8,0);
ref = Y;
scale = (0.7698,0.7414);
}
);
visible = 1;
width = 463;
}
);
},
{
glyphname = one;
lastChange = "2024-05-28 22:57:59 +0000";
layers = (
{
backgroundImage = {
imagePath = "../reference/@Celes/1.png";
locked = 1;
pos = (-249,-368);
scale = (23.4222,23.4222);
};
layerId = m002;
shapes = (
{
closed = 1;
nodes = (
(170,211,l),
(257,211,l),
(257,270,ls),
(257,335,o),
(299,364,o),
(353,364,cs),
(441,364,o),
(488,285,o),
(507,243,cs),
(510,236,o),
(513,238,o),
(517,244,cs),
(532,265,o),
(570,295,o),
(593,308,cs),
(596,310,o),
(599,312,o),
(595,316,cs),
(566,347,o),
(498,409,o),
(386,409,cs),
(268,409,o),
(170,340,o),
(170,269,cs)
);
},
{
closed = 1;
nodes = (
(170,30,ls),
(170,-23,o),
(83,-84,o),
(22,-101,cs),
(14,-103,o),
(10,-110,o),
(27,-110,cs),
(88,-110,o),
(257,-90,o),
(257,30,cs),
(257,132,l),
(170,75,l)
);
},
{
piece = {
height_l = 49.20374;
};
pos = (75,0);
ref = _smart.verticalBar.noEndSerif;
}
);
width = 630;
},
{
associatedMasterId = m002;
backgroundImage = {
imagePath = "../reference/@Celes/1.png";
locked = 1;
pos = (-249,-368);
scale = (23.4222,23.4222);
};
layerId = "6262C85D-2FBE-4075-8CBD-385A346A7753";
name = ref;
shapes = (
{
alignment = -1;
pos = (75,0);
ref = _smart.verticalBar;
}
);
visible = 1;
width = 630;
}
);
unicode = 49;
},
{
glyphname = four;
lastChange = "2024-05-23 00:22:45 +0000";
layers = (
{
backgroundImage = {
imagePath = "../reference/@Celes/4.png";
locked = 1;
pos = (-202,-322);
scale = (22.8444,22.8444);
};
layerId = m002;
shapes = (
{
alignment = -1;
piece = {
length = 140.43855;
rightSerif = 100;
};
pos = (-192,-250);
ref = _smart.horizontalBar;
},
{
closed = 1;
nodes = (
(548,28,o),
(346,489,o),
(206,489,cs),
(131,489,o),
(30,394,o),
(30,269,cs),
(30,239,o),
(52,191,o),
(68,184,cs),
(76,180,o),
(78,184,o),
(81,189,cs),
(88,207,o),
(105,243,o),
(123,264,cs),
(125,266,o),
(134,278,o),
(128,283,cs),
(117,290,o),
(94,303,o),
(94,346,cs),
(94,378,o),
(131,435,o),
(165,435,cs),
(237,435,o),
(399,123,o),
(456,8,c),
(456,-35,l),
(477,-35,l),
(496,-17,o),
(497,-10,o),
(517,7,cs),
(538,25,o),
(552,31,o),
(552,31,c)
);
},
{
piece = {
length = 88.93125;
};
pos = (-19,-14);
ref = _smart.horizontalBar;
}
);
width = 600;
}
);
unicode = 52;
},
{
glyphname = five;
lastChange = "2024-05-28 22:58:41 +0000";
layers = (
{
backgroundImage = {
imagePath = "../reference/@Celes/5.png";
locked = 1;
pos = (-280,-337);
scale = (23.4222,23.4222);
};
layerId = m002;
shapes = (
{
closed = 1;
nodes = (
(390,265,l),
(160,139,o),
(30,61,o),
(30,-22,cs),
(30,-58,o),
(49,-72,o),
(65,-80,c),
(88,-71,o),
(146,-49,o),
(176,-49,cs),
(183,-49,o),
(183,-45,o),
(176,-41,cs),
(151,-27,o),
(143,-15,o),
(151,20,cs),
(167,88,o),
(242,147,o),
(390,226,c)
);
},
{
piece = {
height_l = 69.85173;
};
pos = (273,0);
ref = _smart.verticalBar;
}
);
width = 480;
},
{
associatedMasterId = m002;
backgroundImage = {
imagePath = "../reference/@Celes/5.png";
locked = 1;
pos = (-280,-337);
scale = (23.4222,23.4222);
};
layerId = "1F4051BA-1E8B-42AE-8C98-DE8A484603F7";
name = ref;
shapes = (
{
alignment = -1;
pos = (273,0);
ref = _smart.verticalBar;
}
);
visible = 1;
width = 480;
}
);
unicode = 53;
},
{
glyphname = six;
lastChange = "2024-05-23 00:23:20 +0000";
layers = (
{
backgroundImage = {
imagePath = "../reference/@Celes/6.png";
locked = 1;
pos = (-205,-287);
scale = (21.9555,21.9555);
};
layerId = m002;
shapes = (
{
alignment = -1;
piece = {
leftSerif = 100;
length = 140.43855;
rightSerif = 0;
};
pos = (-202,-250);
ref = _smart.horizontalBar;
},
{
closed = 1;
nodes = (
(478,233,o),
(545,285,o),
(545,374,cs),
(545,435,o),
(494,479,o),
(452,479,cs),
(393,479,o),
(347,456,o),
(309,398,cs),
(30,-34,l),
(78,-34,l),
(335,364,ls),
(357,398,o),
(371,404,o),
(386,404,cs),
(407,404,o),
(430,395,o),
(452,360,cs),
(485,308,o),
(461,245,o),
(436,209,cs),
(428,196,o),
(434,193,o),
(439,197,cs)
);
},
{
piece = {
length = 83.77399;
};
pos = (-186,-15);
ref = _smart.horizontalBar;
}
);
width = 570;
}
);
unicode = 54;
},
{
glyphname = seven;
lastChange = "2024-05-28 22:58:59 +0000";
layers = (
{
backgroundImage = {
imagePath = "../reference/@Celes/7.png";
locked = 1;
pos = (-218,-269);
scale = (21.9555,21.9555);
};
layerId = m002;
shapes = (
{
closed = 1;
nodes = (
(153,23,l),
(175,-17,o),
(223,-40,o),
(274,-40,cs),
(335,-40,o),
(421,49,o),
(421,114,cs),
(421,199,o),
(349,223,o),
(304,223,cs),
(272,223,o),
(184,144,o),
(184,144,c)
);
},
{
closed = 1;
nodes = (
(184,107,l),
(258,160,ls),
(274,172,o),
(339,155,o),
(339,50,cs),
(339,13,o),
(318,-9,o),
(288,-9,cs),
(270,-9,o),
(184,50,o),
(184,99,c)
);
},
{
pos = (2,0);
ref = _smart.verticalBar;
}
);
width = 450;
},
{
associatedMasterId = m002;
backgroundImage = {
imagePath = "../reference/@Celes/7.png";
locked = 1;
pos = (-218,-269);
scale = (21.9555,21.9555);
};
layerId = "01E71610-E732-45F4-8BA9-F2BCB8A4C9D6";
name = ref;
shapes = (
{
alignment = -1;
pos = (2,0);
ref = _smart.verticalBar;
}
);
width = 450;
}
);
unicode = 55;
},
{
glyphname = one.osf;
lastChange = "2024-05-23 00:20:43 +0000";
layers = (
{
layerId = m002;
shapes = (
{
closed = 1;
nodes = (
(144,-26,ls),
(144,-101,o),
(83,-170,o),
(22,-187,cs),
(14,-189,o),
(10,-196,o),
(27,-196,cs),
(88,-196,o),
(231,-130,o),
(231,0,cs),
(231,93,l),
(144,30,l)
);
},
{
closed = 1;
nodes = (
(144,109,l),
(231,109,l),
(231,168,ls),
(231,233,o),
(264,281,o),
(321,281,cs),
(397,281,o),
(435,195,o),
(455,155,cs),
(458,150,o),
(461,151,o),
(464,155,cs),
(478,174,o),
(509,197,o),
(526,211,cs),
(529,214,o),
(538,219,o),
(534,224,cs),
(513,250,o),
(445,313,o),
(338,313,cs),
(231,313,o),
(144,250,o),
(144,167,cs)
);
},
{
piece = {
height_l = 37.23229;
};
pos = (49,-133);
ref = _smart.verticalBar.noEndSerif;
}
);
width = 550;
}
);
},
{
glyphname = four.osf;
lastChange = "2024-05-23 00:27:31 +0000";
layers = (
{
layerId = m002;
shapes = (
{
alignment = -1;
piece = {
length = 102.13054;
rightSerif = 100;
};
pos = (-188,-262);
ref = _smart.horizontalBar;
},
{
closed = 1;
nodes = (
(419,68,o),
(268,370,o),
(159,370,cs),
(108,370,o),
(30,296,o),
(30,201,cs),
(30,178,o),
(40,148,o),
(60,135,cs),
(66,131,o),
(69,135,o),
(71,139,cs),
(75,153,o),
(89,178,o),
(102,196,cs),
(106,202,o),
(110,205,o),
(106,212,cs),
(99,224,o),
(89,234,o),
(89,260,cs),
(89,277,o),
(106,328,o),
(143,328,cs),
(174,328,o),
(340,49,o),
(359,-1,c),
(359,-47,l),
(372,-47,l),
(386,-34,o),
(395,-25,o),
(413,-12,cs),
(430,1,o),
(450,9,o),
(450,9,c)
);
},
{
piece = {
length = 88.19333;
};
pos = (-84,-95);
ref = _smart.horizontalBar;
}
);
width = 530;
}
);
},
{
glyphname = five.osf;
lastChange = "2024-05-28 21:30:52 +0000";
layers = (
{
layerId = m002;
shapes = (
{
closed = 1;
nodes = (
(362,171,l),
(150,54,o),
(30,-23,o),
(30,-89,cs),
(30,-123,o),
(47,-136,o),
(62,-143,c),
(83,-135,o),
(132,-117,o),
(156,-114,cs),
(163,-113,o),
(163,-111,o),
(156,-107,cs),
(133,-94,o),
(126,-83,o),
(133,-51,cs),
(151,29,o),
(248,84,o),
(362,145,c)
);
},
{
piece = {
height_l = 45.25926;
};
pos = (236,-132);
ref = _smart.verticalBar;
}
);
width = 450;
}
);
},
{
glyphname = six.osf;
lastChange = "2024-05-23 00:28:12 +0000";
layers = (
{
layerId = m002;
shapes = (
{
closed = 1;
nodes = (
(494,201,o),
(473,375,o),
(362,376,cs),
(315,376,o),
(283,342,o),
(243,281,cs),
(31,-47,l),
(79,-47,l),
(273,254,ls),
(307,307,o),
(318,316,o),
(340,316,cs),
(404,316,o),
(405,215,o),
(366,158,cs),
(359,148,o),
(365,148,o),
(368,149,cs)
);
},
{
alignment = -1;
piece = {
leftSerif = 100;
length = 102.13054;
rightSerif = 0;
};
pos = (-206,-262);
ref = _smart.horizontalBar;
},
{
piece = {
length = 63.84207;
};
pos = (-183,-119);
ref = _smart.horizontalBar;
}
);
width = 490;
}
);
},
{
glyphname = seven.osf;
lastChange = "2024-05-23 00:28:22 +0000";
layers = (
{
guides = (
{
pos = (13,365);
}
);
layerId = m002;
shapes = (
{
closed = 1;
nodes = (
(148,-119,l),
(170,-159,o),
(218,-182,o),
(269,-182,cs),
(330,-182,o),
(416,-93,o),
(416,-28,cs),
(416,57,o),
(344,81,o),
(299,81,cs),
(267,81,o),
(179,2,o),
(179,2,c)
);
},
{
closed = 1;
nodes = (
(179,-35,l),
(253,18,ls),
(269,30,o),
(334,13,o),
(334,-92,cs),
(334,-129,o),
(313,-151,o),
(283,-151,cs),
(265,-151,o),
(179,-92,o),
(179,-43,c)
);
},
{
pos = (-3,-133);
ref = _smart.verticalBar;
}
);
width = 450;
}
);
},
{
glyphname = .notdef;
layers = (
{
layerId = m002;
shapes = (
{
closed = 1;
nodes = (
(79,130,l),
(62,147,o),
(52,169,o),
(52,197,cs),
(52,225,o),
(63,250,o),
(79,271,c),
(79,532,l),
(421,532,l),
(421,241,l),
(448,251,o),
(470,250,o),
(470,223,cs),
(470,214,o),
(449,192,o),
(421,166,c),
(421,-58,l),
(302,-58,l),
(288,-71,o),
(269,-81,o),
(248,-81,cs),
(232,-81,o),
(214,-71,o),
(199,-58,c),
(79,-58,l)
);
},
{
pos = (23,-49);
ref = question;
scale = (1.1,1.1);
}
);
width = 500;
},
{
associatedMasterId = m002;
layerId = "D242005A-CF50-4FBF-8028-CB84BF55882F";
name = "May 23, 24 at 23:55";
shapes = (
{
pos = (23,-49);
ref = question;
scale = (1.1,1.1);
},
{
closed = 1;
nodes = (
(421,532,l),
(421,-58,l),
(79,-58,l),
(79,532,l)
);
}
);
width = 500;
}
);
},
{
glyphname = period;
lastChange = "2024-05-23 05:21:31 +0000";
layers = (
{
layerId = m002;
shapes = (
{
closed = 1;
nodes = (
(115,-14,o),
(145,34,o),
(145,49,cs),
(145,56,o),
(123,63,o),
(109,76,cs),
(95,89,o),
(88,104,o),
(83,104,cs),
(60,104,o),
(19,60,o),
(19,41,cs),
(19,31,o),
(68,-14,o),
(83,-14,cs)
);
}
);
width = 179;
}
);
unicode = 46;
},
{
glyphname = comma;
lastChange = "2024-05-23 05:46:13 +0000";
layers = (
{
layerId = m002;
shapes = (
{
closed = 1;
nodes = (
(74,0,c),
(79,-23,o),
(56,-41,o),
(28,-72,cs),
(19,-82,o),
(20,-91,o),
(32,-85,cs),
(109,-46,o),
(145,8,o),
(145,50,cs),
(145,64,o),
(128,67,o),
(111,79,cs),
(96,91,o),
(85,103,o),
(80,103,cs),
(71,103,o),
(13,64,o),
(13,53,cs),
(13,32,o),
(63,13,o)
);
}
);
width = 200;
}
);
unicode = 44;
},
{
glyphname = exclam;
lastChange = "2024-05-23 05:56:58 +0000";
layers = (
{
layerId = m002;
shapes = (
{
pos = (65,0);
ref = period;
scale = (0.75,0.75);
},
{
closed = 1;
nodes = (
(91,150,l),
(91,131,o),
(81,119,o),
(86,119,cs),
(102,119,o),
(149,159,o),
(164,184,cs),
(197,240,o),
(252,289,o),
(252,297,cs),
(252,309,o),
(197,260,o),
(170,229,c),
(170,451,l),
(170,476,o),
(161,492,o),
(143,492,cs),
(135,492,o),
(121,476,o),
(100,460,cs),
(70,437,o),
(48,432,o),
(48,427,cs),
(48,413,o),
(91,433,o),
(91,374,c)
);
}
);
width = 280;
},
{
associatedMasterId = m002;
layerId = "46C615B2-4C49-48A9-8699-EA7FB499A67F";
name = ref;
shapes = (
{
pos = (35,0);
ref = period;
scale = (0.75,0.75);
},
{
closed = 1;
nodes = (
(24,516,o),
(15,530,o),
(25,533,cs),
(41,537,o),
(112,552,o),
(124,555,cs),
(140,559,o),
(146,554,o),
(144,538,cs),
(135,477,o),
(135,249,o),
(103,146,cs),
(82,79,o),
(73,113,o),
(73,144,cs),
(73,255,o),
(38,473,o),
(29,501,cs)
);
}
);
visible = 1;
width = 184;
}
);
unicode = 33;
},
{
glyphname = exclamdown;
lastChange = "2024-05-23 05:59:41 +0000";
layers = (
{
layerId = m002;
shapes = (
{
pos = (114,260);
ref = period;
scale = (0.75,0.75);
},
{
closed = 1;
nodes = (
(209,177,l),
(209,196,o),
(219,208,o),
(214,208,cs),
(198,208,o),
(151,168,o),
(136,143,cs),
(103,87,o),
(48,38,o),
(48,30,cs),
(48,18,o),
(103,67,o),
(130,98,c),
(130,-124,l),
(130,-149,o),
(139,-165,o),
(157,-165,cs),
(165,-165,o),
(179,-149,o),
(200,-133,cs),
(230,-110,o),
(252,-105,o),
(252,-100,cs),
(252,-86,o),
(209,-106,o),
(209,-47,c)
);
}
);
width = 280;
}
);
unicode = 161;
},
{
glyphname = question;
lastChange = "2024-05-24 04:04:02 +0000";
layers = (
{
layerId = m002;
shapes = (
{
pos = (143,0);
ref = period;
scale = (0.75,0.75);
},
{
closed = 1;
nodes = (
(108,404,o),
(167,459,o),
(182,459,cs),
(203,459,o),
(218,450,o),
(218,432,cs),
(218,366,o),
(54,324,o),
(54,224,cs),
(54,154,o),
(135,129,o),
(226,129,cs),
(254,129,o),
(379,235,o),
(379,247,cs),
(379,267,o),
(283,178,o),
(248,178,cs),
(203,178,o),
(144,185,o),
(144,221,cs),
(144,282,o),
(308,354,o),
(308,448,cs),
(308,476,o),
(294,500,o),
(199,500,cs),
(187,500,o),
(108,433,o),
(108,420,cs)
);
}
);
width = 430;
},
{
associatedMasterId = m002;
layerId = "C504050C-B0C6-46CC-8FCA-5E7E2F21E28B";
name = ref;
shapes = (
{
pos = (111,0);
ref = period;
scale = (0.75,0.75);
},
{
closed = 1;
nodes = (
(20,349,o),
(27,358,o),
(35,368,cs),
(44,378,o),
(58,391,o),
(85,408,cs),
(93,413,o),
(95,419,o),
(93,426,cs),
(66,533,o),
(200,572,o),
(236,471,cs),
(276,358,o),
(155,255,o),
(155,158,cs),
(155,91,o),
(174,129,o),
(179,145,cs),
(220,275,o),
(331,364,o),
(331,453,cs),
(331,542,o),
(282,572,o),
(200,572,cs),
(155,572,o),
(20,560,o),
(20,368,cs)
);
}
);
width = 371;
}
);
unicode = 63;
},
{
glyphname = questiondown;
lastChange = "2024-05-23 06:01:02 +0000";
layers = (
{
layerId = m002;
shapes = (
{
pos = (165,260);
ref = period;
scale = (0.75,0.75);
},
{
closed = 1;
nodes = (
(322,-104,o),
(243,-171,o),
(231,-171,cs),
(136,-171,o),
(122,-147,o),
(122,-119,cs),
(122,-25,o),
(286,47,o),
(286,108,cs),
(286,144,o),
(227,151,o),
(182,151,cs),
(147,151,o),
(51,62,o),
(51,82,cs),
(51,94,o),
(176,200,o),
(204,200,cs),
(295,200,o),
(376,175,o),
(376,105,cs),
(376,5,o),
(212,-37,o),
(212,-103,cs),
(212,-121,o),
(227,-130,o),
(248,-130,cs),
(263,-130,o),
(322,-75,o),
(322,-91,cs)
);
}
);
width = 430;
},
{
associatedMasterId = m002;
layerId = "758177E5-1940-44CE-8A88-8C38593C085C";
name = "May 23, 24 at 01:59";
shapes = (
{
pos = (111,260);
ref = period;
scale = (0.75,0.75);
},
{
closed = 1;
nodes = (
(-10,-220,o),
(99,-237,o),
(140,-237,cs),
(205,-237,o),
(331,-193,o),
(331,-98,cs),
(331,-4,o),
(210,62,o),
(180,182,cs),
(175,203,o),
(167,222,o),
(160,193,cs),
(132,77,o),
(302,-42,o),
(220,-162,cs),
(153,-260,o),
(41,-176,o),
(98,-39,cs),
(110,-11,o),
(111,-10,o),
(85,-17,cs),
(67,-22,o),
(51,-28,o),
(43,-31,cs),
(23,-40,o),
(24,-50,o),
(19,-74,cs)
);
}
);
width = 371;
}
);
unicode = 191;
},
{
glyphname = numbersign;
lastChange = "2024-05-16 03:18:20 +0000";
layers = (
{
layerId = m002;
shapes = (
{
closed = 1;
nodes = (
(110,-15,l),
(173,-15,l),
(364,496,l),
(301,496,l)
);
},
{
closed = 1;
nodes = (
(264,-15,l),
(327,-15,l),
(518,496,l),
(455,496,l)
);
},
{
piece = {
length = 132.71259;
};
pos = (-120,104);
ref = _smart.horizontalBar;
},
{
piece = {
length = 132.71259;
};
pos = (-178,-77);
ref = _smart.horizontalBar;
}
);
width = 638;
}
);
unicode = 35;
},
{
glyphname = slash;
lastChange = "2024-05-16 03:18:20 +0000";
layers = (
{
layerId = m002;
shapes = (
{
closed = 1;
nodes = (
(15,-161,l),
(78,-161,l),
(377,496,l),
(314,496,l)
);
}
);
width = 392;
}
);
unicode = 47;
},
{
glyphname = bracketleft;
lastChange = "2024-05-16 03:18:20 +0000";
layers = (
{
layerId = m002;
shapes = (
{
piece = {
leftSerif = 100;
length = 41.35606;
};
pos = (-124,255);
ref = _smart.horizontalBar;
},
{
piece = {
leftSerif = 100;
length = 41.35606;
};
pos = (-124,-395);
ref = _smart.horizontalBar;
},
{
closed = 1;
nodes = (
(106,-180,l),
(193,-180,l),
(189,500,l),
(209,526,l),
(196,526,l),
(173,526,o),
(170,533,o),
(162,526,cs),
(146,511,o),
(117,487,o),
(102,480,cs),
(97,478,o),
(106,472,o),
(106,464,c)
);
}
);
width = 363;
}
);
unicode = 91;
},
{
glyphname = bracketright;
lastChange = "2024-05-16 03:18:20 +0000";
layers = (
{
layerId = m002;
shapes = (
{
angle = 180;
piece = {
leftSerif = 100;
length = 41.35606;
};
pos = (487,100);
ref = _smart.horizontalBar;
},
{
angle = 180;
piece = {
leftSerif = 100;
length = 41.35606;
};
pos = (487,750);
ref = _smart.horizontalBar;
},
{
closed = 1;
nodes = (
(257,535,l),
(170,535,l),
(174,-145,l),
(154,-171,l),
(167,-171,l),
(190,-171,o),
(193,-178,o),
(201,-171,cs),
(217,-156,o),
(246,-132,o),
(261,-125,cs),
(266,-123,o),
(257,-117,o),
(257,-109,c)
);
}
);
width = 363;
}
);
unicode = 93;
},
{
glyphname = quoteleft;
lastChange = "2024-05-23 02:43:56 +0000";
layers = (
{
layerId = m002;
shapes = (
{
closed = 1;
nodes = (
(69,483,o),
(121,480,o),
(159,537,cs),
(165,546,o),
(164,553,o),
(152,545,cs),
(107,516,o),
(50,464,o),
(50,435,cs),
(50,409,o),
(91,363,o),
(121,363,cs),
(134,363,o),
(191,392,o),
(191,405,cs),
(191,419,o),
(182,433,o),
(168,440,cs)
);
}
);
width = 200;
}
);
unicode = 8216;
},
{
glyphname = guillemetleft.salt;
lastChange = "2024-05-24 03:45:26 +0000";
layers = (
{
layerId = m002;
shapes = (
{
pos = (50,0);
ref = guilsinglleft;
},
{
closed = 1;
nodes = (
(380,148,o),
(396,164,o),
(396,184,cs),
(396,203,o),
(380,219,o),
(361,219,cs),
(341,219,o),
(325,203,o),
(325,184,cs),
(325,164,o),
(341,148,o),
(361,148,cs)
);
}
);
width = 550;
}
);
},
{
glyphname = at;
lastChange = "2024-05-24 09:08:20 +0000";
layers = (
{
layerId = m002;
shapes = (
{
closed = 1;
nodes = (
(256,12,ls),
(256,-16,o),
(241,-89,o),
(200,-89,cs),
(140,-89,o),
(114,67,o),
(114,133,cs),
(114,319,o),
(234,479,o),
(395,479,cs),
(556,479,o),
(693,319,o),
(693,167,cs),
(693,-43,o),
(523,-148,o),
(397,-189,cs),
(380,-194,o),
(379,-206,o),
(396,-206,cs),
(597,-205,o),
(776,-43,o),
(776,158,cs),
(776,359,o),
(596,522,o),
(395,522,cs),
(194,522,o),
(31,359,o),
(31,101,cs),
(31,-24,o),
(120,-142,o),
(177,-142,cs),
(234,-142,o),
(343,-28,o),
(343,64,c),
(366,23,o),
(405,-8,o),
(458,-8,cs),
(521,-8,o),
(622,23,o),
(622,104,cs),
(622,177,o),
(564,220,o),
(497,220,cs),
(466,220,o),
(392,171,o),
(343,144,c),
(343,327,ls),
(343,352,o),
(329,381,o),
(307,368,cs),
(261,341,o),
(228,318,o),
(182,299,cs),
(178,297,o),
(178,292,o),
(187,292,cs),
(196,292,o),
(214,291,o),
(224,289,cs),
(249,284,o),
(256,274,o),
(256,250,cs)
);
},
{
closed = 1;
nodes = (
(339,113,l),
(377,125,o),
(424,170,o),
(455,170,cs),
(487,170,o),
(534,133,o),
(534,78,cs),
(534,33,o),
(525,30,o),
(485,30,cs),
(436,30,o),
(371,90,o),
(339,135,c)
);
},
{
piece = {
leftSerif = 100;
length = 86.37713;
};
pos = (35,29);
ref = _smart.horizontalBar;
}
);
width = 800;
}
);
unicode = 64;
},
{
glyphname = ampersand;
lastChange = "2024-05-29 23:12:16 +0000";
layers = (
{
hints = (
{
origin = (0,9);
target = (0,24);
type = Stem;
},
{
origin = (0,30);
target = (0,3);
type = Stem;
},
{
origin = (2,3);
target = (2,16);
type = Stem;
},
{
horizontal = 1;
origin = (2,6);
target = (2,13);
type = Stem;
},
{
horizontal = 1;
origin = (0,6);
target = (0,27);
type = Stem;
},
{
horizontal = 1;
origin = (1,2);
target = (1,10);
type = Stem;
}
);
layerId = m002;
shapes = (
{
closed = 1;
nodes = (
(174,203,l),
(222,203,o),
(330,242,o),
(330,317,cs),
(330,355,o),
(302,373,o),
(241,373,cs),
(126,373,o),
(71,309,o),
(71,263,cs),
(71,161,o),
(345,-66,o),
(465,-66,cs),
(485,-66,o),
(534,-60,o),
(557,-15,cs),
(564,-2,o),
(560,-2,o),
(553,-9,cs),
(544,-17,o),
(539,-28,o),
(519,-28,cs),
(432,-28,o),
(151,168,o),
(151,283,cs),
(151,316,o),
(175,341,o),
(221,341,cs),
(237,341,o),
(259,338,o),
(259,305,cs),
(259,262,o),
(220,223,o),
(166,223,c)
);
},
{
closed = 1;
nodes = (
(351,260,o),
(315,204,o),
(323,204,cs),
(484,204,ls),
(492,204,o),
(526,248,o),
(532,274,cs),
(533,279,o),
(515,260,o),
(478,260,cs),
(370,260,ls)
);
},
{
closed = 1;
nodes = (
(114,199,l),
(86,199,o),
(20,142,o),
(20,81,cs),
(20,27,o),
(70,-18,o),
(170,-18,cs),
(334,-18,o),
(438,102,o),
(438,223,c),
(378,228,l),
(378,30,o),
(283,22,o),
(223,22,cs),
(181,22,o),
(100,65,o),
(100,120,cs),
(100,145,o),
(117,175,o),
(129,175,c)
);
}
);
width = 600;
}
);
unicode = 38;
},
{
glyphname = ampersand.case;
lastChange = "2024-05-29 23:12:55 +0000";
layers = (
{
hints = (
{
horizontal = 1;
origin = (0,20);
target = (0,45);
type = Stem;
},
{
horizontal = 1;
origin = (0,29);
target = (0,36);
type = Stem;
},
{
horizontal = 1;
origin = (1,2);
target = (1,9);
type = Stem;
},
{
origin = (0,2);
target = (0,17);
type = Stem;
},
{
origin = (0,26);
target = (0,39);
type = Stem;
},
{
origin = (0,23);
target = (0,42);
type = Stem;
}
);
layerId = m002;
shapes = (
{
closed = 1;
nodes = (
(156,518,o),
(89,413,o),
(89,353,cs),
(89,232,o),
(389,-60,o),
(522,-60,cs),
(541,-60,o),
(627,-54,o),
(664,-6,cs),
(671,4,o),
(665,4,o),
(656,-1,cs),
(641,-11,o),
(619,-22,o),
(602,-22,cs),
(516,-22,o),
(169,271,o),
(169,411,cs),
(169,467,o),
(219,477,o),
(240,477,cs),
(280,477,o),
(301,443,o),
(301,412,cs),
(301,301,o),
(33,250,o),
(33,93,cs),
(33,57,o),
(47,-27,o),
(156,-27,cs),
(334,-27,o),
(521,198,o),
(521,267,c),
(431,272,l),
(431,152,o),
(292,13,o),
(196,13,cs),
(129,13,o),
(113,80,o),
(113,110,cs),
(113,231,o),
(372,323,o),
(372,439,cs),
(372,485,o),
(332,518,o),
(269,518,cs)
);
},
{
closed = 1;
nodes = (
(403,303,o),
(352,246,o),
(363,247,cs),
(577,262,ls),
(589,263,o),
(638,306,o),
(647,332,cs),
(649,337,o),
(622,318,o),
(568,316,cs),
(431,306,ls)
);
}
);
width = 700;
}
);
},
{
glyphname = at.salt;
lastChange = "2024-05-29 01:00:01 +0000";
layers = (
{
layerId = m002;
shapes = (
{
closed = 1;
nodes = (
(216,219,o),
(236,218,o),
(236,208,c),
(313,267,o),
(350,272,o),
(385,272,cs),
(459,272,o),
(514,262,o),
(514,141,cs),
(514,68,o),
(493,30,o),
(446,30,cs),
(391,30,o),
(322,126,o),
(321,177,cs),
(319,279,l),
(236,224,l),
(236,114,ls),
(236,33,o),
(224,-36,o),
(179,-36,cs),
(143,-36,o),
(120,7,o),
(120,111,cs),
(120,344,o),
(298,437,o),
(419,437,cs),
(526,437,o),
(671,374,o),
(671,165,cs),
(671,-115,o),
(411,-162,o),
(342,-195,cs),
(317,-207,o),
(337,-210,o),
(347,-210,cs),
(369,-210,o),
(761,-196,o),
(761,150,cs),
(761,346,o),
(654,477,o),
(444,477,cs),
(206,477,o),
(30,296,o),
(30,109,cs),
(30,-21,o),
(107,-90,o),
(175,-90,cs),
(253,-90,o),
(319,0,o),
(319,117,c),
(329,61,o),
(350,-8,o),
(438,-8,cs),
(501,-8,o),
(602,59,o),
(602,172,cs),
(602,307,o),
(513,322,o),
(438,322,cs),
(365,322,o),
(216,244,o),
(216,225,cs)
);
}
);
width = 800;
}
);
},
{
glyphname = ampersand.salt;
lastChange = "2024-05-29 23:17:56 +0000";
layers = (
{
hints = (
{
horizontal = 1;
origin = (0,27);
target = (0,20);
type = Stem;
},
{
origin = (0,30);
target = (0,17);
type = Stem;
},
{
origin = (0,36);
target = (0,11);
type = Stem;
},
{
horizontal = 1;
origin = (1,11);
target = (1,2);
type = Stem;
}
);
layerId = m002;
shapes = (
{
closed = 1;
nodes = (
(249,375,o),
(295,329,o),
(295,310,cs),
(295,308,o),
(294,305,o),
(290,309,cs),
(264,332,o),
(241,339,o),
(216,339,cs),
(163,339,o),
(137,308,o),
(137,281,cs),
(137,235,o),
(214,235,o),
(214,230,cs),
(214,224,o),
(124,179,o),
(124,107,cs),
(124,75,o),
(142,39,o),
(203,39,cs),
(317,39,o),
(376,163,o),
(376,203,c),
(403,210,l),
(403,153,o),
(358,-15,o),
(173,-15,cs),
(79,-15,o),
(38,28,o),
(38,80,cs),
(38,130,o),
(77,188,o),
(147,211,c),
(106,211,o),
(64,231,o),
(64,276,cs),
(64,327,o),
(116,375,o),
(183,375,cs)
);
},
{
closed = 1;
nodes = (
(250,163,o),
(282,241,o),
(336,241,cs),
(363,241,o),
(438,222,o),
(465,222,cs),
(501,222,o),
(515,253,o),
(522,253,cs),
(533,253,o),
(501,174,o),
(447,174,cs),
(420,174,o),
(345,193,o),
(318,193,cs),
(282,193,o),
(268,163,o),
(261,163,cs)
);
}
);
width = 550;
},
{
associatedMasterId = m002;
layerId = "E457FAC8-5066-43BF-B435-40BDC1B5FE00";
name = "May 29, 24 at 18:59";
shapes = (
{
closed = 1;
nodes = (
(156,518,o),
(89,413,o),
(89,353,cs),
(89,232,o),
(389,-60,o),
(522,-60,cs),
(541,-60,o),
(627,-54,o),
(664,-6,cs),
(671,4,o),
(665,4,o),
(656,-1,cs),
(641,-11,o),
(619,-22,o),
(602,-22,cs),
(516,-22,o),
(169,271,o),
(169,411,cs),
(169,467,o),
(219,477,o),
(240,477,cs),
(280,477,o),
(301,443,o),
(301,412,cs),
(301,301,o),
(33,250,o),
(33,93,cs),
(33,57,o),
(47,-27,o),
(156,-27,cs),
(334,-27,o),
(521,198,o),
(521,267,c),
(431,272,l),
(431,152,o),
(292,13,o),
(196,13,cs),
(129,13,o),
(113,80,o),
(113,110,cs),
(113,231,o),
(372,323,o),
(372,439,cs),
(372,485,o),
(332,518,o),
(269,518,cs)
);
},
{
closed = 1;
nodes = (
(403,303,o),
(352,246,o),
(363,247,cs),
(577,262,ls),
(589,263,o),
(638,306,o),
(647,332,cs),
(649,337,o),
(622,318,o),
(568,316,cs),
(431,306,ls)
);
}
);
width = 700;
}
);
},
{
glyphname = ampersand.salt.case;
lastChange = "2024-05-29 23:18:02 +0000";
layers = (
{
hints = (
{
horizontal = 1;
origin = (0,27);
target = (0,20);
type = Stem;
},
{
origin = (0,30);
target = (0,17);
type = Stem;
},
{
origin = (0,36);
target = (0,11);
type = Stem;
},
{
horizontal = 1;
origin = (1,11);
target = (1,2);
type = Stem;
}
);
layerId = m002;
shapes = (
{
closed = 1;
nodes = (
(277,486,o),
(325,439,o),
(325,415,cs),
(325,412,o),
(323,409,o),
(319,413,cs),
(290,443,o),
(259,452,o),
(227,452,cs),
(163,452,o),
(144,417,o),
(144,390,cs),
(144,336,o),
(223,322,o),
(223,315,cs),
(223,308,o),
(123,234,o),
(123,143,cs),
(123,101,o),
(144,54,o),
(212,54,cs),
(338,54,o),
(404,213,o),
(404,265,c),
(433,274,l),
(433,201,o),
(383,-15,o),
(178,-15,cs),
(74,-15,o),
(28,40,o),
(28,107,cs),
(28,171,o),
(71,262,o),
(149,292,c),
(103,292,o),
(57,318,o),
(57,371,cs),
(57,440,o),
(137,486,o),
(207,486,cs)
);
},
{
closed = 1;
nodes = (
(264,213,o),
(299,307,o),
(359,307,cs),
(389,307,o),
(472,283,o),
(502,283,cs),
(542,283,o),
(558,322,o),
(566,322,cs),
(578,322,o),
(542,228,o),
(482,228,cs),
(452,228,o),
(369,252,o),
(339,252,cs),
(299,252,o),
(284,213,o),
(276,213,cs)
);
}
);
width = 590;
},
{
associatedMasterId = m002;
layerId = "E457FAC8-5066-43BF-B435-40BDC1B5FE00";
name = "May 29, 24 at 18:59";
shapes = (
{
closed = 1;
nodes = (
(156,518,o),
(89,413,o),
(89,353,cs),
(89,232,o),
(389,-60,o),
(522,-60,cs),
(541,-60,o),
(627,-54,o),
(664,-6,cs),
(671,4,o),
(665,4,o),
(656,-1,cs),
(641,-11,o),
(619,-22,o),
(602,-22,cs),
(516,-22,o),
(169,271,o),
(169,411,cs),
(169,467,o),
(219,477,o),
(240,477,cs),
(280,477,o),
(301,443,o),
(301,412,cs),
(301,301,o),
(33,250,o),
(33,93,cs),
(33,57,o),
(47,-27,o),
(156,-27,cs),
(334,-27,o),
(521,198,o),
(521,267,c),
(431,272,l),
(431,152,o),
(292,13,o),
(196,13,cs),
(129,13,o),
(113,80,o),
(113,110,cs),
(113,231,o),
(372,323,o),
(372,439,cs),
(372,485,o),
(332,518,o),
(269,518,cs)
);
},
{
closed = 1;
nodes = (
(403,303,o),
(352,246,o),
(363,247,cs),
(577,262,ls),
(589,263,o),
(638,306,o),
(647,332,cs),
(649,337,o),
(622,318,o),
(568,316,cs),
(431,306,ls)
);
}
);
width = 700;
}
);
},
{
export = 0;
glyphname = ampersand.001;
lastChange = "2024-05-29 23:18:33 +0000";
layers = (
{
layerId = m002;
shapes = (
{
closed = 1;
nodes = (
(207,19,o),
(176,26,o),
(176,57,cs),
(176,118,o),
(299,170,o),
(364,170,cs),
(437,170,o),
(564,131,o),
(564,9,cs),
(564,-49,l),
(651,0,l),
(651,53,ls),
(651,94,o),
(545,222,o),
(413,222,cs),
(230,222,o),
(139,107,o),
(139,52,cs),
(139,18,o),
(170,-13,o),
(222,-13,cs),
(297,-13,o),
(446,51,o),
(446,186,cs),
(446,278,o),
(378,364,o),
(242,364,cs),
(94,364,o),
(41,244,o),
(30,214,cs),
(26,202,o),
(33,206,o),
(38,210,cs),
(54,223,o),
(71,232,o),
(100,242,cs),
(103,243,o),
(105,246,o),
(105,254,cs),
(105,287,o),
(151,332,o),
(223,332,cs),
(283,332,o),
(344,263,o),
(344,159,cs),
(344,50,o),
(278,19,o),
(230,19,cs)
);
},
{
alignment = -1;
pos = (469,-136);
ref = _smart.verticalBar;
}
);
width = 680;
}
);
},
{
export = 0;
glyphname = ampersand.001.case;
lastChange = "2024-05-29 23:18:33 +0000";
layers = (
{
layerId = m002;
shapes = (
{
closed = 1;
nodes = (
(188,381,o),
(252,447,o),
(334,447,cs),
(426,447,o),
(484,301,o),
(484,191,cs),
(484,81,o),
(426,-1,o),
(298,-1,cs),
(204,-1,o),
(156,43,o),
(156,95,cs),
(156,183,o),
(292,217,o),
(444,217,cs),
(591,217,o),
(741,185,o),
(741,56,cs),
(741,-2,l),
(828,47,l),
(828,86,ls),
(828,138,o),
(760,284,o),
(496,284,cs),
(325,284,o),
(75,223,o),
(75,87,cs),
(75,1,o),
(175,-37,o),
(282,-37,cs),
(460,-37,o),
(599,69,o),
(599,229,cs),
(599,374,o),
(486,490,o),
(378,490,cs),
(289,490,o),
(222,440,o),
(159,440,cs),
(132,440,o),
(113,454,o),
(113,490,cs),
(113,523,o),
(147,540,o),
(146,544,cs),
(145,548,o),
(139,545,o),
(136,544,cs),
(130,542,o),
(64,494,o),
(35,481,cs),
(32,480,o),
(30,477,o),
(30,471,cs),
(30,436,o),
(28,381,o),
(106,381,cs)
);
},
{
alignment = -1;
piece = {
height_l = 72.54256;
};
pos = (646,-106);
ref = _smart.verticalBar;
}
);
width = 860;
}
);
},
{
glyphname = plus;
lastChange = "2024-05-16 03:18:20 +0000";
layers = (
{
layerId = m002;
shapes = (
{
closed = 1;
nodes = (
(50,235,l),
(400,235,l),
(400,318,l),
(50,318,l)
);
},
{
closed = 1;
nodes = (
(182,102,l),
(267,102,l),
(267,452,l),
(182,452,l)
);
}
);
width = 450;
}
);
unicode = 43;
},
{
glyphname = minus;
lastChange = "2024-05-16 03:18:20 +0000";
layers = (
{
layerId = m002;
shapes = (
{
closed = 1;
nodes = (
(50,235,l),
(400,235,l),
(400,318,l),
(50,318,l)
);
}
);
width = 450;
}
);
unicode = 8722;
},
{
glyphname = multiply;
lastChange = "2024-05-16 03:18:20 +0000";
layers = (
{
layerId = m002;
shapes = (
{
closed = 1;
nodes = (
(72,183,l),
(132,123,l),
(379,370,l),
(319,431,l)
);
},
{
closed = 1;
nodes = (
(131,430,l),
(71,370,l),
(318,123,l),
(379,183,l)
);
}
);
width = 450;
}
);
unicode = 215;
},
{
glyphname = plusminus;
lastChange = "2024-05-16 03:18:20 +0000";
layers = (
{
layerId = m002;
shapes = (
{
closed = 1;
nodes = (
(50,285,l),
(400,285,l),
(400,368,l),
(50,368,l)
);
},
{
closed = 1;
nodes = (
(182,182,l),
(267,182,l),
(267,502,l),
(182,502,l)
);
},
{
pos = (0,-136);
ref = minus;
}
);
width = 450;
}
);
unicode = 177;
},
{
glyphname = dotaccentcomb;
lastChange = "2024-05-28 21:40:21 +0000";
layers = (
{
anchors = (
{
name = _top;
pos = (305,413);
}
);
layerId = m002;
shapes = (
{
closed = 1;
nodes = (
(322,451,o),
(320,460,o),
(326,468,cs),
(330,475,o),
(342,472,o),
(342,489,cs),
(342,507,o),
(330,505,o),
(324,511,cs),
(318,518,o),
(322,526,o),
(305,526,cs),
(285,526,o),
(287,517,o),
(281,509,cs),
(276,502,o),
(267,504,o),
(267,489,cs),
(267,478,o),
(274,475,o),
(280,469,cs),
(288,462,o),
(291,451,o),
(305,451,cs)
);
}
);
width = 597;
}
);
unicode = 775;
},
{
glyphname = hungarumlautcomb;
lastChange = "2024-05-22 23:03:02 +0000";
layers = (
{
anchors = (
{
name = _top;
pos = (104,369);
}
);
layerId = m002;
shapes = (
{
closed = 1;
nodes = (
(60,413,o),
(147,521,o),
(147,528,cs),
(147,534,o),
(101,557,o),
(92,557,cs),
(85,557,o),
(40,430,o),
(40,418,cs),
(40,414,o),
(47,413,o),
(54,413,cs)
);
},
{
closed = 1;
nodes = (
(153,413,o),
(240,521,o),
(240,528,cs),
(240,534,o),
(194,557,o),
(185,557,cs),
(178,557,o),
(133,430,o),
(133,418,cs),
(133,414,o),
(140,413,o),
(147,413,cs)
);
}
);
width = 234;
}
);
unicode = 779;
},
{
glyphname = brevecomb;
lastChange = "2024-05-22 23:15:48 +0000";
layers = (
{
anchors = (
{
name = _top;
pos = (155,375);
}
);
layerId = m002;
shapes = (
{
closed = 1;
nodes = (
(44,565,o),
(44,560,o),
(44,551,cs),
(44,480,o),
(105,432,o),
(155,432,cs),
(205,432,o),
(265,480,o),
(265,551,cs),
(265,559,o),
(266,566,o),
(261,558,cs),
(236,523,o),
(225,480,o),
(155,480,cs),
(85,480,o),
(74,523,o),
(49,558,cs)
);
}
);
width = 309;
}
);
unicode = 774;
},
{
glyphname = macroncomb;
lastChange = "2024-05-22 23:16:14 +0000";
layers = (
{
anchors = (
{
name = _top;
pos = (151,360);
}
);
layerId = m002;
shapes = (
{
closed = 1;
nodes = (
(52,429,l),
(250,429,l),
(250,477,l),
(52,477,l)
);
}
);
width = 309;
}
);
unicode = 772;
},
{
glyphname = cedillacomb;
lastChange = "2024-05-16 03:18:20 +0000";
layers = (
{
anchors = (
{
name = _ogonek;
pos = (471,0);
}
);
layerId = m002;
shapes = (
{
closed = 1;
nodes = (
(398,-33,o),
(349,-78,o),
(349,-83,cs),
(349,-107,o),
(401,-141,o),
(401,-176,cs),
(401,-201,o),
(378,-218,o),
(350,-236,cs),
(343,-240,o),
(343,-243,o),
(353,-243,cs),
(383,-242,o),
(471,-218,o),
(471,-167,cs),
(471,-107,o),
(397,-87,o),
(397,-72,cs),
(397,-60,o),
(439,-27,o),
(471,0,c),
(430,0,l)
);
}
);
width = 531;
}
);
unicode = 807;
},
{
glyphname = ogonekcomb;
lastChange = "2024-05-22 23:13:57 +0000";
layers = (
{
anchors = (
{
name = _ogonek;
pos = (432,0);
}
);
layerId = m002;
shapes = (
{
closed = 1;
nodes = (
(386,-8,o),
(333,-44,o),
(333,-79,cs),
(333,-123,o),
(417,-156,o),
(458,-110,cs),
(465,-102,o),
(466,-97,o),
(459,-100,cs),
(442,-106,o),
(381,-103,o),
(381,-69,cs),
(381,-44,o),
(415,-8,o),
(458,6,c),
(425,6,l)
);
}
);
width = 531;
}
);
unicode = 808;
},
{
glyphname = gravecomb.case;
lastChange = "2024-05-23 05:36:32 +0000";
layers = (
{
anchors = (
{
name = _top;
pos = (107,495);
}
);
layerId = m002;
shapes = (
{
closed = 1;
nodes = (
(183,538,o),
(196,546,o),
(196,549,cs),
(196,555,o),
(90,673,o),
(83,673,cs),
(77,673,o),
(31,622,o),
(31,611,cs),
(31,606,o),
(175,538,o),
(180,538,cs)
);
}
);
width = 236;
}
);
},
{
glyphname = acutecomb.case;
lastChange = "2024-05-23 05:36:05 +0000";
layers = (
{
anchors = (
{
name = _top;
pos = (81,487);
}
);
layerId = m002;
shapes = (
{
closed = 1;
nodes = (
(56,533,o),
(203,608,o),
(203,613,cs),
(203,622,o),
(163,673,o),
(148,673,cs),
(141,673,o),
(40,549,o),
(40,542,cs),
(40,539,o),
(43,533,o),
(50,533,cs)
);
}
);
width = 234;
}
);
},
{
glyphname = circumflexcomb.case;
lastChange = "2024-05-23 05:45:11 +0000";
layers = (
{
anchors = (
{
name = _top;
pos = (155,513);
}
);
layerId = m002;
shapes = (
{
closed = 1;
nodes = (
(83,563,o),
(124,589,o),
(155,603,c),
(186,589,o),
(224,567,o),
(261,544,cs),
(268,539,o),
(271,543,o),
(265,551,cs),
(209,617,o),
(162,670,o),
(155,670,cs),
(148,670,o),
(100,617,o),
(44,551,cs),
(38,543,o),
(41,540,o),
(49,544,cs)
);
}
);
width = 309;
}
);
},
{
glyphname = ringcomb.case;
lastChange = "2024-05-16 03:18:20 +0000";
layers = (
{
anchors = (
{
name = _top;
pos = (70,495);
}
);
layerId = m002;
shapes = (
{
closed = 1;
nodes = (
(123,534,o),
(150,558,o),
(150,594,cs),
(150,629,o),
(124,654,o),
(90,654,cs),
(57,654,o),
(30,630,o),
(30,594,cs),
(30,559,o),
(56,534,o),
(90,534,cs)
);
},
{
closed = 1;
nodes = (
(74,564,o),
(63,575,o),
(63,594,cs),
(63,612,o),
(74,624,o),
(91,624,cs),
(107,624,o),
(118,612,o),
(118,594,cs),
(118,576,o),
(108,564,o),
(91,564,cs)
);
}
);
width = 180;
}
);
},
{
glyphname = tildecomb.case;
lastChange = "2024-05-23 05:43:56 +0000";
layers = (
{
anchors = (
{
name = _top;
pos = (136,495);
}
);
layerId = m002;
shapes = (
{
closed = 1;
nodes = (
(13,534,o),
(48,628,o),
(108,628,cs),
(138,628,o),
(181,594,o),
(211,594,cs),
(251,594,o),
(267,633,o),
(275,633,cs),
(287,633,o),
(251,539,o),
(191,539,cs),
(161,539,o),
(118,573,o),
(88,573,cs),
(48,573,o),
(33,534,o),
(25,534,cs)
);
}
);
width = 341;
},
{
anchors = (
{
name = _top;
pos = (136,495);
}
);
associatedMasterId = m002;
layerId = "C4D41560-C49A-420C-80C9-83BE1D2AB906";
name = "May 23, 24 at 01:38";
shapes = (
{
closed = 1;
nodes = (
(63,596,o),
(108,645,o),
(135,645,cs),
(167,645,o),
(202,579,o),
(222,579,cs),
(234,579,o),
(278,605,o),
(294,620,cs),
(301,627,o),
(302,625,o),
(300,619,cs),
(290,589,o),
(223,531,o),
(184,531,cs),
(147,531,o),
(127,584,o),
(106,584,cs),
(93,584,o),
(63,563,o),
(51,552,cs),
(39,540,o),
(37,546,o),
(46,563,cs)
);
}
);
width = 341;
}
);
},
{
export = 0;
glyphname = _part.asterisk;
lastChange = "2024-05-23 06:07:57 +0000";
layers = (
{
anchors = (
{
name = origin;
}
);
layerId = m002;
shapes = (
{
closed = 1;
nodes = (
(-14,51,o),
(-71,170,o),
(-51,170,c),
(50,170,l),
(70,170,o),
(13,51,o),
(13,0,c),
(-14,0,l)
);
}
);
width = 600;
},
{
anchors = (
{
name = origin;
}
);
associatedMasterId = m002;
layerId = "FF1F701D-BDAA-4A82-B02C-6D9448F0ECA4";
name = backup;
shapes = (
{
closed = 1;
nodes = (
(-14,51,o),
(-71,191,o),
(-51,191,c),
(50,191,l),
(70,191,o),
(13,51,o),
(13,0,c),
(-14,0,l)
);
}
);
width = 600;
}
);
},
{
export = 0;
glyphname = _part.curvedbracket;
lastChange = "2024-05-23 02:58:56 +0000";
layers = (
{
layerId = m002;
shapes = (
{
closed = 1;
nodes = (
(391,619,o),
(322,611,o),
(289,566,cs),
(242,502,o),
(268,387,o),
(255,335,cs),
(245,297,o),
(220,284,o),
(194,284,c),
(194,270,l),
(262,270,l),
(275,277,o),
(334,317,o),
(334,380,cs),
(334,440,o),
(321,527,o),
(356,573,cs),
(373,596,o),
(404,601,o),
(413,606,cs),
(422,611,o),
(449,627,o),
(391,619,cs)
);
}
);
width = 600;
}
);
},
{
export = 0;
glyphname = _part.greater;
lastChange = "2024-05-23 02:48:39 +0000";
layers = (
{
layerId = m002;
shapes = (
{
closed = 1;
nodes = (
(269,274,l),
(370,274,l),
(370,296,l),
(46,480,l),
(46,400,l)
);
}
);
width = 390;
}
);
},
{
export = 0;
glyphname = _part.guil;
lastChange = "2024-05-23 02:53:35 +0000";
layers = (
{
layerId = m002;
shapes = (
{
closed = 1;
nodes = (
(372,442,o),
(374,445,o),
(358,445,cs),
(313,445,o),
(185,344,o),
(130,304,c),
(229,304,l),
(288,344,o),
(334,398,o),
(361,429,cs)
);
}
);
width = 600;
}
);
},
{
export = 0;
glyphname = _part.leftArc;
lastChange = "2024-05-16 03:18:20 +0000";
layers = (
{
layerId = m002;
shapes = (
{
closed = 1;
nodes = (
(29,249,o),
(25,232,o),
(44,249,cs),
(127,323,o),
(252,328,o),
(252,217,cs),
(252,176,l),
(339,225,l),
(339,265,ls),
(339,339,o),
(147,416,o),
(36,258,cs)
);
}
);
width = 636;
}
);
},
{
export = 0;
glyphname = _part.leftStroke;
lastChange = "2024-05-16 03:18:20 +0000";
layers = (
{
layerId = m002;
shapes = (
{
closed = 1;
nodes = (
(61,74,cs),
(37,62,o),
(34,53,o),
(52,56,cs),
(124,64,o),
(208,97,o),
(272,154,cs),
(313,191,o),
(333,246,o),
(303,239,cs),
(281,234,o),
(244,223,o),
(218,216,cs),
(195,210,o),
(218,201,o),
(218,196,cs),
(218,173,o),
(141,113,o)
);
}
);
width = 438;
}
);
},
{
export = 0;
glyphname = _part.paren;
lastChange = "2024-05-29 01:14:24 +0000";
layers = (
{
layerId = m002;
shapes = (
{
closed = 1;
nodes = (
(222,480,o),
(155,386,o),
(155,177,c),
(74,177,l),
(74,403,o),
(177,497,o),
(239,534,cs),
(254,543,o),
(250,529,o),
(245,521,cs)
);
}
);
width = 286;
}
);
},
{
export = 0;
glyphname = _smart.horizontalBar;
lastChange = "2024-05-16 03:18:20 +0000";
layers = (
{
anchors = (
{
name = length;
pos = (555,212);
}
);
hints = (
{
name = _corner.a;
origin = (0,1);
type = Corner;
},
{
name = _corner.a;
origin = (0,3);
type = Corner;
}
);
layerId = m002;
partSelection = {
leftSerif = 1;
rightSerif = 1;
};
shapes = (
{
closed = 1;
nodes = (
(294,271,l),
(237,215,l),
(554,215,l),
(611,271,l)
);
}
);
width = 650;
},
{
anchors = (
{
name = length;
pos = (284,215);
}
);
associatedMasterId = m002;
hints = (
{
name = _corner.a;
origin = (0,1);
type = Corner;
},
{
name = _corner.a;
origin = (0,3);
type = Corner;
}
);
layerId = "6F22A16B-9498-4A4B-929E-AD2ABF3D04F3";
name = "0";
partSelection = {
length = 1;
};
shapes = (
{
closed = 1;
nodes = (
(294,271,l),
(237,215,l),
(284,215,l),
(341,271,l)
);
}
);
width = 650;
},
{
anchors = (
{
name = length;
pos = (555,212);
}
);
associatedMasterId = m002;
hints = (
{
name = _corner.a;
origin = (0,1);
type = Corner;
},
{
name = _corner.a;
origin = (0,3);
type = Corner;
}
);
layerId = "598DACA0-666E-48A7-99EF-A1A6D0E6021B";
name = "100";
partSelection = {
length = 2;
};
shapes = (
{
closed = 1;
nodes = (
(294,271,l),
(237,215,l),
(554,215,l),
(611,271,l)
);
}
);
width = 650;
},
{
anchors = (
{
name = length;
pos = (555,212);
}
);
associatedMasterId = m002;
hints = (
{
name = _corner.a;
origin = (0,1);
scale = (0.01,0);
type = Corner;
},
{
name = _corner.a;
origin = (0,3);
type = Corner;
}
);
layerId = "B086BB44-8CF9-46A4-B512-A892A05DE0A4";
name = 0leftSerif;
partSelection = {
leftSerif = 2;
};
shapes = (
{
closed = 1;
nodes = (
(294,271,l),
(237,215,l),
(554,215,l),
(611,271,l)
);
}
);
width = 650;
},
{
anchors = (
{
name = length;
pos = (555,212);
}
);
associatedMasterId = m002;
hints = (
{
name = _corner.a;
origin = (0,1);
type = Corner;
},
{
name = _corner.a;
origin = (0,3);
scale = (0.01,0);
type = Corner;
}
);
layerId = "8601D182-B841-46C1-BA13-876C2912D863";
name = 0rightSerif;
partSelection = {
rightSerif = 2;
};
shapes = (
{
closed = 1;
nodes = (
(294,271,l),
(237,215,l),
(554,215,l),
(611,271,l)
);
}
);
width = 650;
},
{
anchors = (
{
name = length;
pos = (284,215);
}
);
associatedMasterId = m002;
hints = (
{
name = _corner.a;
origin = (0,1);
type = Corner;
},
{
name = _corner.a;
origin = (0,3);
type = Corner;
}
);
layerId = "EA2F34AD-644D-4AD1-BA02-CC64C1C0E4C5";
name = "0";
partSelection = {
length = 1;
};
shapes = (
{
closed = 1;
nodes = (
(294,271,l),
(237,215,l),
(284,215,l),
(341,271,l)
);
}
);
width = 650;
},
{
anchors = (
{
name = length;
pos = (555,212);
}
);
associatedMasterId = m002;
hints = (
{
name = _corner.a;
origin = (0,1);
type = Corner;
},
{
name = _corner.a;
origin = (0,3);
type = Corner;
}
);
layerId = "FC1D0535-48E1-455A-A3D4-C7B081FF664A";
name = "100";
partSelection = {
length = 2;
};
shapes = (
{
closed = 1;
nodes = (
(294,271,l),
(237,215,l),
(554,215,l),
(611,271,l)
);
}
);
width = 650;
},
{
anchors = (
{
name = length;
pos = (555,212);
}
);
associatedMasterId = m002;
hints = (
{
name = _corner.a;
origin = (0,1);
scale = (0.01,0);
type = Corner;
},
{
name = _corner.a;
origin = (0,3);
type = Corner;
}
);
layerId = "7A0E4509-1A39-4F62-9FDE-09670FBBC93F";
name = 0leftSerif;
partSelection = {
leftSerif = 2;
};
shapes = (
{
closed = 1;
nodes = (
(294,271,l),
(237,215,l),
(554,215,l),
(611,271,l)
);
}
);
width = 650;
},
{
anchors = (
{
name = length;
pos = (555,212);
}
);
associatedMasterId = m002;
hints = (
{
name = _corner.a;
origin = (0,1);
type = Corner;
},
{
name = _corner.a;
origin = (0,3);
scale = (0.01,0);
type = Corner;
}
);
layerId = "715E5462-2077-4E8B-8236-9BCAE843C462";
name = 0rightSerif;
partSelection = {
rightSerif = 2;
};
shapes = (
{
closed = 1;
nodes = (
(294,271,l),
(237,215,l),
(554,215,l),
(611,271,l)
);
}
);
width = 650;
}
);
partsSettings = (
{
bottomValue = 0;
name = length;
topValue = 100;
},
{
bottomValue = 0;
name = leftSerif;
topValue = 100;
},
{
bottomValue = 0;
name = rightSerif;
topValue = 100;
}
);
},
{
export = 0;
glyphname = _smart.verticalBar;
lastChange = "2024-05-16 03:18:20 +0000";
layers = (
{
anchors = (
{
name = height_l;
pos = (95,-48);
},
{
name = noStartSerif;
pos = (21,438);
}
);
hints = (
{
name = _corner.a;
origin = (0,0);
scale = (0.3,0.5);
type = Corner;
}
);
layerId = m002;
shapes = (
{
closed = 1;
nodes = (
(95,-48,l),
(182,0,l),
(182,460,l),
(182,485,o),
(168,514,o),
(146,501,cs),
(100,474,o),
(67,451,o),
(21,432,cs),
(17,430,o),
(17,425,o),
(26,425,cs),
(35,425,o),
(53,424,o),
(63,422,cs),
(88,417,o),
(95,407,o),
(95,383,c)
);
}
);
width = 200;
},
{
anchors = (
{
name = height_l;
pos = (95,359);
},
{
name = noStartSerif;
pos = (21,438);
}
);
associatedMasterId = m002;
hints = (
{
name = _corner.a;
origin = (0,0);
scale = (0.3,0.5);
type = Corner;
}
);
layerId = "C019F2CA-0CD4-421F-8E13-B05B362A3BC9";
name = length0;
partSelection = {
height_l = 1;
};
shapes = (
{
closed = 1;
nodes = (
(95,359,l),
(182,407,l),
(182,460,l),
(182,485,o),
(168,514,o),
(146,501,cs),
(100,474,o),
(67,451,o),
(21,432,cs),
(17,430,o),
(17,425,o),
(26,425,cs),
(35,425,o),
(53,424,o),
(63,422,cs),
(88,417,o),
(95,407,o),
(95,383,c)
);
}
);
width = 200;
},
{
anchors = (
{
name = height_l;
pos = (95,-248);
},
{
name = noStartSerif;
pos = (21,438);
}
);
associatedMasterId = m002;
hints = (
{
name = _corner.a;
origin = (0,0);
scale = (0.3,0.5);
type = Corner;
}
);
layerId = "CAD9814E-194E-48AC-94FA-6347377F441F";
name = length100;
partSelection = {
height_l = 2;
};
shapes = (
{
closed = 1;
nodes = (
(95,-248,l),
(182,-200,l),
(182,460,l),
(182,485,o),
(168,514,o),
(146,501,cs),
(100,474,o),
(67,451,o),
(21,432,cs),
(17,430,o),
(17,425,o),
(26,425,cs),
(35,425,o),
(53,424,o),
(63,422,cs),
(88,417,o),
(95,407,o),
(95,383,c)
);
}
);
width = 200;
},
{
anchors = (
{
name = height_l;
pos = (95,312);
},
{
name = noStartSerif;
pos = (95,438);
}
);
associatedMasterId = m002;
guides = (
{
angle = 23.0394;
pos = (95,383);
}
);
hints = (
{
name = _corner.a;
origin = (0,0);
scale = (0.3,0.5);
type = Corner;
}
);
layerId = "719D0995-C596-459F-A2F2-574BAE30F3E1";
name = noStartSerif0;
partSelection = {
noStartSerif = 1;
};
shapes = (
{
closed = 1;
nodes = (
(95,312,l),
(182,360,l),
(182,420,l),
(177,418,o),
(173,416,o),
(168,414,cs),
(162,411,o),
(155,409,o),
(149,406,cs),
(143,403,o),
(137,401,o),
(131,398,cs),
(124,395,o),
(118,392,o),
(111,389,cs),
(106,387,o),
(100,385,o),
(95,383,c)
);
}
);
width = 200;
},
{
anchors = (
{
name = height_l;
pos = (95,-48);
},
{
name = noStartSerif;
pos = (95,438);
}
);
associatedMasterId = m002;
guides = (
{
angle = 23.0394;
pos = (95,383);
}
);
hints = (
{
name = _corner.a;
origin = (0,0);
scale = (0.3,0.5);
type = Corner;
}
);
layerId = "C4E8B2B1-134B-4472-B49A-35C89B38CCA7";
name = noStartSerif100;
partSelection = {
noStartSerif = 2;
};
shapes = (
{
closed = 1;
nodes = (
(95,-48,l),
(182,0,l),
(182,420,l),
(177,418,o),
(173,416,o),
(168,414,cs),
(162,411,o),
(155,409,o),
(149,406,cs),
(143,403,o),
(137,401,o),
(131,398,cs),
(124,395,o),
(118,392,o),
(111,389,cs),
(106,387,o),
(100,385,o),
(95,383,c)
);
}
);
width = 200;
},
{
anchors = (
{
name = height_l;
pos = (95,359);
},
{
name = noStartSerif;
pos = (21,438);
}
);
associatedMasterId = m002;
hints = (
{
name = _corner.a;
origin = (0,0);
scale = (0.3,0.5);
type = Corner;
}
);
layerId = "1FB8D0D6-EECE-47BC-8E38-EFDD53735551";
name = length0;
partSelection = {
height_l = 1;
};
shapes = (
{
closed = 1;
nodes = (
(95,359,l),
(182,407,l),
(182,460,l),
(182,485,o),
(168,514,o),
(146,501,cs),
(100,474,o),
(67,451,o),
(21,432,cs),
(17,430,o),
(17,425,o),
(26,425,cs),
(35,425,o),
(53,424,o),
(63,422,cs),
(88,417,o),
(95,407,o),
(95,383,c)
);
}
);
width = 200;
},
{
anchors = (
{
name = height_l;
pos = (95,-248);
},
{
name = noStartSerif;
pos = (21,438);
}
);
associatedMasterId = m002;
hints = (
{
name = _corner.a;
origin = (0,0);
scale = (0.3,0.5);
type = Corner;
}
);
layerId = "DFD20C49-E269-41F3-A1C4-A8084A744DB3";
name = length100;
partSelection = {
height_l = 2;
};
shapes = (
{
closed = 1;
nodes = (
(95,-248,l),
(182,-200,l),
(182,460,l),
(182,485,o),
(168,514,o),
(146,501,cs),
(100,474,o),
(67,451,o),
(21,432,cs),
(17,430,o),
(17,425,o),
(26,425,cs),
(35,425,o),
(53,424,o),
(63,422,cs),
(88,417,o),
(95,407,o),
(95,383,c)
);
}
);
width = 200;
},
{
anchors = (
{
name = height_l;
pos = (95,312);
},
{
name = noStartSerif;
pos = (95,438);
}
);
associatedMasterId = m002;
guides = (
{
angle = 23.0394;
pos = (95,383);
}
);
hints = (
{
name = _corner.a;
origin = (0,0);
scale = (0.3,0.5);
type = Corner;
}
);
layerId = "C56CDDCB-359F-4763-A100-D34FCE13F8CD";
name = noStartSerif0;
partSelection = {
noStartSerif = 1;
};
shapes = (
{
closed = 1;
nodes = (
(95,312,l),
(182,360,l),
(182,420,l),
(177,418,o),
(173,416,o),
(168,414,cs),
(162,411,o),
(155,409,o),
(149,406,cs),
(143,403,o),
(137,401,o),
(131,398,cs),
(124,395,o),
(118,392,o),
(111,389,cs),
(106,387,o),
(100,385,o),
(95,383,c)
);
}
);
width = 200;
},
{
anchors = (
{
name = height_l;
pos = (95,-48);
},
{
name = noStartSerif;
pos = (95,438);
}
);
associatedMasterId = m002;
guides = (
{
angle = 23.0394;
pos = (95,383);
}
);
hints = (
{
name = _corner.a;
origin = (0,0);
scale = (0.3,0.5);
type = Corner;
}
);
layerId = "CDA43797-966D-41BD-8657-52D97D9211C0";
name = noStartSerif100;
partSelection = {
noStartSerif = 2;
};
shapes = (
{
closed = 1;
nodes = (
(95,-48,l),
(182,0,l),
(182,420,l),
(177,418,o),
(173,416,o),
(168,414,cs),
(162,411,o),
(155,409,o),
(149,406,cs),
(143,403,o),
(137,401,o),
(131,398,cs),
(124,395,o),
(118,392,o),
(111,389,cs),
(106,387,o),
(100,385,o),
(95,383,c)
);
}
);
width = 200;
}
);
partsSettings = (
{
bottomValue = 0;
name = height_l;
topValue = 100;
},
{
bottomValue = 0;
name = noStartSerif;
topValue = 100;
}
);
},
{
export = 0;
glyphname = _smart.verticalBar_noStart;
lastChange = "2024-05-16 03:18:20 +0000";
layers = (
{
anchors = (
{
name = flatEnd;
pos = (93,138);
},
{
name = length;
pos = (6,90);
}
);
hints = (
{
name = _corner.a;
origin = (0,0);
scale = (0.3,0.5);
type = Corner;
}
);
layerId = m002;
partSelection = {
flatEnd = 1;
length = 1;
};
shapes = (
{
closed = 1;
nodes = (
(6,90,l),
(93,138,l),
(93,338,l),
(6,299,l)
);
}
);
width = 100;
},
{
anchors = (
{
name = flatEnd;
pos = (93,90);
},
{
name = length;
pos = (6,90);
}
);
associatedMasterId = m002;
hints = (
{
name = _corner.a;
origin = (0,0);
scale = (0.01,0);
type = Corner;
}
);
layerId = "3D29A670-BA16-4C38-8A74-58544326B077";
name = flatEnd;
partSelection = {
flatEnd = 2;
};
shapes = (
{
closed = 1;
nodes = (
(6,90,l),
(93,90,l),
(93,338,l),
(6,299,l)
);
}
);
width = 100;
},
{
anchors = (
{
name = flatEnd;
pos = (93,-200);
},
{
name = length;
pos = (6,-248);
}
);
associatedMasterId = m002;
hints = (
{
name = _corner.a;
origin = (0,0);
scale = (0.3,0.5);
type = Corner;
}
);
layerId = "EAED4E05-4474-4648-A14B-4F0A82500420";
name = long;
partSelection = {
flatEnd = 1;
length = 2;
};
shapes = (
{
closed = 1;
nodes = (
(6,-248,l),
(93,-200,l),
(93,338,l),
(6,299,l)
);
}
);
width = 100;
},
{
anchors = (
{
name = flatEnd;
pos = (93,-248);
},
{
name = length;
pos = (6,-248);
}
);
associatedMasterId = m002;
hints = (
{
name = _corner.a;
origin = (0,0);
scale = (0.01,0);
type = Corner;
}
);
layerId = "687BB438-9478-4F86-9F0C-8AFF249B1FBE";
name = long_flatEnd;
partSelection = {
flatEnd = 2;
length = 2;
};
shapes = (
{
closed = 1;
nodes = (
(6,-248,l),
(93,-248,l),
(93,338,l),
(6,299,l)
);
}
);
width = 100;
},
{
anchors = (
{
name = flatEnd;
pos = (93,90);
},
{
name = length;
pos = (6,90);
}
);
associatedMasterId = m002;
hints = (
{
name = _corner.a;
origin = (0,0);
scale = (0.01,0);
type = Corner;
}
);
layerId = "CC2C5ADF-7957-4F74-8C13-7BA68537EE75";
name = flatEnd;
partSelection = {
flatEnd = 2;
};
shapes = (
{
closed = 1;
nodes = (
(6,90,l),
(93,90,l),
(93,338,l),
(6,299,l)
);
}
);
width = 100;
},
{
anchors = (
{
name = flatEnd;
pos = (93,-200);
},
{
name = length;
pos = (6,-248);
}
);
associatedMasterId = m002;
hints = (
{
name = _corner.a;
origin = (0,0);
scale = (0.3,0.5);
type = Corner;
}
);
layerId = "E9AB0048-7717-4A22-AA11-D7DA1C4B8BA5";
name = long;
partSelection = {
flatEnd = 1;
length = 2;
};
shapes = (
{
closed = 1;
nodes = (
(6,-248,l),
(93,-200,l),
(93,338,l),
(6,299,l)
);
}
);
width = 100;
},
{
anchors = (
{
name = flatEnd;
pos = (93,-248);
},
{
name = length;
pos = (6,-248);
}
);
associatedMasterId = m002;
hints = (
{
name = _corner.a;
origin = (0,0);
scale = (0.01,0);
type = Corner;
}
);
layerId = "9FB609B5-BD03-4A5D-A86E-192C1FBFA34A";
name = long_flatEnd;
partSelection = {
flatEnd = 2;
length = 2;
};
shapes = (
{
closed = 1;
nodes = (
(6,-248,l),
(93,-248,l),
(93,338,l),
(6,299,l)
);
}
);
width = 100;
}
);
partsSettings = (
{
bottomValue = 0;
name = flatEnd;
topValue = 100;
},
{
bottomValue = 0;
name = length;
topValue = 100;
}
);
},
{
export = 0;
glyphname = _part.leftArc.osf;
lastChange = "2024-05-16 03:18:20 +0000";
layers = (
{
layerId = m002;
shapes = (
{
closed = 1;
nodes = (
(49,263,o),
(45,247,o),
(64,263,cs),
(129,317,o),
(252,342,o),
(252,231,cs),
(252,190,l),
(339,239,l),
(339,279,ls),
(339,348,o),
(182,430,o),
(56,272,cs)
);
}
);
width = 636;
}
);
},
{
export = 0;
glyphname = _part.leftStroke.osf;
lastChange = "2024-05-16 03:18:20 +0000";
layers = (
{
layerId = m002;
shapes = (
{
closed = 1;
nodes = (
(94,93,cs),
(76,84,o),
(74,78,o),
(87,80,cs),
(140,86,o),
(220,110,o),
(263,152,cs),
(292,181,o),
(306,220,o),
(284,215,cs),
(254,208,o),
(234,205,o),
(201,198,cs),
(184,194,o),
(201,187,o),
(201,183,cs),
(201,166,o),
(153,122,o)
);
}
);
width = 438;
}
);
},
{
export = 0;
glyphname = _smart.verticalBar.noEndSerif;
lastChange = "2024-05-16 03:18:20 +0000";
layers = (
{
anchors = (
{
name = height_l;
pos = (95,-48);
},
{
name = noStartSerif;
pos = (21,438);
}
);
layerId = m002;
shapes = (
{
closed = 1;
nodes = (
(95,-48,l),
(182,0,l),
(182,460,l),
(182,485,o),
(168,514,o),
(146,501,cs),
(100,474,o),
(67,451,o),
(21,432,cs),
(17,430,o),
(17,425,o),
(26,425,cs),
(35,425,o),
(53,424,o),
(63,422,cs),
(88,417,o),
(95,407,o),
(95,383,c)
);
}
);
width = 200;
},
{
anchors = (
{
name = height_l;
pos = (95,359);
},
{
name = noStartSerif;
pos = (21,438);
}
);
associatedMasterId = m002;
layerId = "8DE150B5-5DDD-4622-A075-486A549D13C0";
name = length0;
partSelection = {
height_l = 1;
};
shapes = (
{
closed = 1;
nodes = (
(95,359,l),
(182,407,l),
(182,460,l),
(182,485,o),
(168,514,o),
(146,501,cs),
(100,474,o),
(67,451,o),
(21,432,cs),
(17,430,o),
(17,425,o),
(26,425,cs),
(35,425,o),
(53,424,o),
(63,422,cs),
(88,417,o),
(95,407,o),
(95,383,c)
);
}
);
width = 200;
},
{
anchors = (
{
name = height_l;
pos = (95,-248);
},
{
name = noStartSerif;
pos = (21,438);
}
);
associatedMasterId = m002;
layerId = "24A6FB25-C2B2-475D-8B87-1AAF9C5829F5";
name = length100;
partSelection = {
height_l = 2;
};
shapes = (
{
closed = 1;
nodes = (
(95,-248,l),
(182,-200,l),
(182,460,l),
(182,485,o),
(168,514,o),
(146,501,cs),
(100,474,o),
(67,451,o),
(21,432,cs),
(17,430,o),
(17,425,o),
(26,425,cs),
(35,425,o),
(53,424,o),
(63,422,cs),
(88,417,o),
(95,407,o),
(95,383,c)
);
}
);
width = 200;
},
{
anchors = (
{
name = height_l;
pos = (95,312);
},
{
name = noStartSerif;
pos = (95,438);
}
);
associatedMasterId = m002;
guides = (
{
angle = 23.0394;
pos = (95,383);
}
);
layerId = "8902554F-4E39-4213-A91C-99E8D46422D4";
name = noStartSerif0;
partSelection = {
noStartSerif = 1;
};
shapes = (
{
closed = 1;
nodes = (
(95,312,l),
(182,360,l),
(182,420,l),
(177,418,o),
(173,416,o),
(168,414,cs),
(162,411,o),
(155,409,o),
(149,406,cs),
(143,403,o),
(137,401,o),
(131,398,cs),
(124,395,o),
(118,392,o),
(111,389,cs),
(106,387,o),
(100,385,o),
(95,383,c)
);
}
);
width = 200;
},
{
anchors = (
{
name = height_l;
pos = (95,-48);
},
{
name = noStartSerif;
pos = (95,438);
}
);
associatedMasterId = m002;
guides = (
{
angle = 23.0394;
pos = (95,383);
}
);
layerId = "EE992419-5599-4C81-AC15-946B32385B5E";
name = noStartSerif100;
partSelection = {
noStartSerif = 2;
};
shapes = (
{
closed = 1;
nodes = (
(95,-48,l),
(182,0,l),
(182,420,l),
(177,418,o),
(173,416,o),
(168,414,cs),
(162,411,o),
(155,409,o),
(149,406,cs),
(143,403,o),
(137,401,o),
(131,398,cs),
(124,395,o),
(118,392,o),
(111,389,cs),
(106,387,o),
(100,385,o),
(95,383,c)
);
}
);
width = 200;
},
{
anchors = (
{
name = height_l;
pos = (95,359);
},
{
name = noStartSerif;
pos = (21,438);
}
);
associatedMasterId = m002;
layerId = "C0AF604E-AA30-4916-8343-2C88A42DE428";
name = length0;
partSelection = {
height_l = 1;
};
shapes = (
{
closed = 1;
nodes = (
(95,359,l),
(182,407,l),
(182,460,l),
(182,485,o),
(168,514,o),
(146,501,cs),
(100,474,o),
(67,451,o),
(21,432,cs),
(17,430,o),
(17,425,o),
(26,425,cs),
(35,425,o),
(53,424,o),
(63,422,cs),
(88,417,o),
(95,407,o),
(95,383,c)
);
}
);
width = 200;
},
{
anchors = (
{
name = height_l;
pos = (95,-248);
},
{
name = noStartSerif;
pos = (21,438);
}
);
associatedMasterId = m002;
layerId = "1DEAFF99-A7A1-4489-A5C5-1E2AABB14922";
name = length100;
partSelection = {
height_l = 2;
};
shapes = (
{
closed = 1;
nodes = (
(95,-248,l),
(182,-200,l),
(182,460,l),
(182,485,o),
(168,514,o),
(146,501,cs),
(100,474,o),
(67,451,o),
(21,432,cs),
(17,430,o),
(17,425,o),
(26,425,cs),
(35,425,o),
(53,424,o),
(63,422,cs),
(88,417,o),
(95,407,o),
(95,383,c)
);
}
);
width = 200;
},
{
anchors = (
{
name = height_l;
pos = (95,312);
},
{
name = noStartSerif;
pos = (95,438);
}
);
associatedMasterId = m002;
guides = (
{
angle = 23.0394;
pos = (95,383);
}
);
layerId = "4D1AC63F-F364-4574-8D4E-8716B4D3F253";
name = noStartSerif0;
partSelection = {
noStartSerif = 1;
};
shapes = (
{
closed = 1;
nodes = (
(95,312,l),
(182,360,l),
(182,420,l),
(177,418,o),
(173,416,o),
(168,414,cs),
(162,411,o),
(155,409,o),
(149,406,cs),
(143,403,o),
(137,401,o),
(131,398,cs),
(124,395,o),
(118,392,o),
(111,389,cs),
(106,387,o),
(100,385,o),
(95,383,c)
);
}
);
width = 200;
},
{
anchors = (
{
name = height_l;
pos = (95,-48);
},
{
name = noStartSerif;
pos = (95,438);
}
);
associatedMasterId = m002;
guides = (
{
angle = 23.0394;
pos = (95,383);
}
);
layerId = "C099C110-81B6-4033-9F25-6A8BFD2D5E86";
name = noStartSerif100;
partSelection = {
noStartSerif = 2;
};
shapes = (
{
closed = 1;
nodes = (
(95,-48,l),
(182,0,l),
(182,420,l),
(177,418,o),
(173,416,o),
(168,414,cs),
(162,411,o),
(155,409,o),
(149,406,cs),
(143,403,o),
(137,401,o),
(131,398,cs),
(124,395,o),
(118,392,o),
(111,389,cs),
(106,387,o),
(100,385,o),
(95,383,c)
);
}
);
width = 200;
}
);
partsSettings = (
{
bottomName = Low;
bottomValue = 0;
name = height_l;
topName = High;
topValue = 100;
},
{
bottomName = Low;
bottomValue = 0;
name = noStartSerif;
topName = High;
topValue = 100;
}
);
},
{
export = 0;
glyphname = _smart.verticalBar_noStart.noSerif;
lastChange = "2024-05-16 03:18:20 +0000";
layers = (
{
anchors = (
{
name = flatEnd;
pos = (93,138);
},
{
name = length;
pos = (6,90);
}
);
layerId = m002;
partSelection = {
flatEnd = 1;
length = 1;
};
shapes = (
{
closed = 1;
nodes = (
(6,90,l),
(93,138,l),
(93,338,l),
(6,299,l)
);
}
);
width = 100;
},
{
anchors = (
{
name = flatEnd;
pos = (93,90);
},
{
name = length;
pos = (6,90);
}
);
associatedMasterId = m002;
layerId = "D866CCE1-C690-4FB2-BBAB-6821A01A6370";
name = flatEnd;
partSelection = {
flatEnd = 2;
};
shapes = (
{
closed = 1;
nodes = (
(6,90,l),
(93,90,l),
(93,338,l),
(6,299,l)
);
}
);
width = 100;
},
{
anchors = (
{
name = flatEnd;
pos = (93,-200);
},
{
name = length;
pos = (6,-248);
}
);
associatedMasterId = m002;
layerId = "058FEA1F-7695-44AD-9BDF-FA606A4B2B00";
name = long;
partSelection = {
flatEnd = 1;
length = 2;
};
shapes = (
{
closed = 1;
nodes = (
(6,-248,l),
(93,-200,l),
(93,338,l),
(6,299,l)
);
}
);
width = 100;
},
{
anchors = (
{
name = flatEnd;
pos = (93,-248);
},
{
name = length;
pos = (6,-248);
}
);
associatedMasterId = m002;
layerId = "F0A481C5-823E-48DE-8247-9DF884DF255F";
name = long_flatEnd;
partSelection = {
flatEnd = 2;
length = 2;
};
shapes = (
{
closed = 1;
nodes = (
(6,-248,l),
(93,-248,l),
(93,338,l),
(6,299,l)
);
}
);
width = 100;
},
{
anchors = (
{
name = flatEnd;
pos = (93,90);
},
{
name = length;
pos = (6,90);
}
);
associatedMasterId = m002;
layerId = "5B69AB97-3ED0-4B96-AD20-3D33FE4E851E";
name = flatEnd;
partSelection = {
flatEnd = 2;
};
shapes = (
{
closed = 1;
nodes = (
(6,90,l),
(93,90,l),
(93,338,l),
(6,299,l)
);
}
);
width = 100;
},
{
anchors = (
{
name = flatEnd;
pos = (93,-200);
},
{
name = length;
pos = (6,-248);
}
);
associatedMasterId = m002;
layerId = "4D9C0463-ADE1-4211-8C9B-F422E0C53A91";
name = long;
partSelection = {
flatEnd = 1;
length = 2;
};
shapes = (
{
closed = 1;
nodes = (
(6,-248,l),
(93,-200,l),
(93,338,l),
(6,299,l)
);
}
);
width = 100;
},
{
anchors = (
{
name = flatEnd;
pos = (93,-248);
},
{
name = length;
pos = (6,-248);
}
);
associatedMasterId = m002;
layerId = "DBD74B13-0D12-4051-AF35-3D79CE0A43C7";
name = long_flatEnd;
partSelection = {
flatEnd = 2;
length = 2;
};
shapes = (
{
closed = 1;
nodes = (
(6,-248,l),
(93,-248,l),
(93,338,l),
(6,299,l)
);
}
);
width = 100;
}
);
partsSettings = (
{
bottomName = Low;
bottomValue = 0;
name = flatEnd;
topName = High;
topValue = 100;
},
{
bottomName = Low;
bottomValue = 0;
name = length;
topName = High;
topValue = 100;
}
);
},
{
export = 0;
glyphname = _corner.a;
lastChange = "2024-05-16 03:18:20 +0000";
layers = (
{
anchors = (
{
name = left;
pos = (47,54);
},
{
name = origin;
pos = (47,0);
}
);
layerId = m002;
shapes = (
{
closed = 0;
nodes = (
(47,54,l),
(47,35,o),
(-5,3,o),
(-12,-2,cs),
(-23,-10,o),
(-19,-11,o),
(15,-5,cs),
(28,-3,o),
(108,0,o),
(120,0,c)
);
}
);
width = 40;
}
);
},
{
glyphname = gil;
lastChange = "2024-05-29 00:57:19 +0000";
layers = (
{
layerId = m002;
shapes = (
{
closed = 1;
nodes = (
(88,350,o),
(97,341,cs),
(100,338,o),
(131,311,o),
(134,314,cs),
(170,360,o),
(339,338,o),
(339,164,cs),
(339,70,o),
(273,37,o),
(188,8,cs),
(178,5,o),
(176,-3,o),
(188,-3,cs),
(290,-3,o),
(432,48,o),
(432,186,cs),
(432,275,o),
(355,368,o),
(219,368,cs),
(107,368,o)
);
},
{
piece = {
leftSerif = 0;
length = 59.29834;
rightSerif = 0;
};
pos = (-205,-65);
ref = _smart.horizontalBar;
},
{
piece = {
length = 27.4636;
};
pos = (111,-141);
ref = _smart.verticalBar_noStart;
}
